<?xml version="1.0" standalone="no"?>
<!DOCTYPE svg PUBLIC "-//W3C//DTD SVG 1.1//EN" "http://www.w3.org/Graphics/SVG/1.1/DTD/svg11.dtd" >
<svg>
<metadata>
Created by FontForge 20090622 at Sat Mar 16 12:25:39 2019
 By deploy user
Copyright (c) 2010 by Dino dos Santos _DSType. All rights reserved.
</metadata>
<defs>
<font id="ActaDisplay-Light" horiz-adv-x="600" >
  <font-face 
    font-family="Acta Display Light"
    font-weight="300"
    font-stretch="normal"
    units-per-em="1000"
    panose-1="2 0 5 3 7 0 0 2 0 4"
    ascent="750"
    descent="-250"
    x-height="500"
    cap-height="700"
    bbox="-9 -260 1660 930.083"
    underline-thickness="50"
    underline-position="-50"
    unicode-range="U+0020-U+FB04"
  />
<missing-glyph horiz-adv-x="552" 
d="M128 249q0 68 46 114l-74 90l8 8l74 -90q43 36 95 36t93 -36l74 90l8 -8l-73 -89q47 -47 47 -115q0 -69 -47 -114l72 -86l-8 -9l-73 87q-40 -35 -93 -35q-54 0 -95 35l-71 -87l-9 9l72 86q-46 46 -46 114zM140 249q0 -59 40.5 -102t96.5 -43t96.5 43t40.5 102
t-40.5 102.5t-96.5 43.5t-96.5 -43.5t-40.5 -102.5z" />
    <glyph glyph-name="ff" unicode="ff" horiz-adv-x="650" 
d="M290 500v-10h-105v-430q0 -33 15.5 -39.5t89.5 -10.5v-10h-255v10q67 4 81 10.5t14 39.5v430h-95v5l95 5v40q0 72 49 131t151 59q98 0 146 -61q42 61 124 61q42 0 71 -21t29 -54q0 -24 -11.5 -34.5t-26.5 -10.5q-32 0 -32 26q0 7 15 21t15 28q0 17 -18.5 26t-46.5 9
q-100 0 -100 -180v-40h130v-10h-130v-430q0 -33 16.5 -39.5t98.5 -10.5v-10h-265v10q67 4 81 10.5t14 39.5v430h-95v5l95 5v40q0 56 21 104q-35 76 -131 76q-145 0 -145 -180v-40h105z" />
    <glyph glyph-name="fi" unicode="fi" horiz-adv-x="605" 
d="M495 510v-450q0 -33 14 -39.5t81 -10.5v-10h-245v10q67 4 81 10.5t14 39.5v380q0 31 -12.5 40t-59.5 10h-183v-430q0 -33 15.5 -39.5t89.5 -10.5v-10h-255v10q67 4 81 10.5t14 39.5v430h-95v5l95 5v40q0 72 49 131t151 59q71 0 118 -35t47 -75q0 -21 -12.5 -33t-30.5 -12
q-17 0 -28 8.5t-11 22.5q0 9 12.5 25t12.5 24q0 22 -28 43.5t-75 21.5q-150 0 -150 -180v-40h230l70 10h10z" />
    <glyph glyph-name="fl" unicode="fl" horiz-adv-x="605" 
d="M495 730v-670q0 -33 14 -39.5t81 -10.5v-10h-245v10q67 4 81 10.5t14 39.5v615q-36 45 -110 45q-145 0 -145 -180v-40h130v-10h-130v-430q0 -33 15.5 -39.5t89.5 -10.5v-10h-255v10q67 4 81 10.5t14 39.5v430h-95v5l95 5v40q0 72 49 131t151 59q72 0 121 -37l34 37h10z
" />
    <glyph glyph-name="ffi" unicode="ffi" horiz-adv-x="915" 
d="M805 510v-450q0 -33 14 -39.5t81 -10.5v-10h-245v10q67 4 81 10.5t14 39.5v380q0 34 -15.5 42t-79.5 8h-160v-430q0 -33 15.5 -39.5t89.5 -10.5v-10h-255v10q67 4 81 10.5t14 39.5v430h-95v5l95 5v40q0 53 24 97q-33 83 -134 83q-145 0 -145 -180v-40h105v-10h-105v-430
q0 -33 15.5 -39.5t89.5 -10.5v-10h-255v10q67 4 81 10.5t14 39.5v430h-95v5l95 5v40q0 72 49 131t151 59q51 0 91.5 -19.5t59.5 -48.5q54 68 159 68q71 0 118 -35t47 -75q0 -21 -12.5 -33t-30.5 -12q-17 0 -28 8.5t-11 22.5q0 9 12.5 25t12.5 24q0 22 -28 43.5t-75 21.5
q-150 0 -150 -180v-40h230l70 10h10z" />
    <glyph glyph-name="ffl" unicode="ffl" horiz-adv-x="915" 
d="M805 730v-106v-4v-560q0 -33 14 -39.5t81 -10.5v-10h-245v10q67 4 81 10.5t14 39.5v615q-36 45 -110 45q-145 0 -145 -180v-40h130v-10h-130v-430q0 -33 15.5 -39.5t89.5 -10.5v-10h-255v10q67 4 81 10.5t14 39.5v430h-95v5l95 5v40q0 53 24 97q-33 83 -134 83
q-145 0 -145 -180v-40h105v-10h-105v-430q0 -33 15.5 -39.5t89.5 -10.5v-10h-255v10q67 4 81 10.5t14 39.5v430h-95v5l95 5v40q0 72 49 131t151 59q51 0 91.5 -19.5t59.5 -48.5q54 68 159 68q72 0 121 -37l34 37h10z" />
    <glyph glyph-name="T_h" unicode="Th" horiz-adv-x="1085" 
d="M30 540l5 160h570l40 30h10l-5 -325h5q40 47 91.5 76t104.5 29q55 0 89.5 -36t34.5 -114v-300q0 -33 14 -39.5t81 -10.5v-10h-225v10q52 4 63.5 11t11.5 39v303q0 112 -110 112q-75 0 -155 -80v-335q0 -33 14 -39.5t81 -10.5v-10h-245v10q67 4 81 10.5t14 39.5v630h-285
v-630q0 -33 14 -39.5t81 -10.5v-10h-245v10q67 4 81 10.5t14 39.5v630h-85q-57 0 -87.5 -39t-47.5 -111h-10z" />
    <glyph glyph-name="f_f_j" unicode="ffj" horiz-adv-x="895" 
d="M805 510v-490q0 -107 -38 -168.5t-92 -61.5q-45 0 -45 36q0 14 9.5 24t25.5 10q13 0 34 -17.5t26 -17.5q8 0 13 5t8.5 23t3.5 52v535q0 31 -12.5 40t-59.5 10h-183v-430q0 -33 15.5 -39.5t89.5 -10.5v-10h-255v10q67 4 81 10.5t14 39.5v430h-95v5l95 5v40q0 53 24 97
q-33 83 -134 83q-145 0 -145 -180v-40h105v-10h-105v-430q0 -33 15.5 -39.5t89.5 -10.5v-10h-255v10q67 4 81 10.5t14 39.5v430h-95v5l95 5v40q0 72 49 131t151 59q51 0 91.5 -19.5t59.5 -48.5q54 68 159 68q71 0 118 -35t47 -75q0 -21 -12.5 -33t-30.5 -12q-17 0 -28 8.5
t-11 22.5q0 9 12.5 25t12.5 24q0 22 -28 43.5t-75 21.5q-150 0 -150 -180v-40h230l70 10h10z" />
    <glyph glyph-name="f_j" unicode="fj" horiz-adv-x="585" 
d="M495 510v-490q0 -107 -38 -168.5t-92 -61.5q-45 0 -45 36q0 14 9.5 24t25.5 10q13 0 34 -17.5t26 -17.5q8 0 13 5t8.5 23t3.5 52v535q0 34 -15.5 42t-79.5 8h-160v-430q0 -33 15.5 -39.5t89.5 -10.5v-10h-255v10q67 4 81 10.5t14 39.5v430h-95v5l95 5v40q0 72 49 131
t151 59q71 0 118 -35t47 -75q0 -21 -12.5 -33t-30.5 -12q-17 0 -28 8.5t-11 22.5q0 9 12.5 25t12.5 24q0 22 -28 43.5t-75 21.5q-150 0 -150 -180v-40h230l70 10h10z" />
    <glyph glyph-name="Tcaron_h" unicode="&#x164;h" horiz-adv-x="1085" 
d="M30 540l5 160h570l40 30h10l-5 -325h5q40 47 91.5 76t104.5 29q55 0 89.5 -36t34.5 -114v-300q0 -33 14 -39.5t81 -10.5v-10h-225v10q52 4 63.5 11t11.5 39v303q0 112 -110 112q-75 0 -155 -80v-335q0 -33 14 -39.5t81 -10.5v-10h-245v10q67 4 81 10.5t14 39.5v630h-285
v-630q0 -33 14 -39.5t81 -10.5v-10h-245v10q67 4 81 10.5t14 39.5v630h-85q-57 0 -87.5 -39t-47.5 -111h-10zM163 920l127 -101l127 101h2l-125 -180h-9l-124 180h2z" />
    <glyph glyph-name="Tcommaaccent_h" unicode="&#x162;h" horiz-adv-x="1085" 
d="M284 -30q34 0 49.5 -23t15.5 -57q0 -76 -91 -125l-4 7q60 34 60 62q0 6 -0.5 10t-8 10t-21.5 6q-24 0 -39.5 16.5t-15.5 38.5q0 24 16.5 39.5t38.5 15.5zM30 540l5 160h570l40 30h10l-5 -325h5q40 47 91.5 76t104.5 29q55 0 89.5 -36t34.5 -114v-300q0 -33 14 -39.5
t81 -10.5v-10h-225v10q52 4 63.5 11t11.5 39v303q0 112 -110 112q-75 0 -155 -80v-335q0 -33 14 -39.5t81 -10.5v-10h-245v10q67 4 81 10.5t14 39.5v630h-285v-630q0 -33 14 -39.5t81 -10.5v-10h-245v10q67 4 81 10.5t14 39.5v630h-85q-57 0 -87.5 -39t-47.5 -111h-10z" />
    <glyph glyph-name=".notdef" horiz-adv-x="552" 
d="M128 249q0 68 46 114l-74 90l8 8l74 -90q43 36 95 36t93 -36l74 90l8 -8l-73 -89q47 -47 47 -115q0 -69 -47 -114l72 -86l-8 -9l-73 87q-40 -35 -93 -35q-54 0 -95 35l-71 -87l-9 9l72 86q-46 46 -46 114zM140 249q0 -59 40.5 -102t96.5 -43t96.5 43t40.5 102
t-40.5 102.5t-96.5 43.5t-96.5 -43.5t-40.5 -102.5z" />
    <glyph glyph-name=".null" horiz-adv-x="0" 
 />
    <glyph glyph-name="nonmarkingreturn" horiz-adv-x="333" 
 />
    <glyph glyph-name="space" unicode=" " horiz-adv-x="230" 
 />
    <glyph glyph-name="exclam" unicode="!" horiz-adv-x="310" 
d="M161 160h-10q-2 93 -16.5 296.5t-14.5 233.5q0 40 36 40t36 -40q0 -26 -15 -230t-16 -300zM100 50q0 23 16 39t39 16t39 -16t16 -39t-16 -39t-39 -16t-39 16t-16 39z" />
    <glyph glyph-name="quotedbl" unicode="&#x22;" horiz-adv-x="412" 
d="M126 568l-25 162q-2 14 7.5 22t22.5 8t22.5 -8t7.5 -22l-25 -162h-10zM276 568l-25 162q-2 14 7.5 22t22.5 8t22.5 -8t7.5 -22l-25 -162h-10z" />
    <glyph glyph-name="numbersign" unicode="#" horiz-adv-x="560" 
d="M43 243h142v169h-142v10h142v143h10v-143h169v143h10v-143h143v-10h-143v-169h143v-10h-143v-142h-10v142h-169v-142h-10v142h-142v10zM195 412v-169h169v169h-169z" />
    <glyph glyph-name="dollar" unicode="$" horiz-adv-x="511" 
d="M442 467h-10q-16 81 -61.5 130t-103.5 53l-3 -278q95 -44 128 -70q64 -52 64 -132q0 -78 -52.5 -127.5t-142.5 -52.5v-90h-11v90q-104 2 -186 48l-9 160h9q16 -105 69 -150.5t117 -47.5l3 313q-94 41 -126 67q-58 47 -58 120q0 66 48.5 112t137.5 48l1 90h12l-1 -90
q89 -2 165 -42zM401 159q0 55 -35 86.5t-102 62.5l-3 -308q64 1 102 48.5t38 110.5zM124 520q0 -50 33 -81t96 -61l2 272q-59 -1 -95 -39t-36 -91z" />
    <glyph glyph-name="percent" unicode="%" horiz-adv-x="754" 
d="M532 700h11l-322 -700h-12zM406 145q2 66 42 110.5t103 44.5q60 0 99.5 -45t37.5 -110q-2 -66 -42.5 -110.5t-103.5 -44.5q-59 0 -98 45t-38 110zM446 145q0 -68 27.5 -109t73.5 -41t73 41t27 109t-27 109t-73 41t-73.5 -41t-27.5 -109zM66 555q2 66 42 110.5t103 44.5
q60 0 99.5 -45t37.5 -110q-2 -66 -42.5 -110.5t-103.5 -44.5q-59 0 -98 45t-38 110zM106 555q0 -68 27.5 -109t73.5 -41t73 41t27 109t-27 109t-73 41t-73.5 -41t-27.5 -109z" />
    <glyph glyph-name="ampersand" unicode="&#x26;" horiz-adv-x="728" 
d="M132 195q0 -84 36 -134.5t110 -50.5q40 0 93 22.5t87 63.5l-228 273q-40 -27 -69 -77t-29 -97zM413 577q0 55 -27.5 89t-84.5 34q-54 0 -83 -35t-29 -74q0 -51 19 -91t66 -99q139 73 139 176zM539 0l-74 88q-94 -98 -210 -98q-84 0 -134.5 49t-50.5 130q0 22 4.5 41.5
t16 38l19 30.5t28 30l27.5 24t31.5 24t27.5 21q-46 55 -69.5 97t-23.5 85q0 66 48.5 108t117.5 42q67 0 106.5 -34.5t39.5 -96.5q0 -44 -41.5 -92.5t-121.5 -92.5l212 -255q59 88 86 164q14 37 -13.5 58t-90.5 29v10h214v-10q-20 -2 -34 -6.5t-22 -8t-15 -13.5t-9 -15
l-8 -21t-9 -23q-39 -95 -92 -170l61 -66q24 -28 43.5 -40.5t49.5 -16.5v-10h-114z" />
    <glyph glyph-name="quotesingle" unicode="'" horiz-adv-x="262" 
d="M126 568l-25 162q-2 14 7.5 22t22.5 8t22.5 -8t7.5 -22l-25 -162h-10z" />
    <glyph glyph-name="parenleft" unicode="(" horiz-adv-x="334" 
d="M110 340q0 135 48.5 255t131.5 205h4q-68 -97 -96 -208t-28 -252t28 -252t96 -208h-4q-83 85 -131.5 205t-48.5 255z" />
    <glyph glyph-name="parenright" unicode=")" horiz-adv-x="334" 
d="M224 340q0 -135 -48.5 -255t-131.5 -205h-4q68 97 96 208t28 252t-28 252t-96 208h4q83 -85 131.5 -205t48.5 -255z" />
    <glyph glyph-name="asterisk" unicode="*" horiz-adv-x="442" 
d="M80 568q0 22 24 22q3 0 47.5 -9t58.5 -9q-10 10 -47 35.5t-40 28.5q-18 16 -2 32q7 8 16 8t16 -8q2 -2 28 -41.5t35 -48.5q0 15 -8 60.5t-8 48.5q0 23 21 23t21 -23q0 -3 -8.5 -48.5t-8.5 -60.5q10 9 36 48.5t28 41.5q7 8 16 8t16 -8q16 -16 -2 -32q-3 -3 -40 -28.5
t-48 -35.5q14 0 59 9t48 9q24 0 24 -22t-24 -22q-3 0 -48 8.5t-59 8.5q11 -10 48 -35t40 -28q18 -16 2 -32q-7 -8 -16 -8t-16 8q-2 2 -28 41.5t-36 48.5q0 -16 8.5 -61t8.5 -48q0 -23 -21 -23t-21 23q0 3 8 48t8 61q-9 -9 -35 -48.5t-28 -41.5q-7 -8 -16 -8t-16 8
q-16 16 2 32q3 3 40 28t47 35q-14 0 -58.5 -8.5t-47.5 -8.5q-24 0 -24 22z" />
    <glyph glyph-name="plus" unicode="+" horiz-adv-x="560" 
d="M285 502v-173h172v-10h-172v-171h-10v171h-172v10h172v173h10z" />
    <glyph glyph-name="comma" unicode="," horiz-adv-x="300" 
d="M145 105q34 0 49.5 -23t15.5 -57q0 -113 -111 -165l-5 12q37 17 63.5 45.5t26.5 50.5q0 14 -13 20.5t-26 6.5q-24 0 -39.5 16.5t-15.5 38.5q0 24 16.5 39.5t38.5 15.5z" />
    <glyph glyph-name="hyphen" unicode="-" horiz-adv-x="434" 
d="M60 273h314v-10h-314v10z" />
    <glyph glyph-name="period" unicode="." horiz-adv-x="290" 
d="M90 50q0 23 16 39t39 16t39 -16t16 -39t-16 -39t-39 -16t-39 16t-16 39z" />
    <glyph glyph-name="slash" unicode="/" horiz-adv-x="413" 
d="M334 710h9l-263 -720h-10z" />
    <glyph glyph-name="zero" unicode="0" horiz-adv-x="590" 
d="M65 325q0 135 63 235t167 100t167 -100t63 -235t-63 -235t-167 -100t-167 100t-63 235zM465 325q0 150 -45.5 237.5t-124.5 87.5t-124.5 -87.5t-45.5 -237.5t45.5 -237.5t124.5 -87.5t124.5 87.5t45.5 237.5z" />
    <glyph glyph-name="one" unicode="1" horiz-adv-x="420" 
d="M180 60v572l-147 -60l-3 8l195 80h10v-600q0 -33 47 -42q19 -4 93 -8v-10h-335v10q94 6 115 14q25 11 25 36z" />
    <glyph glyph-name="two" unicode="2" horiz-adv-x="510" 
d="M250 650q-61 0 -95.5 -29.5t-34.5 -60.5q0 -12 17.5 -25t17.5 -25q0 -14 -11 -22t-24 -8q-40 0 -40 40q0 60 53 100t132 40q75 0 127.5 -47t52.5 -138q0 -103 -73.5 -196.5t-249.5 -223.5h333v-55h-400v10q174 136 252 248t78 227q0 67 -34.5 116t-100.5 49z" />
    <glyph glyph-name="three" unicode="3" horiz-adv-x="535" 
d="M465 181q0 -61 -36 -106.5t-83.5 -65t-95.5 -19.5q-80 0 -137.5 40.5t-57.5 99.5q0 40 40 40q13 0 24 -8t11 -22q0 -12 -17.5 -30t-17.5 -30q0 -23 39.5 -51t100.5 -29q75 -1 122.5 42.5t47.5 123.5q0 98 -51 136t-149 38v10q30 -2 57.5 4t54 22.5t42.5 49.5t16 79
q0 59 -31 102t-94 43q-60 0 -95 -27.5t-35 -52.5q0 -12 17.5 -30t17.5 -30q0 -14 -11 -22t-24 -8q-40 0 -40 40q0 57 53.5 98.5t131.5 41.5q81 0 125.5 -43t44.5 -112q0 -60 -46 -101t-114 -57v-2q79 -10 134.5 -51t55.5 -113z" />
    <glyph glyph-name="four" unicode="4" horiz-adv-x="540" 
d="M400 0h-55v189h-315v11l360 460h10v-461h110v-10h-110v-189zM345 199v386l-303 -386h303z" />
    <glyph glyph-name="five" unicode="5" horiz-adv-x="535" 
d="M120 650h325v-55h-317l-6 -180q79 0 140.5 -13.5t99 -35t61.5 -51t33 -59t9 -61.5q0 -92 -61 -148.5t-169 -56.5q-85 0 -132.5 36.5t-47.5 88.5q0 24 13 39.5t27 15.5q13 0 24 -8t11 -22q0 -12 -17.5 -28.5t-17.5 -31.5q0 -35 36 -57.5t94 -22.5q80 0 130 51.5t50 128.5
q0 35 -13.5 65.5t-43.5 58.5t-87.5 44.5t-135.5 16.5h-14z" />
    <glyph glyph-name="six" unicode="6" horiz-adv-x="564" 
d="M434 200q0 78 -40 134t-105 56q-41 0 -85 -20t-73 -50q-16 -137 29 -228.5t124 -91.5q64 0 107 57t43 143zM499 210q0 -99 -61.5 -159.5t-153.5 -60.5q-108 0 -163.5 74.5t-55.5 189.5q0 160 95 275t249 141l3 -7q-233 -67 -282 -327q83 69 174 69q88 0 141.5 -55.5
t53.5 -139.5z" />
    <glyph glyph-name="seven" unicode="7" horiz-adv-x="484" 
d="M454 640l-267 -640h-76l317 595h-265q-64 0 -85 -16t-28 -80h-10l5 151h409v-10z" />
    <glyph glyph-name="eight" unicode="8" horiz-adv-x="545" 
d="M80 490q0 77 63.5 123.5t141.5 46.5q77 0 133.5 -44.5t56.5 -110.5q0 -45 -32.5 -89t-96.5 -79q69 -32 106.5 -68.5t37.5 -93.5q0 -87 -68.5 -136t-156.5 -49q-98 0 -154 46.5t-56 113.5q0 58 37.5 107.5t114.5 82.5q-60 31 -93.5 65.5t-33.5 84.5zM105 160
q0 -76 48.5 -118t126.5 -42q68 0 111.5 47t43.5 103q0 20 -6 37.5t-20 33t-27.5 27t-37 24.5l-39 21t-44.5 21t-43 20q-52 -21 -82.5 -67.5t-30.5 -106.5zM425 500q0 69 -38.5 109.5t-111.5 40.5q-63 0 -99 -43t-36 -97q0 -16 5 -31.5t11.5 -26.5t21 -23.5t24.5 -20
t31.5 -18.5l32 -16.5t36 -17t35.5 -15.5q88 52 88 159z" />
    <glyph glyph-name="nine" unicode="9" horiz-adv-x="564" 
d="M130 450q0 -78 40 -134t105 -56q41 0 85 20t73 50q16 137 -29 228.5t-124 91.5q-64 0 -107 -57t-43 -143zM65 440q0 99 61.5 159.5t153.5 60.5q108 0 163.5 -74.5t55.5 -189.5q0 -160 -95 -275t-249 -141l-3 7q233 67 282 327q-83 -69 -174 -69q-88 0 -141.5 55.5
t-53.5 139.5z" />
    <glyph glyph-name="colon" unicode=":" horiz-adv-x="290" 
d="M90 50q0 23 16 39t39 16t39 -16t16 -39t-16 -39t-39 -16t-39 16t-16 39zM90 335q0 23 16 39t39 16t39 -16t16 -39t-16 -39t-39 -16t-39 16t-16 39z" />
    <glyph glyph-name="semicolon" unicode=";" horiz-adv-x="300" 
d="M95 335q0 23 16 39t39 16t39 -16t16 -39t-16 -39t-39 -16t-39 16t-16 39zM145 105q34 0 49.5 -23t15.5 -57q0 -113 -111 -165l-5 12q37 17 63.5 45.5t26.5 50.5q0 14 -13 20.5t-26 6.5q-24 0 -39.5 16.5t-15.5 38.5q0 24 16.5 39.5t38.5 15.5z" />
    <glyph glyph-name="less" unicode="&#x3c;" horiz-adv-x="480" 
d="M377 502l-267 -177l267 -179v-11l-274 181v17l274 180v-11z" />
    <glyph glyph-name="equal" unicode="=" horiz-adv-x="560" 
d="M103 402h354v-10h-354v10zM103 262h354v-10h-354v10z" />
    <glyph glyph-name="greater" unicode="&#x3e;" horiz-adv-x="480" 
d="M370 325l-267 177v11l274 -180v-17l-274 -181v11z" />
    <glyph glyph-name="question" unicode="?" horiz-adv-x="485" 
d="M210 720q-60 0 -95 -27.5t-35 -52.5q0 -19 17.5 -34t17.5 -26q0 -14 -11 -22t-24 -8q-40 0 -40 40q0 60 53 100t132 40q74 0 127 -45t53 -130q0 -44 -21.5 -84.5t-56 -70t-66 -49t-61.5 -31.5l8 -160h-14l-8 163q66 32 112.5 91.5t46.5 140.5q0 67 -34.5 116t-100.5 49z
M150 50q0 23 16 39t39 16t39 -16t16 -39t-16 -39t-39 -16t-39 16t-16 39z" />
    <glyph glyph-name="at" unicode="@" horiz-adv-x="850" 
d="M494 112l46 232q-30 33 -75 33q-35 0 -64 -25t-45 -64t-24.5 -79.5t-8.5 -77.5q0 -55 14.5 -93t45.5 -38q34 0 68 32t43 80zM561 346l36 29h5l-52 -278q-4 -21 -5 -33.5t0.5 -28.5t12.5 -24t31 -8q49 0 100 76.5t51 181.5q0 132 -81.5 205t-198.5 73q-131 0 -231.5 -118
t-100.5 -266q0 -141 79.5 -223.5t212.5 -82.5q63 0 131 21.5t116 59.5l4 -6q-114 -95 -272 -95q-146 0 -232.5 90.5t-86.5 233.5q0 166 114.5 281t267.5 115q132 0 220 -74.5t88 -209.5q0 -118 -62 -195.5t-138 -77.5q-38 0 -58 21t-22 53q-22 -38 -55 -57t-66 -19
q-53 0 -82 39t-29 97q0 95 59 177.5t143 82.5q61 0 101 -40z" />
    <glyph glyph-name="A" unicode="A" horiz-adv-x="690" 
d="M349 705l234 -638q10 -29 26 -41.5t61 -15.5v-10h-240v10q68 8 84 18.5t5 41.5l-64 180h-282l-63 -183q-11 -32 8 -41t102 -16v-10h-200v10q42 8 56 17.5t24 39.5l220 638h29zM311 652l-135 -392h275l-138 392h-2z" />
    <glyph glyph-name="B" unicode="B" horiz-adv-x="610" 
d="M335 0h-290v10q67 4 81 10.5t14 39.5v580q0 33 -14 39.5t-81 10.5v10h260q110 0 170 -46.5t60 -123.5q0 -58 -53 -104t-132 -64v-2q103 -16 159 -65t56 -110q0 -84 -60 -134.5t-170 -50.5zM195 10h135q52 0 88 16.5t54 44.5t25.5 56.5t7.5 62.5q0 72 -53 118.5t-162 46.5
h-95v-345zM195 365h85q97 0 146 43t49 112t-42.5 119.5t-132.5 50.5h-105v-325z" />
    <glyph glyph-name="C" unicode="C" horiz-adv-x="640" 
d="M380 0q50 0 90 17t65.5 46t41 59t23.5 63h10l-15 -135q-96 -60 -215 -60q-137 0 -231 102t-94 258t94 258t231 102q119 0 215 -60l10 -135h-10q-17 75 -74 130t-141 55q-114 0 -189.5 -96t-75.5 -254t75.5 -254t189.5 -96z" />
    <glyph glyph-name="D" unicode="D" horiz-adv-x="740" 
d="M195 10h160q111 0 190.5 94t79.5 246t-80 246t-190 94h-160v-680zM355 0h-310v10q67 4 81 10.5t14 39.5v580q0 33 -14 39.5t-81 10.5v10h310q143 0 236.5 -97t93.5 -253t-93.5 -253t-236.5 -97z" />
    <glyph glyph-name="E" unicode="E" 
d="M540 700l5 -160h-10q-17 72 -47.5 111t-87.5 39h-205v-330h125q52 0 77.5 25.5t32.5 84.5h10v-230h-10q-7 59 -32.5 84.5t-77.5 25.5h-125v-340h195q125 0 155 150h10l-10 -160h-500v10q67 4 81 10.5t14 39.5v580q0 33 -14 39.5t-81 10.5v10h495z" />
    <glyph glyph-name="F" unicode="F" horiz-adv-x="575" 
d="M140 60v580q0 33 -14 39.5t-81 10.5v10h495l5 -160h-10q-17 72 -47.5 111t-87.5 39h-205v-350h125q52 0 77.5 25.5t32.5 84.5h10v-230h-10q-7 59 -32.5 84.5t-77.5 25.5h-125v-270q0 -33 14 -39.5t81 -10.5v-10h-245v10q67 4 81 10.5t14 39.5z" />
    <glyph glyph-name="G" unicode="G" horiz-adv-x="710" 
d="M380 0q116 0 180 111v139q0 33 -14 39.5t-81 10.5v10h225v-10q-52 -4 -63.5 -11t-11.5 -39v-255h-10l-14 86q-93 -91 -211 -91q-137 0 -231 102t-94 258t94 258t231 102q119 0 215 -60l10 -135h-10q-17 75 -74 130t-141 55q-114 0 -189.5 -96t-75.5 -254t75.5 -254
t189.5 -96z" />
    <glyph glyph-name="H" unicode="H" horiz-adv-x="775" 
d="M580 60v295h-385v-295q0 -33 14 -39.5t81 -10.5v-10h-245v10q67 4 81 10.5t14 39.5v580q0 33 -14 39.5t-81 10.5v10h245v-10q-67 -4 -81 -10.5t-14 -39.5v-275h385v275q0 33 -14 39.5t-81 10.5v10h245v-10q-67 -4 -81 -10.5t-14 -39.5v-580q0 -33 14 -39.5t81 -10.5v-10
h-245v10q67 4 81 10.5t14 39.5z" />
    <glyph glyph-name="I" unicode="I" horiz-adv-x="335" 
d="M140 60v580q0 33 -14 39.5t-81 10.5v10h245v-10q-67 -4 -81 -10.5t-14 -39.5v-580q0 -33 14 -39.5t81 -10.5v-10h-245v10q67 4 81 10.5t14 39.5z" />
    <glyph glyph-name="J" unicode="J" horiz-adv-x="365" 
d="M180 175v465q0 33 -14 39.5t-81 10.5v10h245v-10q-67 -4 -81 -10.5t-14 -39.5v-440q0 -95 -54 -152.5t-118 -57.5q-53 0 -53 35q0 30 40 30q9 0 30 -17.5t40 -17.5q60 0 60 155z" />
    <glyph glyph-name="K" unicode="K" horiz-adv-x="710" 
d="M140 60v580q0 33 -14 39.5t-81 10.5v10h245v-10q-67 -4 -81 -10.5t-14 -39.5v-275q75 0 103 11t55 44l151 188q26 30 1.5 54t-90.5 28v10h230v-10q-42 -3 -64 -17t-46 -43l-220 -270q31 -23 105 -110l112 -133q25 -29 42 -46.5t49.5 -37.5t66.5 -23v-10h-125
q-23 22 -52.5 55.5l-53 62.5t-25.5 31l-126 149q-46 56 -113 57v-295q0 -33 14 -39.5t81 -10.5v-10h-245v10q67 4 81 10.5t14 39.5z" />
    <glyph glyph-name="L" unicode="L" horiz-adv-x="565" 
d="M140 60v580q0 33 -14 39.5t-81 10.5v10h245v-10q-67 -4 -81 -10.5t-14 -39.5v-630h185q125 0 155 150h10l-10 -160h-490v10q67 4 81 10.5t14 39.5z" />
    <glyph glyph-name="M" unicode="M" horiz-adv-x="870" 
d="M675 60v600l-250 -665h-5l-275 660v-595q0 -32 19.5 -39t110.5 -11v-10h-235v10q67 4 81 10.5t14 39.5v580q0 33 -14 39.5t-81 10.5v10h150l256 -617l233 617h146v-10q-67 -4 -81 -10.5t-14 -39.5v-580q0 -33 14 -39.5t81 -10.5v-10h-245v10q67 4 81 10.5t14 39.5z" />
    <glyph glyph-name="N" unicode="N" horiz-adv-x="725" 
d="M590 -5h-10l-425 655v-590q0 -32 20.5 -39t99.5 -11v-10h-235v10q70 4 87.5 11t17.5 39v580q0 32 -17.5 39t-87.5 11v10h150l390 -602v542q0 32 -20.5 39t-99.5 11v10h235v-10q-70 -4 -87.5 -11t-17.5 -39v-645z" />
    <glyph glyph-name="O" unicode="O" horiz-adv-x="770" 
d="M385 -10q-142 0 -236 101.5t-94 258.5t94 258.5t236 101.5t236 -101.5t94 -258.5t-94 -258.5t-236 -101.5zM385 700q-110 0 -190 -98.5t-80 -251.5t80 -251.5t190 -98.5t190 98.5t80 251.5t-80 251.5t-190 98.5z" />
    <glyph glyph-name="P" unicode="P" horiz-adv-x="595" 
d="M320 690h-125v-375h95q113 0 164 54t51 131q0 33 -9 64t-28.5 60.5t-57.5 47.5t-90 18zM45 700h289q110 0 170.5 -52.5t60.5 -137.5q0 -86 -65 -145.5t-210 -59.5h-95v-245q0 -33 14 -39.5t81 -10.5v-10h-245v10q67 4 81 10.5t14 39.5v580q0 33 -14 39.5t-81 10.5v10z
" />
    <glyph glyph-name="Q" unicode="Q" horiz-adv-x="770" 
d="M55 350q0 157 94 258.5t236 101.5t236 -101.5t94 -258.5q0 -154 -91 -254.5t-229 -104.5q167 -138 236 -138q45 0 77 48l7 -6q-17 -44 -39 -69.5t-60 -25.5q-36 0 -78.5 33.5t-158.5 156.5q-140 2 -232 103.5t-92 256.5zM385 700q-110 0 -190 -98.5t-80 -251.5t80 -251.5
t190 -98.5t190 98.5t80 251.5t-80 251.5t-190 98.5z" />
    <glyph glyph-name="R" unicode="R" horiz-adv-x="670" 
d="M45 700h279q110 0 170.5 -52.5t60.5 -137.5q0 -84 -62 -143t-199 -62q53 -20 81.5 -42t52.5 -53l92 -125q49 -66 130 -75v-10h-125q-37 34 -75 90l-66 95q-63 91 -109 120h-80v-245q0 -33 14 -39.5t81 -10.5v-10h-245v10q67 4 81 10.5t14 39.5v580q0 33 -14 39.5
t-81 10.5v10zM310 690h-115v-375h85q113 0 164 54t51 131q0 33 -9 64t-28.5 60.5t-57.5 47.5t-90 18z" />
    <glyph glyph-name="S" unicode="S" horiz-adv-x="535" 
d="M465 505h-10q-19 89 -69.5 142t-115.5 53q-67 0 -106 -34t-39 -91q0 -48 26.5 -84.5t65.5 -58l85.5 -46t85.5 -47.5t65.5 -64t26.5 -95q0 -85 -58 -137.5t-157 -52.5q-108 0 -200 50l-10 170h10q9 -61 31.5 -104t53 -65t60 -31.5t60.5 -9.5q74 0 114.5 43.5t40.5 116.5
q0 58 -36.5 98t-88.5 64.5l-104.5 49t-89 66.5t-36.5 102q0 71 53.5 120.5t151.5 49.5q97 0 180 -45z" />
    <glyph glyph-name="T" unicode="T" horiz-adv-x="575" 
d="M30 540l5 160h505l5 -160h-10q-17 72 -47.5 111t-87.5 39h-85v-630q0 -33 14 -39.5t81 -10.5v-10h-245v10q67 4 81 10.5t14 39.5v630h-85q-57 0 -87.5 -39t-47.5 -111h-10z" />
    <glyph glyph-name="U" unicode="U" horiz-adv-x="755" 
d="M130 270v370q0 33 -14 39.5t-81 10.5v10h245v-10q-67 -4 -81 -10.5t-14 -39.5v-375q0 -122 54.5 -188.5t160.5 -66.5q100 0 160 66.5t60 188.5v375q0 32 -18.5 39t-101.5 11v10h225v-10q-67 -4 -81 -10.5t-14 -39.5v-370q0 -134 -68.5 -207t-191.5 -73q-240 0 -240 280z
" />
    <glyph glyph-name="V" unicode="V" horiz-adv-x="670" 
d="M331 -5l-234 638q-10 29 -26 41.5t-61 15.5v10h240v-10q-68 -8 -84 -18.5t-5 -41.5l206 -582h2l201 585q11 32 -8 41t-102 16v10h200v-10q-42 -8 -56 -17.5t-24 -39.5l-220 -638h-29z" />
    <glyph glyph-name="W" unicode="W" horiz-adv-x="1000" 
d="M681 -5l-159 525l-182 -525h-29l-210 628q-10 31 -28.5 47.5t-62.5 19.5v10h240v-10q-65 -7 -80.5 -22t-4.5 -48l184 -565h2l166 480l-26 88q-9 31 -27.5 47.5t-63.5 19.5v10h240v-10q-64 -7 -79.5 -21.5t-5.5 -48.5l162 -566h2l168 544q18 45 0.5 65t-97.5 27v10h200
v-10q-40 -7 -57.5 -21.5t-27.5 -45.5l-195 -628h-29z" />
    <glyph glyph-name="X" unicode="X" horiz-adv-x="670" 
d="M459 102l-135 229l-164 -239q-16 -24 -19.5 -38t9.5 -23t36 -13t69 -8v-10h-235v10q31 7 45 11t34.5 18t37.5 38l181 263l-154 263q-25 43 -49.5 61.5t-79.5 25.5v10h260v-10q-113 -7 -70 -82l130 -223l155 226q11 17 15 27t0.5 23t-29 20t-71.5 9v10h210v-10
q-45 -7 -68 -25.5t-52 -61.5l-155 -228l175 -298q21 -36 42 -47.5t73 -19.5v-10h-275v10q67 8 87 29.5t-3 62.5z" />
    <glyph glyph-name="Y" unicode="Y" horiz-adv-x="640" 
d="M310 60v176l-199 387q-11 20 -19.5 31.5t-30 22.5t-51.5 13v10h240v-10q-64 -7 -79 -23.5t4 -46.5l182 -363h2l156 341q19 43 -1.5 63.5t-83.5 28.5v10h200v-10q-40 -7 -59.5 -22t-33.5 -45l-172 -376v-187q0 -33 14 -39.5t81 -10.5v-10h-245v10q67 4 81 10.5t14 39.5z
" />
    <glyph glyph-name="Z" unicode="Z" horiz-adv-x="570" 
d="M530 690l-438 -680h293q57 0 97 43.5t48 106.5h10l-10 -160h-500v10l439 680h-272q-57 0 -89 -38.5t-48 -111.5h-10l5 160h475v-10z" />
    <glyph glyph-name="bracketleft" unicode="[" horiz-adv-x="320" 
d="M300 -89v-11h-200v900h200v-11h-150v-878h150z" />
    <glyph glyph-name="backslash" unicode="\" horiz-adv-x="413" 
d="M70 710h9l264 -720h-10z" />
    <glyph glyph-name="bracketright" unicode="]" horiz-adv-x="320" 
d="M20 789v11h200v-900h-200v11h150v878h-150z" />
    <glyph glyph-name="asciicircum" unicode="^" horiz-adv-x="498" 
d="M249 621l-147 -151h-2l144 230h9l145 -230h-2z" />
    <glyph glyph-name="underscore" unicode="_" horiz-adv-x="474" 
d="M60 -39h354v-10h-354v10z" />
    <glyph glyph-name="grave" unicode="`" horiz-adv-x="347" 
d="M243 552l-126 89q-17 12 -17 30q0 14 11 24t25 9q18 -2 28 -18l83 -130z" />
    <glyph glyph-name="a" unicode="a" horiz-adv-x="505" 
d="M390 365v-310q0 -35 34 -35q19 0 69 31l2 -6q-77 -55 -119 -55q-41 0 -41 60v20h-2q-93 -80 -168 -80q-56 0 -85.5 31t-29.5 78q0 27 11 48.5t39.5 44t88 39t146.5 24.5v105q0 60 -30.5 95t-89.5 35q-47 0 -78.5 -24t-31.5 -50q0 -13 17.5 -28.5t17.5 -26.5
q0 -14 -10 -22.5t-26 -8.5q-17 0 -28 10t-11 29q0 43 51.5 92t135.5 49q138 0 138 -145zM335 80v165q-130 -15 -180 -48.5t-50 -86.5q0 -41 22 -65.5t68 -24.5q24 0 51 10.5t41 19z" />
    <glyph glyph-name="b" unicode="b" horiz-adv-x="575" 
d="M155 440h5q31 30 76 50t88 20q96 0 151 -72.5t55 -187.5q0 -119 -67.5 -189.5t-162.5 -70.5q-39 0 -84.5 13.5t-75.5 46.5l-25 -55h-10v655q0 33 -14 39.5t-81 10.5v10l140 20h10zM299 490q-72 0 -139 -59v-281q0 -78 39.5 -114t90.5 -36q87 0 133.5 71t46.5 179
q0 109 -49.5 174.5t-121.5 65.5z" />
    <glyph glyph-name="c" unicode="c" horiz-adv-x="480" 
d="M290 500q-81 0 -135.5 -67.5t-54.5 -162.5q0 -114 55.5 -182t144.5 -68q73 0 136 47l4 -7q-77 -70 -165 -70q-108 0 -169 74t-61 181q0 122 70.5 193.5t169.5 71.5q74 0 117 -37t43 -88q0 -24 -11.5 -34.5t-26.5 -10.5q-32 0 -32 26q0 14 17.5 29t17.5 25q0 35 -34 57.5
t-86 22.5z" />
    <glyph glyph-name="d" unicode="d" horiz-adv-x="580" 
d="M276 10q70 0 139 61v279q0 78 -39.5 114t-90.5 36q-87 0 -133.5 -71t-46.5 -179q0 -109 49.5 -174.5t121.5 -65.5zM470 730v-660q0 -33 14 -39.5t81 -10.5v-10l-135 -20h-10v70h-5q-31 -30 -76 -50t-88 -20q-96 0 -151 72.5t-55 187.5q0 119 67.5 189.5t162.5 70.5
q77 0 140 -50v190q0 33 -14 39.5t-81 10.5v10l140 20h10z" />
    <glyph glyph-name="e" unicode="e" horiz-adv-x="495" 
d="M285 510q67 0 116 -36.5t49 -115.5q0 -33 -10 -60h-339q-1 -9 -1 -28q0 -114 55.5 -182t144.5 -68q72 0 136 47l4 -7q-77 -70 -165 -70q-108 0 -169 74t-61 181q0 122 70.5 193.5t169.5 71.5zM280 500q-65 0 -116 -54.5t-62 -137.5h277q6 24 6 74q-3 118 -105 118z" />
    <glyph glyph-name="f" unicode="f" horiz-adv-x="340" 
d="M315 500v-10h-130v-430q0 -33 16.5 -39.5t98.5 -10.5v-10h-265v10q67 4 81 10.5t14 39.5v430h-95v5l95 5v40q0 33 8 64t25 60.5t50 47.5t77 18q42 0 71 -21t29 -54q0 -24 -11.5 -34.5t-26.5 -10.5q-32 0 -32 26q0 7 15 21t15 28q0 17 -18.5 26t-46.5 9q-100 0 -100 -180
v-40h130z" />
    <glyph glyph-name="g" unicode="g" horiz-adv-x="535" 
d="M250 155q-50 0 -91 18q-9 -10 -16.5 -31t-7.5 -37q0 -20 15 -26t52 -9l162 -10q59 -3 100 -31.5t41 -78.5q0 -43 -24 -75t-65 -50t-87.5 -26.5t-98.5 -8.5q-200 0 -200 110q0 31 27.5 58t81.5 61q-64 12 -64 65q0 47 77 92q-97 47 -97 156q0 80 55 129t140 49
q64 0 114 -33l131 23v-55l-124 27q33 -25 51 -62t18 -75q0 -85 -52 -132.5t-138 -47.5zM120 340q0 -74 39.5 -124.5t95.5 -50.5q62 0 91 46t29 114q0 73 -36.5 124t-93.5 51q-59 0 -92 -45t-33 -115zM330 5l-182 13q-60 -62 -60 -108t37 -78t110 -32q35 0 69 7t66 21
t52 39.5t20 58.5q0 71 -112 79z" />
    <glyph glyph-name="h" unicode="h" horiz-adv-x="615" 
d="M35 0v10q67 4 81 10.5t14 39.5v590q0 33 -14 39.5t-81 10.5v10l140 20h10l-5 -325h5q40 47 91.5 76t104.5 29q55 0 89.5 -36t34.5 -114v-300q0 -33 14 -39.5t81 -10.5v-10h-225v10q52 4 63.5 11t11.5 39v303q0 112 -110 112q-73 0 -155 -80v-335q0 -33 14 -39.5t81 -10.5
v-10h-245z" />
    <glyph glyph-name="i" unicode="i" horiz-adv-x="295" 
d="M105 629q0 20 14.5 34.5t35.5 14.5t35.5 -14.5t14.5 -34.5q0 -21 -14.5 -35t-35.5 -14t-35.5 14t-14.5 35zM185 510v-450q0 -33 14 -39.5t81 -10.5v-10h-245v10q67 4 81 10.5t14 39.5v370q0 33 -14 39.5t-81 10.5v10l140 20h10z" />
    <glyph glyph-name="j" unicode="j" horiz-adv-x="275" 
d="M175 510v-490q0 -107 -38 -168.5t-92 -61.5q-45 0 -45 36q0 14 9.5 24t25.5 10q13 0 34 -17.5t26 -17.5q8 0 13 5t8.5 23t3.5 52v525q0 33 -14 39.5t-81 10.5v10l140 20h10zM95 629q0 20 14.5 34.5t35.5 14.5t35.5 -14.5t14.5 -34.5q0 -21 -14.5 -35t-35.5 -14t-35.5 14
t-14.5 35z" />
    <glyph glyph-name="k" unicode="k" horiz-adv-x="585" 
d="M185 730v-460q71 0 92 6t53 42l77 92q19 22 21 37t-20 26.5t-72 16.5v10h209v-10l-21 -4t-18.5 -5.5t-15 -5.5t-13.5 -7.5t-10.5 -7.5t-10 -9.5t-8.5 -9.5t-9.5 -10.5t-8.5 -10.5l-123 -144l198 -228l5 -6q5 -6 7.5 -8.5t9.5 -8t13.5 -8.5t17 -6t22.5 -4v-7h-115
l-189 229q-16 19 -35 25t-56 6v-200q0 -33 14 -39.5t81 -10.5v-10h-245v10q67 4 81 10.5t14 39.5v590q0 33 -14 39.5t-81 10.5v10l140 20h10z" />
    <glyph glyph-name="l" unicode="l" horiz-adv-x="295" 
d="M185 730v-670q0 -33 14 -39.5t81 -10.5v-10h-245v10q67 4 81 10.5t14 39.5v590q0 33 -14 39.5t-81 10.5v10l140 20h10z" />
    <glyph glyph-name="m" unicode="m" horiz-adv-x="915" 
d="M35 0v10q67 4 81 10.5t14 39.5v370q0 33 -14 39.5t-81 10.5v10l140 20h10l-5 -105h5q89 105 186 105q99 0 122 -104h3q90 104 185 104q55 0 89.5 -36t34.5 -114v-300q0 -33 14 -39.5t81 -10.5v-10h-215v10q44 4 54.5 11t10.5 39v318q0 45 -23 71t-67 26q-83 0 -165 -80
v-335q0 -33 14 -39.5t81 -10.5v-10h-215v10q44 4 54.5 11t10.5 39v318q0 45 -23 71t-67 26q-85 0 -165 -80v-335q0 -33 14 -39.5t81 -10.5v-10h-245z" />
    <glyph glyph-name="n" unicode="n" horiz-adv-x="615" 
d="M35 0v10q67 4 81 10.5t14 39.5v370q0 33 -14 39.5t-81 10.5v10l140 20h10l-5 -105h5q40 47 91.5 76t104.5 29q55 0 89.5 -36t34.5 -114v-300q0 -33 14 -39.5t81 -10.5v-10h-225v10q52 4 63.5 11t11.5 39v303q0 112 -110 112q-73 0 -155 -80v-335q0 -33 14 -39.5t81 -10.5
v-10h-245z" />
    <glyph glyph-name="o" unicode="o" horiz-adv-x="550" 
d="M275 -10q-103 0 -166.5 74.5t-63.5 185.5t63.5 185.5t166.5 74.5t166.5 -74.5t63.5 -185.5t-63.5 -185.5t-166.5 -74.5zM275 500q-78 0 -124 -68.5t-46 -181.5t46 -181.5t124 -68.5t124 68.5t46 181.5t-46 181.5t-124 68.5z" />
    <glyph glyph-name="p" unicode="p" horiz-adv-x="590" 
d="M170 440h5q31 30 76 50t88 20q96 0 151 -72.5t55 -187.5q0 -119 -67.5 -189.5t-162.5 -70.5q-34 0 -75 10t-65 30v-170q0 -33 14 -39.5t81 -10.5v-10h-245v10q67 4 81 10.5t14 39.5v570q0 33 -14 39.5t-81 10.5v10l140 20h10zM314 490q-71 0 -139 -60v-280
q0 -78 39.5 -114t90.5 -36q87 0 133.5 71t46.5 179q0 109 -49.5 174.5t-121.5 65.5z" />
    <glyph glyph-name="q" unicode="q" horiz-adv-x="570" 
d="M276 10q70 0 139 61v279q0 78 -39.5 114t-90.5 36q-87 0 -133.5 -71t-46.5 -179q0 -109 49.5 -174.5t121.5 -65.5zM415 -140l5 200h-5q-31 -30 -76 -50t-88 -20q-96 0 -151 72.5t-55 187.5q0 119 67.5 189.5t162.5 70.5q39 0 84.5 -13.5t75.5 -46.5l25 55h10v-645
q0 -33 14 -39.5t81 -10.5v-10h-245v10q66 4 80 10.5t15 39.5z" />
    <glyph glyph-name="r" unicode="r" horiz-adv-x="410" 
d="M35 0v10q67 4 81 10.5t14 39.5v370q0 33 -14 39.5t-81 10.5v10l140 20h10l-5 -115h5q86 115 165 115q22 0 36 -11t14 -31q0 -15 -10.5 -26.5t-25.5 -11.5q-9 0 -29.5 17.5t-39.5 17.5q-46 0 -110 -80v-325q0 -33 16.5 -39.5t98.5 -10.5v-10h-265z" />
    <glyph glyph-name="s" unicode="s" horiz-adv-x="425" 
d="M360 350h-10q-3 58 -48.5 104t-94.5 46q-52 0 -79.5 -25.5t-27.5 -66.5t29 -68t70 -42.5l82 -32t70 -48.5t29 -80q0 -69 -49 -108t-126 -39t-147 35l-13 135h10q17 -83 60 -121.5t93 -38.5q55 0 86 31t31 77q0 42 -28.5 70t-68.5 44l-80.5 32.5t-69 47t-28.5 76.5
q0 59 46.5 95.5t118.5 36.5t137 -31z" />
    <glyph glyph-name="t" unicode="t" horiz-adv-x="355" 
d="M175 490v-386q0 -96 65 -96q33 0 92 40l3 -8q-64 -50 -122 -50q-48 0 -70.5 28.5t-22.5 91.5v380h-95v5l95 5l45 150h10v-150h145v-10h-145z" />
    <glyph glyph-name="u" unicode="u" horiz-adv-x="605" 
d="M440 105v325q0 33 -16.5 39.5t-98.5 10.5v10l160 20h10v-440q0 -33 14 -39.5t81 -10.5v-10l-135 -20h-10v105h-5q-40 -47 -91.5 -76t-104.5 -29q-55 0 -89.5 36t-34.5 114v290q0 33 -14 39.5t-81 10.5v10l140 20h10v-388q0 -45 23 -71t67 -26q95 0 175 80z" />
    <glyph glyph-name="v" unicode="v" horiz-adv-x="540" 
d="M265 -5l-186 428q-28 67 -74 67v10h225v-10q-64 -7 -80 -23.5t0 -46.5l154 -370h2l143 370q15 38 -2 50t-92 20v10h180v-10q-29 -4 -43.5 -16t-25.5 -41l-170 -438h-31z" />
    <glyph glyph-name="w" unicode="w" horiz-adv-x="840" 
d="M585 -5l-150 428l-159 -428h-31l-166 428q-6 17 -10 25t-12.5 19t-21 16.5t-30.5 6.5v10h225v-10q-64 -7 -78 -21.5t-2 -48.5l132 -372h2l171 457h15l151 -457h2l126 372q13 38 -5 50t-89 20v10h180v-10q-29 -4 -44 -16.5t-25 -40.5l-150 -438h-31z" />
    <glyph glyph-name="x" unicode="x" horiz-adv-x="560" 
d="M354 90l-94 145l-121 -160q-10 -16 -12 -29.5t18 -23.5t60 -12v-10h-180v10q39 7 57 18.5t39 39.5l133 176l-120 186q-19 29 -36.5 41t-62.5 19v10h219v-10q-44 -8 -54 -21.5t10 -48.5l93 -145l103 140q26 33 13.5 52t-73.5 23v10h179v-10q-38 -7 -55.5 -19t-39.5 -41
l-122 -164l127 -196q17 -26 38 -39.5t61 -20.5v-10h-229v10q51 7 61.5 26.5t-12.5 53.5z" />
    <glyph glyph-name="y" unicode="y" horiz-adv-x="540" 
d="M466 433l-166 -428q-20 -52 -47 -92t-53 -63t-54.5 -37t-49.5 -18.5t-41 -4.5q-45 0 -45 36q0 15 9.5 24.5t26.5 9.5q10 0 28 -2.5t30 -2.5q62 0 100.5 24.5t70.5 93.5l-196 450q-27 65 -74 67v10h225v-10q-64 -7 -80 -23.5t0 -46.5l154 -370h2l143 370q15 38 -1.5 50
t-92.5 20v10h180v-10q-29 -4 -43.5 -16t-25.5 -41z" />
    <glyph glyph-name="z" unicode="z" horiz-adv-x="475" 
d="M93 10h232q42 0 68.5 33t41.5 107h10l-15 -150h-400v10l332 480h-207q-39 0 -61.5 -34t-38.5 -106h-10l10 150h370v-10z" />
    <glyph glyph-name="braceleft" unicode="{" horiz-adv-x="364" 
d="M61 351q28 -9 39.5 -13t38 -16.5t39 -24t23.5 -31.5t11 -44q0 -32 -6.5 -105t-6.5 -90q0 -66 38 -90.5t107 -26.5v-10q-103 0 -159.5 34.5t-56.5 104.5q0 34 12 95t12 97q0 105 -132 118v3q132 13 132 118q0 36 -12 96.5t-12 94.5q0 70 56.5 104.5t159.5 34.5v-10
q-68 -2 -106.5 -27.5t-38.5 -89.5q0 -17 6.5 -89.5t6.5 -104.5q0 -24 -11.5 -44t-23.5 -31t-39 -23.5t-37.5 -16.5t-39.5 -13z" />
    <glyph glyph-name="bar" unicode="|" horiz-adv-x="235" 
d="M112 -100v920h10v-920h-10z" />
    <glyph glyph-name="braceright" unicode="}" horiz-adv-x="364" 
d="M303 351q-29 9 -39.5 13t-37.5 16.5t-39 23.5t-23.5 31t-11.5 44q0 32 6.5 104.5t6.5 89.5q0 64 -38.5 89.5t-106.5 27.5v10q103 0 159.5 -34.5t56.5 -104.5q0 -34 -12 -94.5t-12 -96.5q0 -105 132 -118v-3q-132 -13 -132 -118q0 -36 12 -97t12 -95q0 -70 -56.5 -104.5
t-159.5 -34.5v10q69 2 107 26.5t38 90.5q0 17 -6.5 90t-6.5 105q0 24 11 44t23.5 31.5t39 24t38 16.5t39.5 13z" />
    <glyph glyph-name="asciitilde" unicode="~" horiz-adv-x="538" 
d="M104 524l-4 2q36 74 58 93q17 14 33 14q17 0 84.5 -21t90.5 -21q36 0 66 45l5 -4q-48 -96 -92 -96q-21 0 -84.5 20t-84.5 20t-36 -11.5t-36 -40.5z" />
    <glyph glyph-name="exclamdown" unicode="&#xa1;" horiz-adv-x="310" 
d="M151 345h10q1 -96 16 -292.5t15 -222.5q0 -40 -36 -40t-36 40q0 29 14.5 225.5t16.5 289.5zM100 455q0 23 16 39t39 16t39 -16t16 -39t-16 -39t-39 -16t-39 16t-16 39z" />
    <glyph glyph-name="cent" unicode="&#xa2;" horiz-adv-x="447" 
d="M250 190v40q-83 2 -139 63t-56 153t55.5 152t139.5 62v40h10v-40q64 -1 124 -36l6 -83h-6q-10 44 -43 77.5t-81 35.5v-418q53 1 84 35t42 78h6l-8 -83q-56 -35 -124 -36v-40h-10zM104 446q0 -96 41 -152t105 -58v418q-64 -2 -105 -57.5t-41 -150.5z" />
    <glyph glyph-name="sterling" unicode="&#xa3;" horiz-adv-x="594" 
d="M68 330h121q-8 15 -30.5 54t-33 66t-10.5 55q0 67 49.5 111t140.5 44t168 -42l10 -149h-9q-18 83 -65 132t-107 49q-59 0 -95.5 -38t-36.5 -92q0 -30 11 -61t29 -68t26 -61h156v-10h-153q11 -38 11 -68q0 -98 -67 -187q46 -2 128.5 -16t108.5 -14q81 0 109 115h10
q-1 -2 -4.5 -16.5t-5.5 -22t-7 -23.5t-10.5 -26l-13.5 -24.5t-18 -23t-22.5 -17.5t-28.5 -13t-34 -4q-39 0 -104 35t-113 43q-51 -68 -102 -68q-9 0 -15 6.5t-6 14.5q0 22 26.5 35.5t48.5 16t38 2.5h4q43 65 43 165q0 43 -22 90h-125v10z" />
    <glyph glyph-name="currency" unicode="&#xa4;" horiz-adv-x="552" 
d="M128 249q0 68 46 114l-74 90l8 8l74 -90q43 36 95 36t93 -36l74 90l8 -8l-73 -89q47 -47 47 -115q0 -69 -47 -114l72 -86l-8 -9l-73 87q-40 -35 -93 -35q-54 0 -95 35l-71 -87l-9 9l72 86q-46 46 -46 114zM140 249q0 -59 40.5 -102t96.5 -43t96.5 43t40.5 102
t-40.5 102.5t-96.5 43.5t-96.5 -43.5t-40.5 -102.5z" />
    <glyph glyph-name="yen" unicode="&#xa5;" horiz-adv-x="688" 
d="M183 229h145l-180 349q-10 19 -18 29.5t-27.5 21t-47.5 12.5v9h225v-9q-58 -6 -72 -22.5t4 -43.5l168 -343h2l143 323q21 39 5.5 59.5t-84.5 26.5v9h187v-9q-37 -6 -55.5 -20.5t-31.5 -42.5l-156 -349h150v-10h-152v-164q0 -30 13 -36t74 -10v-9h-230v9q61 4 74 10t13 36
v164h-149v10z" />
    <glyph glyph-name="brokenbar" unicode="&#xa6;" horiz-adv-x="235" 
d="M122 820v-360h-10v360h10zM122 260v-360h-10v360h10z" />
    <glyph glyph-name="section" unicode="&#xa7;" horiz-adv-x="445" 
d="M235 710q-66 0 -100.5 -53.5t-34.5 -121.5q0 -81 53.5 -190.5t115.5 -181.5l-4 -3q-27 28 -60 67t-73 93.5t-66 112.5t-26 102q0 91 52.5 138t127.5 47q79 0 132 -40t53 -100q0 -40 -40 -40q-13 0 -24 8t-11 22q0 12 17.5 25t17.5 25q0 26 -35 58t-95 32zM210 -10
q66 0 100.5 53.5t34.5 121.5q0 81 -53.5 190.5t-115.5 181.5l4 3q27 -28 60 -67t73 -93.5t66 -112.5t26 -102q0 -91 -52.5 -138t-127.5 -47q-79 0 -132 40t-53 100q0 40 40 40q13 0 24 -8t11 -22q0 -12 -17.5 -25t-17.5 -25q0 -26 35 -58t95 -32z" />
    <glyph glyph-name="dieresis" unicode="&#xa8;" horiz-adv-x="464" 
d="M100 595q0 20 12.5 33t32.5 13q19 0 32.5 -13t13.5 -33t-13.5 -32.5t-32.5 -12.5q-20 0 -32.5 12.5t-12.5 32.5zM274 595q0 20 13 33t33 13q19 0 31.5 -13t12.5 -33t-12.5 -32.5t-31.5 -12.5q-20 0 -33 12.5t-13 32.5z" />
    <glyph glyph-name="copyright" unicode="&#xa9;" horiz-adv-x="685" 
d="M40 408q0 125 89 213.5t214 88.5t213.5 -88.5t88.5 -213.5t-88.5 -214t-213.5 -89t-214 89t-89 214zM47 408q0 -122 87 -209t209 -87t209 87t87 209t-87 209t-209 87t-209 -87t-87 -209zM350 235q47 0 74 27.5t36 64.5h5l-7 -67q-46 -30 -108 -30q-68 0 -115 51t-47 129
t47 129t115 51q58 0 108 -30l5 -68h-5q-8 37 -37 65t-71 28q-57 0 -94.5 -48t-37.5 -127t37.5 -127t94.5 -48z" />
    <glyph glyph-name="ordfeminine" unicode="&#xaa;" horiz-adv-x="410" 
d="M50 343h310v-10h-310v10zM289 618v-184q0 -20 19 -20q12 0 38 17l1 -4q-47 -33 -74 -33q-29 0 -29 37v11h-1q-53 -48 -99 -48q-33 0 -51 19t-18 47q0 80 169 94v63q0 34 -18 55t-52 21q-26 0 -44.5 -14t-18.5 -29q0 -9 11.5 -19t11.5 -17q0 -8 -7 -14t-17 -6
q-26 0 -26 25q0 27 32.5 57t83.5 30q45 0 67 -24t22 -64zM244 448v100q-70 -8 -97 -27t-27 -51q0 -53 50 -53q28 0 74 31z" />
    <glyph glyph-name="guillemotleft" unicode="&#xab;" horiz-adv-x="724" 
d="M374 445l-183 -176l183 -179v-11l-274 181v17l274 180v-12zM624 445l-183 -176l183 -179v-11l-274 181v17l274 180v-12z" />
    <glyph glyph-name="logicalnot" unicode="&#xac;" horiz-adv-x="597" 
d="M497 285v-197h-10v187h-387v10h397z" />
    <glyph glyph-name="uni00AD" unicode="&#xad;" horiz-adv-x="434" 
d="M60 273h314v-10h-314v10z" />
    <glyph glyph-name="registered" unicode="&#xae;" horiz-adv-x="685" 
d="M40 408q0 125 89 213.5t214 88.5t213.5 -88.5t88.5 -213.5t-88.5 -214t-213.5 -89t-214 89t-89 214zM47 408q0 -122 87 -209t209 -87t209 87t87 209t-87 209t-209 87t-209 -87t-87 -209zM198 593h140q55 0 85 -26t30 -69q0 -42 -30.5 -71.5t-98.5 -31.5q42 -15 66 -47
l46 -63q25 -34 65 -37v-5h-63q-20 18 -37 45l-33 47q-32 46 -55 60h-40v-122q0 -17 7 -20t41 -5v-5h-123v5q34 2 41 5t7 20v290q0 16 -7 19.5t-41 5.5v5zM331 588h-58v-188h43q56 0 81.5 27t25.5 66q0 37 -21.5 66t-70.5 29z" />
    <glyph glyph-name="macron" unicode="&#xaf;" horiz-adv-x="475" 
d="M100 567h275v-10h-275v10z" />
    <glyph glyph-name="degree" unicode="&#xb0;" horiz-adv-x="249" 
d="M40 575q0 35 24.5 60t59.5 25t60 -25t25 -60t-25 -59.5t-60 -24.5t-59.5 24.5t-24.5 59.5zM47 575q0 -33 22 -55t55 -22q34 0 56 22t22 55q0 34 -22 56t-56 22q-33 0 -55 -22t-22 -56z" />
    <glyph glyph-name="plusminus" unicode="&#xb1;" horiz-adv-x="560" 
d="M103 163h171v159h-171v10h171v173h10v-173h173v-10h-173v-159h173v-10h-354v10z" />
    <glyph glyph-name="twosuperior" unicode="&#xb2;" horiz-adv-x="306" 
d="M144 799q-35 0 -54 -17t-19 -35q0 -9 11.5 -17.5t11.5 -15.5q0 -9 -7.5 -14t-16.5 -5q-27 0 -27 25q0 36 32.5 61t80.5 25t80.5 -28.5t32.5 -82.5q0 -60 -44.5 -115t-150.5 -129h202v-41h-246v6q102 86 146.5 152t44.5 134q0 39 -19.5 68t-57.5 29z" />
    <glyph glyph-name="threesuperior" unicode="&#xb3;" horiz-adv-x="311" 
d="M281 518q0 -54 -41.5 -84t-91.5 -30q-48 0 -83 25t-35 61q0 25 27 25q9 0 16 -5t7 -14q0 -7 -10.5 -19t-10.5 -20q0 -14 22 -30t56 -17q42 0 68.5 25.5t26.5 74.5q0 58 -28.5 81t-83.5 23v6q38 -3 67.5 19t29.5 73q0 35 -18 61t-53 26q-34 0 -53.5 -15.5t-19.5 -30.5
q0 -9 11 -20.5t11 -18.5q0 -9 -7.5 -14t-16.5 -5q-26 0 -26 25q0 35 32.5 60.5t80.5 25.5q50 0 77.5 -25.5t27.5 -67.5q0 -36 -28.5 -61t-75.5 -34v-1q53 -6 87.5 -31t34.5 -68z" />
    <glyph glyph-name="acute" unicode="&#xb4;" horiz-adv-x="347" 
d="M230 641l-126 -89l-4 4l83 130q10 16 28 18q14 1 25 -9t11 -24q0 -18 -17 -30z" />
    <glyph glyph-name="mu" unicode="&#xb5;" horiz-adv-x="605" 
d="M440 105v325q0 33 -16.5 39.5t-98.5 10.5v10l160 20h10v-440q0 -33 14 -39.5t81 -10.5v-10l-135 -20h-10v105h-5q-40 -47 -91.5 -76t-104.5 -29q-43 0 -74 22q-1 -104 -37 -163t-88 -59q-45 0 -45 36q0 14 9.5 24t25.5 10q13 0 34 -17.5t26 -17.5q8 0 13 5t8.5 23t3.5 52
v525q0 33 -14 39.5t-81 10.5v10l140 20h10v-388q0 -45 23 -71t67 -26q95 0 175 80z" />
    <glyph glyph-name="paragraph" unicode="&#xb6;" horiz-adv-x="650" 
d="M310 60v240q-112 0 -171 63t-59 147q0 82 54 136t136 54h95v-700h-150v10q67 4 81 10.5t14 39.5zM420 0v700h150v-10q-67 -4 -81 -10.5t-14 -39.5v-580q0 -33 14 -39.5t81 -10.5v-10h-150z" />
    <glyph glyph-name="periodcentered" unicode="&#xb7;" horiz-adv-x="356" 
d="M124 248q0 23 16 39t39 16t39 -16t16 -39t-16 -39t-39 -16t-39 16t-16 39z" />
    <glyph glyph-name="cedilla" unicode="&#xb8;" horiz-adv-x="350" 
d="M139 0h7v-33q104 -20 104 -84q0 -39 -42.5 -65t-98.5 -34l-3 6q93 21 93 72q0 48 -63 63z" />
    <glyph glyph-name="onesuperior" unicode="&#xb9;" horiz-adv-x="330" 
d="M146 445v340l-114 -35l-2 5l155 51h6v-361q0 -18 18 -22.5t91 -6.5v-6h-264v6q74 2 92 6.5t18 22.5z" />
    <glyph glyph-name="ordmasculine" unicode="&#xba;" horiz-adv-x="410" 
d="M50 343h310v-10h-310v10zM207 394q-63 0 -102 44.5t-39 111.5t39 111.5t102 44.5t102 -44.5t39 -111.5t-39 -111.5t-102 -44.5zM207 700q-43 0 -68 -40t-25 -110t25 -110t68 -40t68 40t25 110t-25 110t-68 40z" />
    <glyph glyph-name="guillemotright" unicode="&#xbb;" horiz-adv-x="724" 
d="M533 269l-183 176v12l274 -180v-17l-274 -181v11zM283 269l-183 176v12l274 -180v-17l-274 -181v11z" />
    <glyph glyph-name="onequarter" unicode="&#xbc;" horiz-adv-x="850" 
d="M713 0h46v111h61v6h-61v279h-6l-224 -279v-6h184v-111zM146 345v340l-114 -35l-2 5l155 51h6v-361q0 -18 18 -22.5t91 -6.5v-6h-264v6q74 2 92 6.5t18 22.5zM713 338v-221h-177zM574 710h9l-263 -720h-10z" />
    <glyph glyph-name="onehalf" unicode="&#xbd;" horiz-adv-x="850" 
d="M146 345v340l-114 -35l-2 5l155 51h6v-361q0 -18 18 -22.5t91 -6.5v-6h-264v6q74 2 92 6.5t18 22.5zM688 389q-35 0 -54 -17t-19 -35q0 -9 11.5 -17.5t11.5 -15.5q0 -9 -7.5 -14t-16.5 -5q-27 0 -27 25q0 36 32.5 61t80.5 25t80.5 -28.5t32.5 -82.5q0 -60 -44.5 -115
t-150.5 -129h202v-41h-246v6q102 86 146.5 152t44.5 134q0 39 -19.5 68t-57.5 29zM574 710h9l-263 -720h-10z" />
    <glyph glyph-name="threequarters" unicode="&#xbe;" horiz-adv-x="850" 
d="M713 0h46v111h61v6h-61v279h-6l-224 -279v-6h184v-111zM281 418q0 43 -34.5 68t-87.5 31v1q47 9 75.5 34t28.5 61q0 42 -27.5 67.5t-77.5 25.5q-48 0 -80.5 -25.5t-32.5 -60.5q0 -25 26 -25q9 0 16.5 5t7.5 14q0 7 -11 18.5t-11 20.5q0 15 19.5 30.5t53.5 15.5
q35 0 53 -26t18 -61q0 -51 -29.5 -73t-67.5 -19v-6q55 0 83.5 -23t28.5 -81q0 -49 -26.5 -74.5t-68.5 -25.5q-34 1 -56 17t-22 30q0 8 10.5 20t10.5 19q0 9 -7 14t-16 5q-27 0 -27 -25q0 -36 35 -61t83 -25q50 0 91.5 30t41.5 84zM713 338v-221h-177zM574 710h9l-263 -720
h-10z" />
    <glyph glyph-name="questiondown" unicode="&#xbf;" horiz-adv-x="485" 
d="M275 -200q60 0 95 27.5t35 52.5q0 19 -17.5 34t-17.5 26q0 14 11 22t24 8q40 0 40 -40q0 -60 -53 -100t-132 -40q-74 0 -127 45t-53 130q0 44 21.5 84.5t56 70t66 49t61.5 31.5l-8 145h14l8 -148q-66 -32 -112.5 -91.5t-46.5 -140.5q0 -67 34.5 -116t100.5 -49zM335 455
q0 -23 -16 -39t-39 -16t-39 16t-16 39t16 39t39 16t39 -16t16 -39z" />
    <glyph glyph-name="Agrave" unicode="&#xc0;" horiz-adv-x="690" 
d="M338 740l-136 101q-19 14 -19 33q0 15 12.5 26t27.5 10q19 -2 30 -20l87 -148zM349 705l234 -638q10 -29 26 -41.5t61 -15.5v-10h-240v10q68 8 84 18.5t5 41.5l-64 180h-282l-63 -183q-11 -32 8 -41t102 -16v-10h-200v10q42 8 56 17.5t24 39.5l220 638h29zM311 652
l-135 -392h275l-138 392h-2z" />
    <glyph glyph-name="Aacute" unicode="&#xc1;" horiz-adv-x="690" 
d="M476 841l-136 -101l-2 2l87 148q11 18 30 20q15 1 27.5 -10t12.5 -26q0 -19 -19 -33zM349 705l234 -638q10 -29 26 -41.5t61 -15.5v-10h-240v10q68 8 84 18.5t5 41.5l-64 180h-282l-63 -183q-11 -32 8 -41t102 -16v-10h-200v10q42 8 56 17.5t24 39.5l220 638h29zM311 652
l-135 -392h275l-138 392h-2z" />
    <glyph glyph-name="Acircumflex" unicode="&#xc2;" horiz-adv-x="690" 
d="M335 841l-127 -101h-2l124 180h9l125 -180h-2zM349 705l234 -638q10 -29 26 -41.5t61 -15.5v-10h-240v10q68 8 84 18.5t5 41.5l-64 180h-282l-63 -183q-11 -32 8 -41t102 -16v-10h-200v10q42 8 56 17.5t24 39.5l220 638h29zM311 652l-135 -392h275l-138 392h-2z" />
    <glyph glyph-name="Atilde" unicode="&#xc3;" horiz-adv-x="690" 
d="M171 764l-4 2q36 74 58 93q17 14 33 14q17 0 84.5 -21t90.5 -21q36 0 66 45l5 -4q-48 -96 -92 -96q-21 0 -84.5 20t-84.5 20t-36 -11.5t-36 -40.5zM349 705l234 -638q10 -29 26 -41.5t61 -15.5v-10h-240v10q68 8 84 18.5t5 41.5l-64 180h-282l-63 -183q-11 -32 8 -41
t102 -16v-10h-200v10q42 8 56 17.5t24 39.5l220 638h29zM311 652l-135 -392h275l-138 392h-2z" />
    <glyph glyph-name="Adieresis" unicode="&#xc4;" horiz-adv-x="690" 
d="M185 805q0 22 14 36.5t35 14.5t35.5 -14.5t14.5 -36.5q0 -21 -14.5 -35t-35.5 -14t-35 13.5t-14 35.5zM378 805q0 22 14.5 36.5t35.5 14.5t35 -14.5t14 -36.5t-14 -35.5t-35 -13.5t-35.5 14t-14.5 35zM349 705l234 -638q10 -29 26 -41.5t61 -15.5v-10h-240v10
q68 8 84 18.5t5 41.5l-64 180h-282l-63 -183q-11 -32 8 -41t102 -16v-10h-200v10q42 8 56 17.5t24 39.5l220 638h29zM311 652l-135 -392h275l-138 392h-2z" />
    <glyph glyph-name="Aring" unicode="&#xc5;" horiz-adv-x="690" 
d="M251 780q0 36 24.5 60.5t59.5 24.5t60 -24.5t25 -60.5q0 -31 -19.5 -54t-49.5 -29l232 -630q10 -29 26 -41.5t61 -15.5v-10h-240v10q68 8 84 18.5t5 41.5l-64 180h-282l-63 -183q-11 -32 8 -41t102 -16v-10h-200v10q42 8 56 17.5t24 39.5l217 630q-29 6 -47.5 29
t-18.5 54zM311 652l-135 -392h275l-138 392h-2zM258 780q0 -33 22 -55t55 -22q34 0 56 22t22 55q0 34 -22 56t-56 22q-33 0 -55 -22t-22 -56z" />
    <glyph glyph-name="AE" unicode="&#xc6;" horiz-adv-x="923" 
d="M368 10q67 4 81 10.5t14 39.5v200h-218l-83 -158q-28 -50 -16 -67t74 -25v-10h-200v10q89 16 117 67l332 623h394l5 -160h-10q-17 72 -47.5 111t-87.5 39h-205v-330h125q52 0 77.5 25.5t32.5 84.5h10v-230h-10q-7 59 -32.5 84.5t-77.5 25.5h-125v-340h195q125 0 155 150
h10l-10 -160h-500v10zM463 667h-2l-210 -397h212v397z" />
    <glyph glyph-name="Ccedilla" unicode="&#xc7;" horiz-adv-x="640" 
d="M380 0q50 0 90 17t65.5 46t41 59t23.5 63h10l-15 -135q-94 -59 -212 -60v-23q43 -8 76 -32.5t33 -65.5q0 -43 -48 -71.5t-107 -36.5l-3 6q50 14 77 35t27 55q0 52 -65 68l3 65q-136 2 -228.5 103.5t-92.5 256.5q0 156 94 258t231 102q119 0 215 -60l10 -135h-10
q-17 75 -74 130t-141 55q-114 0 -189.5 -96t-75.5 -254t75.5 -254t189.5 -96z" />
    <glyph glyph-name="Egrave" unicode="&#xc8;" 
d="M332 740l-136 101q-19 14 -19 33q0 15 12.5 26t27.5 10q19 -2 30 -20l87 -148zM530 700l5 -160h-10q-17 72 -47.5 111t-87.5 39h-205v-330h125q52 0 77.5 25.5t32.5 84.5h10v-230h-10q-7 59 -32.5 84.5t-77.5 25.5h-125v-340h195q125 0 155 150h10l-10 -160h-500v10
q67 4 81 10.5t14 39.5v580q0 33 -14 39.5t-81 10.5v10h495z" />
    <glyph glyph-name="Eacute" unicode="&#xc9;" 
d="M452 841l-136 -101l-2 2l87 148q11 18 30 20q15 1 27.5 -10t12.5 -26q0 -19 -19 -33zM530 700l5 -160h-10q-17 72 -47.5 111t-87.5 39h-205v-330h125q52 0 77.5 25.5t32.5 84.5h10v-230h-10q-7 59 -32.5 84.5t-77.5 25.5h-125v-340h195q125 0 155 150h10l-10 -160h-500
v10q67 4 81 10.5t14 39.5v580q0 33 -14 39.5t-81 10.5v10h495z" />
    <glyph glyph-name="Ecircumflex" unicode="&#xca;" 
d="M325 841l-127 -101h-2l124 180h9l125 -180h-2zM530 700l5 -160h-10q-17 72 -47.5 111t-87.5 39h-205v-330h125q52 0 77.5 25.5t32.5 84.5h10v-230h-10q-7 59 -32.5 84.5t-77.5 25.5h-125v-340h195q125 0 155 150h10l-10 -160h-500v10q67 4 81 10.5t14 39.5v580
q0 33 -14 39.5t-81 10.5v10h495z" />
    <glyph glyph-name="Edieresis" unicode="&#xcb;" 
d="M169 805q0 22 14 36.5t35 14.5t35.5 -14.5t14.5 -36.5q0 -21 -14.5 -35t-35.5 -14t-35 13.5t-14 35.5zM362 805q0 22 14.5 36.5t35.5 14.5t35 -14.5t14 -36.5t-14 -35.5t-35 -13.5t-35.5 14t-14.5 35zM530 700l5 -160h-10q-17 72 -47.5 111t-87.5 39h-205v-330h125
q52 0 77.5 25.5t32.5 84.5h10v-230h-10q-7 59 -32.5 84.5t-77.5 25.5h-125v-340h195q125 0 155 150h10l-10 -160h-500v10q67 4 81 10.5t14 39.5v580q0 33 -14 39.5t-81 10.5v10h495z" />
    <glyph glyph-name="Igrave" unicode="&#xcc;" horiz-adv-x="335" 
d="M174 740l-136 101q-19 14 -19 33q0 15 12.5 26t27.5 10q19 -2 30 -20l87 -148zM140 60v580q0 33 -14 39.5t-81 10.5v10h245v-10q-67 -4 -81 -10.5t-14 -39.5v-580q0 -33 14 -39.5t81 -10.5v-10h-245v10q67 4 81 10.5t14 39.5z" />
    <glyph glyph-name="Iacute" unicode="&#xcd;" horiz-adv-x="335" 
d="M295 841l-136 -101l-2 2l87 148q11 18 30 20q15 1 27.5 -10t12.5 -26q0 -19 -19 -33zM140 60v580q0 33 -14 39.5t-81 10.5v10h245v-10q-67 -4 -81 -10.5t-14 -39.5v-580q0 -33 14 -39.5t81 -10.5v-10h-245v10q67 4 81 10.5t14 39.5z" />
    <glyph glyph-name="Icircumflex" unicode="&#xce;" horiz-adv-x="335" 
d="M167 841l-127 -101h-2l124 180h9l125 -180h-2zM144 60v580q0 33 -14 39.5t-81 10.5v10h245v-10q-67 -4 -81 -10.5t-14 -39.5v-580q0 -33 14 -39.5t81 -10.5v-10h-245v10q67 4 81 10.5t14 39.5z" />
    <glyph glyph-name="Idieresis" unicode="&#xcf;" horiz-adv-x="335" 
d="M21 805q0 22 14 36.5t35 14.5t35.5 -14.5t14.5 -36.5q0 -21 -14.5 -35t-35.5 -14t-35 13.5t-14 35.5zM214 805q0 22 14.5 36.5t35.5 14.5t35 -14.5t14 -36.5t-14 -35.5t-35 -13.5t-35.5 14t-14.5 35zM140 60v580q0 33 -14 39.5t-81 10.5v10h245v-10q-67 -4 -81 -10.5
t-14 -39.5v-580q0 -33 14 -39.5t81 -10.5v-10h-245v10q67 4 81 10.5t14 39.5z" />
    <glyph glyph-name="Eth" unicode="&#xd0;" horiz-adv-x="740" 
d="M355 0h-310v10q67 4 81 10.5t14 39.5v286h-95v10h95v284q0 33 -14 39.5t-81 10.5v10h310q143 0 236.5 -97t93.5 -253t-93.5 -253t-236.5 -97zM195 10h160q111 0 190.5 94t79.5 246t-80 246t-190 94h-160v-334h132v-10h-132v-336z" />
    <glyph glyph-name="Ntilde" unicode="&#xd1;" horiz-adv-x="730" 
d="M230 764l-4 2q36 74 58 93q17 14 33 14q17 0 84.5 -21t90.5 -21q36 0 66 45l5 -4q-48 -96 -92 -96q-21 0 -84.5 20t-84.5 20t-36 -11.5t-36 -40.5zM595 -5h-10l-425 655v-590q0 -32 20.5 -39t99.5 -11v-10h-235v10q70 4 87.5 11t17.5 39v580q0 32 -17.5 39t-87.5 11v10
h150l390 -602v542q0 32 -20.5 39t-99.5 11v10h235v-10q-70 -4 -87.5 -11t-17.5 -39v-645z" />
    <glyph glyph-name="Ograve" unicode="&#xd2;" horiz-adv-x="770" 
d="M399 740l-136 101q-19 14 -19 33q0 15 12.5 26t27.5 10q19 -2 30 -20l87 -148zM385 -10q-142 0 -236 101.5t-94 258.5t94 258.5t236 101.5t236 -101.5t94 -258.5t-94 -258.5t-236 -101.5zM385 700q-110 0 -190 -98.5t-80 -251.5t80 -251.5t190 -98.5t190 98.5t80 251.5
t-80 251.5t-190 98.5z" />
    <glyph glyph-name="Oacute" unicode="&#xd3;" horiz-adv-x="770" 
d="M524 841l-136 -101l-2 2l87 148q11 18 30 20q15 1 27.5 -10t12.5 -26q0 -19 -19 -33zM385 -10q142 0 236 101.5t94 258.5t-94 258.5t-236 101.5t-236 -101.5t-94 -258.5t94 -258.5t236 -101.5zM385 700q110 0 190 -98.5t80 -251.5t-80 -251.5t-190 -98.5t-190 98.5
t-80 251.5t80 251.5t190 98.5z" />
    <glyph glyph-name="Ocircumflex" unicode="&#xd4;" horiz-adv-x="770" 
d="M385 841l-127 -101h-2l124 180h9l125 -180h-2zM385 -10q142 0 236 101.5t94 258.5t-94 258.5t-236 101.5t-236 -101.5t-94 -258.5t94 -258.5t236 -101.5zM385 700q110 0 190 -98.5t80 -251.5t-80 -251.5t-190 -98.5t-190 98.5t-80 251.5t80 251.5t190 98.5z" />
    <glyph glyph-name="Otilde" unicode="&#xd5;" horiz-adv-x="770" 
d="M230 764l-4 2q36 74 58 93q17 14 33 14q17 0 84.5 -21t90.5 -21q36 0 66 45l5 -4q-48 -96 -92 -96q-21 0 -84.5 20t-84.5 20t-36 -11.5t-36 -40.5zM385 -10q142 0 236 101.5t94 258.5t-94 258.5t-236 101.5t-236 -101.5t-94 -258.5t94 -258.5t236 -101.5zM385 700
q110 0 190 -98.5t80 -251.5t-80 -251.5t-190 -98.5t-190 98.5t-80 251.5t80 251.5t190 98.5z" />
    <glyph glyph-name="Odieresis" unicode="&#xd6;" horiz-adv-x="770" 
d="M239 805q0 22 14 36.5t35 14.5t35.5 -14.5t14.5 -36.5q0 -21 -14.5 -35t-35.5 -14t-35 13.5t-14 35.5zM432 805q0 22 14.5 36.5t35.5 14.5t35 -14.5t14 -36.5t-14 -35.5t-35 -13.5t-35.5 14t-14.5 35zM385 -10q142 0 236 101.5t94 258.5t-94 258.5t-236 101.5
t-236 -101.5t-94 -258.5t94 -258.5t236 -101.5zM385 700q110 0 190 -98.5t80 -251.5t-80 -251.5t-190 -98.5t-190 98.5t-80 251.5t80 251.5t190 98.5z" />
    <glyph glyph-name="multiply" unicode="&#xd7;" horiz-adv-x="550" 
d="M441 481l-158 -159l157 -157l-8 -7l-157 156l-157 -156l-7 8l157 156l-158 158l7 8l158 -158l158 158z" />
    <glyph glyph-name="Oslash" unicode="&#xd8;" horiz-adv-x="770" 
d="M385 -10q-71 0 -132 26l-23 -56h-11l25 61q-87 41 -138 128.5t-51 200.5q0 157 94 258.5t236 101.5q70 0 134 -28l24 58h10l-26 -62q86 -42 137 -129t51 -199q0 -157 -94 -258.5t-236 -101.5zM385 700q-110 0 -190 -98.5t-80 -251.5q0 -103 37.5 -183.5t100.5 -123.5
l257 618q-59 39 -125 39zM385 0q110 0 190 98.5t80 251.5q0 102 -37.5 182t-99.5 124l-256 -619q57 -37 123 -37z" />
    <glyph glyph-name="Ugrave" unicode="&#xd9;" horiz-adv-x="755" 
d="M436 740l-136 101q-19 14 -19 33q0 15 12.5 26t27.5 10q19 -2 30 -20l87 -148zM130 270v370q0 33 -14 39.5t-81 10.5v10h245v-10q-67 -4 -81 -10.5t-14 -39.5v-375q0 -122 54.5 -188.5t160.5 -66.5q100 0 160 66.5t60 188.5v375q0 32 -18.5 39t-101.5 11v10h225v-10
q-67 -4 -81 -10.5t-14 -39.5v-370q0 -134 -68.5 -207t-191.5 -73q-240 0 -240 280z" />
    <glyph glyph-name="Uacute" unicode="&#xda;" horiz-adv-x="755" 
d="M515 841l-136 -101l-2 2l87 148q11 18 30 20q15 1 27.5 -10t12.5 -26q0 -19 -19 -33zM130 270v370q0 33 -14 39.5t-81 10.5v10h245v-10q-67 -4 -81 -10.5t-14 -39.5v-375q0 -122 54.5 -188.5t160.5 -66.5q100 0 160 66.5t60 188.5v375q0 32 -18.5 39t-101.5 11v10h225
v-10q-67 -4 -81 -10.5t-14 -39.5v-370q0 -134 -68.5 -207t-191.5 -73q-240 0 -240 280z" />
    <glyph glyph-name="Ucircumflex" unicode="&#xdb;" horiz-adv-x="755" 
d="M390 841l-127 -101h-2l124 180h9l125 -180h-2zM130 270v370q0 33 -14 39.5t-81 10.5v10h245v-10q-67 -4 -81 -10.5t-14 -39.5v-375q0 -122 54.5 -188.5t160.5 -66.5q100 0 160 66.5t60 188.5v375q0 32 -18.5 39t-101.5 11v10h225v-10q-67 -4 -81 -10.5t-14 -39.5v-370
q0 -134 -68.5 -207t-191.5 -73q-240 0 -240 280z" />
    <glyph glyph-name="Udieresis" unicode="&#xdc;" horiz-adv-x="755" 
d="M249 805q0 22 14 36.5t35 14.5t35.5 -14.5t14.5 -36.5q0 -21 -14.5 -35t-35.5 -14t-35 13.5t-14 35.5zM442 805q0 22 14.5 36.5t35.5 14.5t35 -14.5t14 -36.5t-14 -35.5t-35 -13.5t-35.5 14t-14.5 35zM130 270v370q0 33 -14 39.5t-81 10.5v10h245v-10q-67 -4 -81 -10.5
t-14 -39.5v-375q0 -122 54.5 -188.5t160.5 -66.5q100 0 160 66.5t60 188.5v375q0 32 -18.5 39t-101.5 11v10h225v-10q-67 -4 -81 -10.5t-14 -39.5v-370q0 -134 -68.5 -207t-191.5 -73q-240 0 -240 280z" />
    <glyph glyph-name="Yacute" unicode="&#xdd;" horiz-adv-x="640" 
d="M457 841l-136 -101l-2 2l87 148q11 18 30 20q15 1 27.5 -10t12.5 -26q0 -19 -19 -33zM310 60v176l-199 387q-11 20 -19.5 31.5t-30 22.5t-51.5 13v10h240v-10q-64 -7 -79 -23.5t4 -46.5l182 -363h2l156 341q19 43 -1.5 63.5t-83.5 28.5v10h200v-10q-40 -7 -59.5 -22
t-33.5 -45l-172 -376v-187q0 -33 14 -39.5t81 -10.5v-10h-245v10q67 4 81 10.5t14 39.5z" />
    <glyph glyph-name="Thorn" unicode="&#xde;" horiz-adv-x="610" 
d="M140 60v580q0 33 -14 39.5t-81 10.5v10h245v-10q-67 -4 -81 -10.5t-14 -39.5v-80h139q110 0 170.5 -52.5t60.5 -137.5q0 -86 -65 -145.5t-210 -59.5h-95v-105q0 -33 14 -39.5t81 -10.5v-10h-245v10q67 4 81 10.5t14 39.5zM320 550h-125v-375h95q113 0 164 54t51 131
q0 33 -9 64t-28.5 60.5t-57.5 47.5t-90 18z" />
    <glyph glyph-name="germandbls" unicode="&#xdf;" horiz-adv-x="625" 
d="M465 620q0 -28 -18.5 -56.5t-41 -48t-41 -42.5t-18.5 -40q0 -24 24 -50.5t58.5 -51.5l69 -52.5t58.5 -64.5t24 -77q0 -69 -47 -108t-118 -39q-61 0 -127 35l-13 135h10q32 -160 131 -160q49 0 79 35.5t30 82.5q0 41 -21.5 74t-52.5 55.5t-62 42.5t-52.5 45t-21.5 53
q0 27 25 63.5t50 80t25 88.5t-24 72.5t-61 27.5q-66 0 -105.5 -54.5t-39.5 -155.5v-510h-150v10q67 4 81 10.5t14 39.5v430h-95v5l95 5v10q0 81 59.5 150.5t145.5 69.5q57 0 93.5 -31t36.5 -79z" />
    <glyph glyph-name="agrave" unicode="&#xe0;" horiz-adv-x="505" 
d="M390 365v-310q0 -35 34 -35q19 0 69 31l2 -6q-77 -55 -119 -55q-41 0 -41 60v20h-2q-93 -80 -168 -80q-56 0 -85.5 31t-29.5 78q0 27 11 48.5t39.5 44t88 39t146.5 24.5v105q0 60 -30.5 95t-89.5 35q-47 0 -78.5 -24t-31.5 -50q0 -13 17.5 -28.5t17.5 -26.5
q0 -14 -10 -22.5t-26 -8.5q-17 0 -28 10t-11 29q0 43 51.5 92t135.5 49q138 0 138 -145zM335 80v165q-130 -15 -180 -48.5t-50 -86.5q0 -41 22 -65.5t68 -24.5q24 0 51 10.5t41 19zM252 552l-126 89q-17 12 -17 30q0 14 11 24t25 9q18 -2 28 -18l83 -130z" />
    <glyph glyph-name="aacute" unicode="&#xe1;" horiz-adv-x="505" 
d="M390 365v-310q0 -35 34 -35q19 0 69 31l2 -6q-77 -55 -119 -55q-41 0 -41 60v20h-2q-93 -80 -168 -80q-56 0 -85.5 31t-29.5 78q0 27 11 48.5t39.5 44t88 39t146.5 24.5v105q0 60 -30.5 95t-89.5 35q-47 0 -78.5 -24t-31.5 -50q0 -13 17.5 -28.5t17.5 -26.5
q0 -14 -10 -22.5t-26 -8.5q-17 0 -28 10t-11 29q0 43 51.5 92t135.5 49q138 0 138 -145zM335 80v165q-130 -15 -180 -48.5t-50 -86.5q0 -41 22 -65.5t68 -24.5q24 0 51 10.5t41 19zM345 641l-126 -89l-4 4l83 130q10 16 28 18q14 1 25 -9t11 -24q0 -18 -17 -30z" />
    <glyph glyph-name="acircumflex" unicode="&#xe2;" horiz-adv-x="505" 
d="M390 365v-310q0 -35 34 -35q19 0 69 31l2 -6q-77 -55 -119 -55q-41 0 -41 60v20h-2q-93 -80 -168 -80q-56 0 -85.5 31t-29.5 78q0 27 11 48.5t39.5 44t88 39t146.5 24.5v105q0 60 -30.5 95t-89.5 35q-47 0 -78.5 -24t-31.5 -50q0 -13 17.5 -28.5t17.5 -26.5
q0 -14 -10 -22.5t-26 -8.5q-17 0 -28 10t-11 29q0 43 51.5 92t135.5 49q138 0 138 -145zM335 80v165q-130 -15 -180 -48.5t-50 -86.5q0 -41 22 -65.5t68 -24.5q24 0 51 10.5t41 19zM239 640l-115 -90h-2l113 162h9l113 -162h-2z" />
    <glyph glyph-name="atilde" unicode="&#xe3;" horiz-adv-x="505" 
d="M390 365v-310q0 -35 34 -35q19 0 69 31l2 -6q-77 -55 -119 -55q-41 0 -41 60v20h-2q-93 -80 -168 -80q-56 0 -85.5 31t-29.5 78q0 27 11 48.5t39.5 44t88 39t146.5 24.5v105q0 60 -30.5 95t-89.5 35q-47 0 -78.5 -24t-31.5 -50q0 -13 17.5 -28.5t17.5 -26.5
q0 -14 -10 -22.5t-26 -8.5q-17 0 -28 10t-11 29q0 43 51.5 92t135.5 49q138 0 138 -145zM335 80v165q-130 -15 -180 -48.5t-50 -86.5q0 -41 22 -65.5t68 -24.5q24 0 51 10.5t41 19zM88 544l-4 2l16.5 33t17 27.5t25 26.5t27.5 8q18 0 82.5 -18t81.5 -18q29 0 52 35l5 -4
q-29 -58 -47 -73q-16 -13 -35 -13q-21 0 -84 18t-84 18q-23 0 -53 -42z" />
    <glyph glyph-name="adieresis" unicode="&#xe4;" horiz-adv-x="505" 
d="M390 365v-310q0 -35 34 -35q19 0 69 31l2 -6q-77 -55 -119 -55q-41 0 -41 60v20h-2q-93 -80 -168 -80q-56 0 -85.5 31t-29.5 78q0 27 11 48.5t39.5 44t88 39t146.5 24.5v105q0 60 -30.5 95t-89.5 35q-47 0 -78.5 -24t-31.5 -50q0 -13 17.5 -28.5t17.5 -26.5
q0 -14 -10 -22.5t-26 -8.5q-17 0 -28 10t-11 29q0 43 51.5 92t135.5 49q138 0 138 -145zM335 80v165q-130 -15 -180 -48.5t-50 -86.5q0 -41 22 -65.5t68 -24.5q24 0 51 10.5t41 19zM106 595q0 20 12.5 33t32.5 13q19 0 32.5 -13t13.5 -33t-13.5 -32.5t-32.5 -12.5
q-20 0 -32.5 12.5t-12.5 32.5zM280 595q0 20 13 33t33 13q19 0 31.5 -13t12.5 -33t-12.5 -32.5t-31.5 -12.5q-20 0 -33 12.5t-13 32.5z" />
    <glyph glyph-name="aring" unicode="&#xe5;" horiz-adv-x="505" 
d="M390 365v-310q0 -35 34 -35q19 0 69 31l2 -6q-77 -55 -119 -55q-41 0 -41 60v20h-2q-93 -80 -168 -80q-56 0 -85.5 31t-29.5 78q0 27 11 48.5t39.5 44t88 39t146.5 24.5v105q0 60 -30.5 95t-89.5 35q-47 0 -78.5 -24t-31.5 -50q0 -13 17.5 -28.5t17.5 -26.5
q0 -14 -10 -22.5t-26 -8.5q-17 0 -28 10t-11 29q0 43 51.5 92t135.5 49q138 0 138 -145zM335 80v165q-130 -15 -180 -48.5t-50 -86.5q0 -41 22 -65.5t68 -24.5q24 0 51 10.5t41 19zM159 626q0 33 22 55t54 22t54.5 -22t22.5 -55q0 -32 -22.5 -54t-54.5 -22q-31 0 -53.5 22
t-22.5 54zM166 626q0 -29 20 -49t49 -20q31 0 50.5 19.5t19.5 49.5q0 31 -19.5 50.5t-50.5 19.5q-29 0 -49 -20t-20 -50z" />
    <glyph glyph-name="ae" unicode="&#xe6;" horiz-adv-x="785" 
d="M575 510q67 0 116 -36.5t49 -115.5q0 -33 -10 -60h-339q-1 -9 -1 -28q0 -114 55.5 -182t144.5 -68q72 0 136 47l4 -7q-77 -70 -165 -70q-129 0 -192 105q-75 -59 -120 -82t-88 -23q-56 0 -85.5 31t-29.5 79q0 26 11 47.5t40 44t88 39t146 24.5v95q0 140 -120 140
q-47 0 -78.5 -23.5t-31.5 -50.5q0 -12 17.5 -27.5t17.5 -28.5t-10.5 -21.5t-26.5 -8.5t-27 10t-11 30q0 42 51.5 91t138.5 49q107 0 130 -97q33 47 83 72t107 25zM570 500q-67 0 -117 -55.5t-61 -136.5h277q6 24 6 74q-3 118 -105 118zM195 20q64 0 173 85q-33 60 -33 140
q-129 -15 -179.5 -48.5t-50.5 -86.5q0 -41 22 -65.5t68 -24.5z" />
    <glyph glyph-name="ccedilla" unicode="&#xe7;" horiz-adv-x="480" 
d="M290 500q-81 0 -135.5 -67.5t-54.5 -162.5q0 -114 55.5 -182t144.5 -68q73 0 136 47l4 -7q-75 -68 -161 -70v-23q104 -20 104 -84q0 -39 -42.5 -65t-98.5 -34l-3 6q93 21 93 72q0 48 -63 63l2 65q-106 1 -166 75t-60 180q0 122 70.5 193.5t169.5 71.5q74 0 117 -37
t43 -88q0 -24 -11.5 -34.5t-26.5 -10.5q-32 0 -32 26q0 14 17.5 29t17.5 25q0 35 -34 57.5t-86 22.5z" />
    <glyph glyph-name="egrave" unicode="&#xe8;" horiz-adv-x="495" 
d="M285 510q67 0 116 -36.5t49 -115.5q0 -33 -10 -60h-339q-1 -9 -1 -28q0 -114 55.5 -182t144.5 -68q72 0 136 47l4 -7q-77 -70 -165 -70q-108 0 -169 74t-61 181q0 122 70.5 193.5t169.5 71.5zM280 500q-65 0 -116 -54.5t-62 -137.5h277q6 24 6 74q-3 118 -105 118z
M304 552l-126 89q-17 12 -17 30q0 14 11 24t25 9q18 -2 28 -18l83 -130z" />
    <glyph glyph-name="eacute" unicode="&#xe9;" horiz-adv-x="495" 
d="M285 510q67 0 116 -36.5t49 -115.5q0 -33 -10 -60h-339q-1 -9 -1 -28q0 -114 55.5 -182t144.5 -68q72 0 136 47l4 -7q-77 -70 -165 -70q-108 0 -169 74t-61 181q0 122 70.5 193.5t169.5 71.5zM280 500q-65 0 -116 -54.5t-62 -137.5h277q6 24 6 74q-3 118 -105 118z
M375 641l-126 -89l-4 4l83 130q10 16 28 18q14 1 25 -9t11 -24q0 -18 -17 -30z" />
    <glyph glyph-name="ecircumflex" unicode="&#xea;" horiz-adv-x="495" 
d="M285 510q67 0 116 -36.5t49 -115.5q0 -33 -10 -60h-339q-1 -9 -1 -28q0 -114 55.5 -182t144.5 -68q72 0 136 47l4 -7q-77 -70 -165 -70q-108 0 -169 74t-61 181q0 122 70.5 193.5t169.5 71.5zM280 500q-65 0 -116 -54.5t-62 -137.5h277q6 24 6 74q-3 118 -105 118z
M273 640l-115 -90h-2l113 162h9l113 -162h-2z" />
    <glyph glyph-name="edieresis" unicode="&#xeb;" horiz-adv-x="495" 
d="M285 510q67 0 116 -36.5t49 -115.5q0 -33 -10 -60h-339q-1 -9 -1 -28q0 -114 55.5 -182t144.5 -68q72 0 136 47l4 -7q-77 -70 -165 -70q-108 0 -169 74t-61 181q0 122 70.5 193.5t169.5 71.5zM280 500q-65 0 -116 -54.5t-62 -137.5h277q6 24 6 74q-3 118 -105 118z
M134 595q0 20 12.5 33t32.5 13q19 0 32.5 -13t13.5 -33t-13.5 -32.5t-32.5 -12.5q-20 0 -32.5 12.5t-12.5 32.5zM308 595q0 20 13 33t33 13q19 0 31.5 -13t12.5 -33t-12.5 -32.5t-31.5 -12.5q-20 0 -33 12.5t-13 32.5z" />
    <glyph glyph-name="igrave" unicode="&#xec;" horiz-adv-x="295" 
d="M185 510v-450q0 -33 14 -39.5t81 -10.5v-10h-245v10q67 4 81 10.5t14 39.5v370q0 33 -14 39.5t-81 10.5v10l140 20h10zM159 552l-126 89q-17 12 -17 30q0 14 11 24t25 9q18 -2 28 -18l83 -130z" />
    <glyph glyph-name="iacute" unicode="&#xed;" horiz-adv-x="295" 
d="M185 510v-450q0 -33 14 -39.5t81 -10.5v-10h-245v10q67 4 81 10.5t14 39.5v370q0 33 -14 39.5t-81 10.5v10l140 20h10zM277 641l-126 -89l-4 4l83 130q10 16 28 18q14 1 25 -9t11 -24q0 -18 -17 -30z" />
    <glyph glyph-name="icircumflex" unicode="&#xee;" horiz-adv-x="295" 
d="M154 640l-115 -90h-2l113 162h9l113 -162h-2zM185 510v-450q0 -33 14 -39.5t81 -10.5v-10h-245v10q67 4 81 10.5t14 39.5v370q0 33 -14 39.5t-81 10.5v10l140 20h10z" />
    <glyph glyph-name="idieresis" unicode="&#xef;" horiz-adv-x="295" 
d="M185 510v-450q0 -33 14 -39.5t81 -10.5v-10h-245v10q67 4 81 10.5t14 39.5v370q0 33 -14 39.5t-81 10.5v10l140 20h10zM19 595q0 20 12.5 33t32.5 13q19 0 32.5 -13t13.5 -33t-13.5 -32.5t-32.5 -12.5q-20 0 -32.5 12.5t-12.5 32.5zM193 595q0 20 13 33t33 13
q19 0 31.5 -13t12.5 -33t-12.5 -32.5t-31.5 -12.5q-20 0 -33 12.5t-13 32.5z" />
    <glyph glyph-name="eth" unicode="&#xf0;" horiz-adv-x="525" 
d="M300 639l110 45v-12l-100 -41q79 -69 124.5 -165.5t45.5 -200.5q0 -123 -55.5 -199t-164.5 -76q-92 0 -153.5 60.5t-61.5 159.5q0 59 21 105.5t56.5 74t77 41.5t85.5 14q63 0 112 -18q-41 115 -116 192l-116 -47v12l107 44q-68 67 -161 93l4 9q105 -24 185 -91zM110 200
q0 -86 43 -143t107 -57q66 0 110.5 70.5t44.5 183.5q0 80 -15 161q-51 12 -114 12q-78 0 -127 -61.5t-49 -165.5z" />
    <glyph glyph-name="ntilde" unicode="&#xf1;" horiz-adv-x="615" 
d="M35 0v10q67 4 81 10.5t14 39.5v370q0 33 -14 39.5t-81 10.5v10l140 20h10l-5 -105h5q40 47 91.5 76t104.5 29q55 0 89.5 -36t34.5 -114v-300q0 -33 14 -39.5t81 -10.5v-10h-225v10q52 4 63.5 11t11.5 39v303q0 112 -110 112q-73 0 -155 -80v-335q0 -33 14 -39.5t81 -10.5
v-10h-245zM162 544l-4 2l16.5 33t17 27.5t25 26.5t27.5 8q18 0 82.5 -18t81.5 -18q29 0 52 35l5 -4q-29 -58 -47 -73q-16 -13 -35 -13q-21 0 -84 18t-84 18q-23 0 -53 -42z" />
    <glyph glyph-name="ograve" unicode="&#xf2;" horiz-adv-x="550" 
d="M275 -10q-103 0 -166.5 74.5t-63.5 185.5t63.5 185.5t166.5 74.5t166.5 -74.5t63.5 -185.5t-63.5 -185.5t-166.5 -74.5zM275 500q-78 0 -124 -68.5t-46 -181.5t46 -181.5t124 -68.5t124 68.5t46 181.5t-46 181.5t-124 68.5zM276 552l-126 89q-17 12 -17 30q0 14 11 24
t25 9q18 -2 28 -18l83 -130z" />
    <glyph glyph-name="oacute" unicode="&#xf3;" horiz-adv-x="550" 
d="M275 -10q103 0 166.5 74.5t63.5 185.5t-63.5 185.5t-166.5 74.5t-166.5 -74.5t-63.5 -185.5t63.5 -185.5t166.5 -74.5zM275 500q78 0 124 -68.5t46 -181.5t-46 -181.5t-124 -68.5t-124 68.5t-46 181.5t46 181.5t124 68.5zM381 641l-126 -89l-4 4l83 130q10 16 28 18
q14 1 25 -9t11 -24q0 -18 -17 -30z" />
    <glyph glyph-name="ocircumflex" unicode="&#xf4;" horiz-adv-x="550" 
d="M275 -10q103 0 166.5 74.5t63.5 185.5t-63.5 185.5t-166.5 74.5t-166.5 -74.5t-63.5 -185.5t63.5 -185.5t166.5 -74.5zM275 500q78 0 124 -68.5t46 -181.5t-46 -181.5t-124 -68.5t-124 68.5t-46 181.5t46 181.5t124 68.5zM275 640l-115 -90h-2l113 162h9l113 -162h-2z
" />
    <glyph glyph-name="otilde" unicode="&#xf5;" horiz-adv-x="550" 
d="M275 -10q103 0 166.5 74.5t63.5 185.5t-63.5 185.5t-166.5 74.5t-166.5 -74.5t-63.5 -185.5t63.5 -185.5t166.5 -74.5zM275 500q78 0 124 -68.5t46 -181.5t-46 -181.5t-124 -68.5t-124 68.5t-46 181.5t46 181.5t124 68.5zM126 544l-4 2l16.5 33t17 27.5t25 26.5t27.5 8
q18 0 82.5 -18t81.5 -18q29 0 52 35l5 -4q-29 -58 -47 -73q-16 -13 -35 -13q-21 0 -84 18t-84 18q-23 0 -53 -42z" />
    <glyph glyph-name="odieresis" unicode="&#xf6;" horiz-adv-x="550" 
d="M275 -10q103 0 166.5 74.5t63.5 185.5t-63.5 185.5t-166.5 74.5t-166.5 -74.5t-63.5 -185.5t63.5 -185.5t166.5 -74.5zM275 500q78 0 124 -68.5t46 -181.5t-46 -181.5t-124 -68.5t-124 68.5t-46 181.5t46 181.5t124 68.5zM143 595q0 20 12.5 33t32.5 13q19 0 32.5 -13
t13.5 -33t-13.5 -32.5t-32.5 -12.5q-20 0 -32.5 12.5t-12.5 32.5zM317 595q0 20 13 33t33 13q19 0 31.5 -13t12.5 -33t-12.5 -32.5t-31.5 -12.5q-20 0 -33 12.5t-13 32.5z" />
    <glyph glyph-name="divide" unicode="&#xf7;" horiz-adv-x="560" 
d="M242 177q0 19 12.5 31.5t30.5 12.5t30.5 -12.5t12.5 -31.5q0 -18 -12.5 -29.5t-30.5 -11.5t-30.5 11.5t-12.5 29.5zM242 469q0 19 12.5 31.5t30.5 12.5t30.5 -12.5t12.5 -31.5q0 -18 -12.5 -29.5t-30.5 -11.5t-30.5 11.5t-12.5 29.5zM103 330h354v-10h-354v10z" />
    <glyph glyph-name="oslash" unicode="&#xf8;" horiz-adv-x="550" 
d="M275 -10q-45 0 -87 16l-18 -46h-11l19 50q-62 30 -97.5 94.5t-35.5 145.5q0 111 63.5 185.5t166.5 74.5q45 0 89 -18l19 48h10l-20 -52q61 -30 96.5 -94t35.5 -144q0 -111 -63.5 -185.5t-166.5 -74.5zM275 500q-78 0 -124 -68.5t-46 -181.5q0 -158 81 -220l172 444
q-37 26 -83 26zM275 0q78 0 124 68.5t46 181.5q0 155 -80 218l-171 -445q35 -23 81 -23z" />
    <glyph glyph-name="ugrave" unicode="&#xf9;" horiz-adv-x="605" 
d="M440 105v325q0 33 -16.5 39.5t-98.5 10.5v10l160 20h10v-440q0 -33 14 -39.5t81 -10.5v-10l-135 -20h-10v105h-5q-40 -47 -91.5 -76t-104.5 -29q-55 0 -89.5 36t-34.5 114v290q0 33 -14 39.5t-81 10.5v10l140 20h10v-388q0 -45 23 -71t67 -26q95 0 175 80zM273 552
l-126 89q-17 12 -17 30q0 14 11 24t25 9q18 -2 28 -18l83 -130z" />
    <glyph glyph-name="uacute" unicode="&#xfa;" horiz-adv-x="605" 
d="M440 105v325q0 33 -16.5 39.5t-98.5 10.5v10l160 20h10v-440q0 -33 14 -39.5t81 -10.5v-10l-135 -20h-10v105h-5q-40 -47 -91.5 -76t-104.5 -29q-55 0 -89.5 36t-34.5 114v290q0 33 -14 39.5t-81 10.5v10l140 20h10v-388q0 -45 23 -71t67 -26q95 0 175 80zM403 641
l-126 -89l-4 4l83 130q10 16 28 18q14 1 25 -9t11 -24q0 -18 -17 -30z" />
    <glyph glyph-name="ucircumflex" unicode="&#xfb;" horiz-adv-x="605" 
d="M440 105v325q0 33 -16.5 39.5t-98.5 10.5v10l160 20h10v-440q0 -33 14 -39.5t81 -10.5v-10l-135 -20h-10v105h-5q-40 -47 -91.5 -76t-104.5 -29q-55 0 -89.5 36t-34.5 114v290q0 33 -14 39.5t-81 10.5v10l140 20h10v-388q0 -45 23 -71t67 -26q95 0 175 80zM292 640
l-115 -90h-2l113 162h9l113 -162h-2z" />
    <glyph glyph-name="udieresis" unicode="&#xfc;" horiz-adv-x="605" 
d="M440 105v325q0 33 -16.5 39.5t-98.5 10.5v10l160 20h10v-440q0 -33 14 -39.5t81 -10.5v-10l-135 -20h-10v105h-5q-40 -47 -91.5 -76t-104.5 -29q-55 0 -89.5 36t-34.5 114v290q0 33 -14 39.5t-81 10.5v10l140 20h10v-388q0 -45 23 -71t67 -26q95 0 175 80zM159 595
q0 20 12.5 33t32.5 13q19 0 32.5 -13t13.5 -33t-13.5 -32.5t-32.5 -12.5q-20 0 -32.5 12.5t-12.5 32.5zM333 595q0 20 13 33t33 13q19 0 31.5 -13t12.5 -33t-12.5 -32.5t-31.5 -12.5q-20 0 -33 12.5t-13 32.5z" />
    <glyph glyph-name="yacute" unicode="&#xfd;" horiz-adv-x="540" 
d="M466 433l-166 -428q-20 -52 -47 -92t-53 -63t-54.5 -37t-49.5 -18.5t-41 -4.5q-45 0 -45 36q0 15 9.5 24.5t26.5 9.5q10 0 28 -2.5t30 -2.5q62 0 100.5 24.5t70.5 93.5l-196 450q-27 65 -74 67v10h225v-10q-64 -7 -80 -23.5t0 -46.5l154 -370h2l143 370q15 38 -1.5 50
t-92.5 20v10h180v-10q-29 -4 -43.5 -16t-25.5 -41zM411 641l-126 -89l-4 4l83 130q10 16 28 18q14 1 25 -9t11 -24q0 -18 -17 -30z" />
    <glyph glyph-name="thorn" unicode="&#xfe;" horiz-adv-x="575" 
d="M155 440h5q31 30 76 50t88 20q96 0 151 -72.5t55 -187.5q0 -119 -67.5 -189.5t-162.5 -70.5q-34 0 -75 10t-65 30v-170q0 -33 14 -39.5t81 -10.5v-10h-245v10q67 4 81 10.5t14 39.5v790q0 33 -14 39.5t-81 10.5v10l140 20h10zM299 490q-71 0 -139 -60v-280
q0 -78 39.5 -114t90.5 -36q87 0 133.5 71t46.5 179q0 109 -49.5 174.5t-121.5 65.5z" />
    <glyph glyph-name="ydieresis" unicode="&#xff;" horiz-adv-x="540" 
d="M466 433l-166 -428q-20 -52 -47 -92t-53 -63t-54.5 -37t-49.5 -18.5t-41 -4.5q-45 0 -45 36q0 15 9.5 24.5t26.5 9.5q10 0 28 -2.5t30 -2.5q62 0 100.5 24.5t70.5 93.5l-196 450q-27 65 -74 67v10h225v-10q-64 -7 -80 -23.5t0 -46.5l154 -370h2l143 370q15 38 -1.5 50
t-92.5 20v10h180v-10q-29 -4 -43.5 -16t-25.5 -41zM174 595q0 20 12.5 33t32.5 13q19 0 32.5 -13t13.5 -33t-13.5 -32.5t-32.5 -12.5q-20 0 -32.5 12.5t-12.5 32.5zM348 595q0 20 13 33t33 13q19 0 31.5 -13t12.5 -33t-12.5 -32.5t-31.5 -12.5q-20 0 -33 12.5t-13 32.5z" />
    <glyph glyph-name="Amacron" unicode="&#x100;" horiz-adv-x="690" 
d="M349 705l234 -638q10 -29 26 -41.5t61 -15.5v-10h-240v10q68 8 84 18.5t5 41.5l-64 180h-282l-63 -183q-11 -32 8 -41t102 -16v-10h-200v10q42 8 56 17.5t24 39.5l220 638h29zM311 652l-135 -392h275l-138 392h-2zM183 782h304v-10h-304v10z" />
    <glyph glyph-name="amacron" unicode="&#x101;" horiz-adv-x="505" 
d="M390 365v-310q0 -35 34 -35q19 0 69 31l2 -6q-77 -55 -119 -55q-41 0 -41 60v20h-2q-93 -80 -168 -80q-56 0 -85.5 31t-29.5 78q0 27 11 48.5t39.5 44t88 39t146.5 24.5v105q0 60 -30.5 95t-89.5 35q-47 0 -78.5 -24t-31.5 -50q0 -13 17.5 -28.5t17.5 -26.5
q0 -14 -10 -22.5t-26 -8.5q-17 0 -28 10t-11 29q0 43 51.5 92t135.5 49q138 0 138 -145zM335 80v165q-130 -15 -180 -48.5t-50 -86.5q0 -41 22 -65.5t68 -24.5q24 0 51 10.5t41 19zM94 567h275v-10h-275v10z" />
    <glyph glyph-name="Abreve" unicode="&#x102;" horiz-adv-x="690" 
d="M349 705l234 -638q10 -29 26 -41.5t61 -15.5v-10h-240v10q68 8 84 18.5t5 41.5l-64 180h-282l-63 -183q-11 -32 8 -41t102 -16v-10h-200v10q42 8 56 17.5t24 39.5l220 638h29zM311 652l-135 -392h275l-138 392h-2zM335 750q-44 0 -73 25t-39 57t-10 69h5q8 -38 38 -63.5
t79 -25.5t79 25.5t38 63.5h5q0 -59 -29.5 -105t-92.5 -46z" />
    <glyph glyph-name="abreve" unicode="&#x103;" horiz-adv-x="505" 
d="M390 365v-310q0 -35 34 -35q19 0 69 31l2 -6q-77 -55 -119 -55q-41 0 -41 60v20h-2q-93 -80 -168 -80q-56 0 -85.5 31t-29.5 78q0 27 11 48.5t39.5 44t88 39t146.5 24.5v105q0 60 -30.5 95t-89.5 35q-47 0 -78.5 -24t-31.5 -50q0 -13 17.5 -28.5t17.5 -26.5
q0 -14 -10 -22.5t-26 -8.5q-17 0 -28 10t-11 29q0 43 51.5 92t135.5 49q138 0 138 -145zM335 80v165q-130 -15 -180 -48.5t-50 -86.5q0 -41 22 -65.5t68 -24.5q24 0 51 10.5t41 19zM237 550q-56 0 -83 40t-27 96h5q17 -79 105 -79q89 0 106 79h5q0 -56 -27.5 -96t-83.5 -40z
" />
    <glyph glyph-name="Aogonek" unicode="&#x104;" horiz-adv-x="690" 
d="M632 -178v-4q-31 -40 -77 -40q-31 0 -53 24t-22 60q0 69 98 138h-148v10q68 8 84 18.5t5 41.5l-64 180h-282l-63 -183q-11 -32 8 -41t102 -16v-10h-200v10q42 8 56 17.5t24 39.5l220 638h29l234 -638q10 -29 26 -41.5t61 -15.5v-10h-83q-26 -24 -41.5 -61t-15.5 -68
q0 -47 32 -61.5t70 12.5zM311 652l-135 -392h275l-138 392h-2z" />
    <glyph glyph-name="aogonek" unicode="&#x105;" horiz-adv-x="505" 
d="M433 -160v-4q-27 -36 -69 -36q-29 0 -49 21.5t-20 54.5q0 54 76 114q-36 3 -36 60v20h-2q-93 -80 -168 -80q-56 0 -85.5 31t-29.5 78q0 27 11 48.5t39.5 44t88 39t146.5 24.5v105q0 60 -30.5 95t-89.5 35q-47 0 -78.5 -24t-31.5 -50q0 -13 17.5 -28.5t17.5 -26.5
q0 -14 -10 -22.5t-26 -8.5q-17 0 -28 10t-11 29q0 43 51.5 92t135.5 49q138 0 138 -145v-310q0 -35 34 -35q19 0 69 31l2 -6q-73 -51 -112 -54q-41 -46 -41 -98q0 -39 25 -54.5t66 1.5zM335 80v165q-130 -15 -180 -48.5t-50 -86.5q0 -41 22 -65.5t68 -24.5q24 0 51 10.5
t41 19z" />
    <glyph glyph-name="Cacute" unicode="&#x106;" horiz-adv-x="640" 
d="M380 0q50 0 90 17t65.5 46t41 59t23.5 63h10l-15 -135q-96 -60 -215 -60q-137 0 -231 102t-94 258t94 258t231 102q119 0 215 -60l10 -135h-10q-17 75 -74 130t-141 55q-114 0 -189.5 -96t-75.5 -254t75.5 -254t189.5 -96zM477 841l-136 -101l-2 2l87 148q11 18 30 20
q15 1 27.5 -10t12.5 -26q0 -19 -19 -33z" />
    <glyph glyph-name="cacute" unicode="&#x107;" horiz-adv-x="480" 
d="M290 500q-81 0 -135.5 -67.5t-54.5 -162.5q0 -114 55.5 -182t144.5 -68q73 0 136 47l4 -7q-77 -70 -165 -70q-108 0 -169 74t-61 181q0 122 70.5 193.5t169.5 71.5q74 0 117 -37t43 -88q0 -24 -11.5 -34.5t-26.5 -10.5q-32 0 -32 26q0 14 17.5 29t17.5 25q0 35 -34 57.5
t-86 22.5zM382 641l-126 -89l-4 4l83 130q10 16 28 18q14 1 25 -9t11 -24q0 -18 -17 -30z" />
    <glyph glyph-name="Ccircumflex" unicode="&#x108;" horiz-adv-x="640" 
d="M380 0q50 0 90 17t65.5 46t41 59t23.5 63h10l-15 -135q-96 -60 -215 -60q-137 0 -231 102t-94 258t94 258t231 102q119 0 215 -60l10 -135h-10q-17 75 -74 130t-141 55q-114 0 -189.5 -96t-75.5 -254t75.5 -254t189.5 -96zM387 841l-127 -101h-2l124 180h9l125 -180h-2z
" />
    <glyph glyph-name="ccircumflex" unicode="&#x109;" horiz-adv-x="480" 
d="M290 500q-81 0 -135.5 -67.5t-54.5 -162.5q0 -114 55.5 -182t144.5 -68q73 0 136 47l4 -7q-77 -70 -165 -70q-108 0 -169 74t-61 181q0 122 70.5 193.5t169.5 71.5q74 0 117 -37t43 -88q0 -24 -11.5 -34.5t-26.5 -10.5q-32 0 -32 26q0 14 17.5 29t17.5 25q0 35 -34 57.5
t-86 22.5zM275 640l-115 -90h-2l113 162h9l113 -162h-2z" />
    <glyph glyph-name="Cdotaccent" unicode="&#x10a;" horiz-adv-x="640" 
d="M380 0q50 0 90 17t65.5 46t41 59t23.5 63h10l-15 -135q-96 -60 -215 -60q-137 0 -231 102t-94 258t94 258t231 102q119 0 215 -60l10 -135h-10q-17 75 -74 130t-141 55q-114 0 -189.5 -96t-75.5 -254t75.5 -254t189.5 -96zM321 805q0 22 14 36.5t35 14.5t35.5 -14.5
t14.5 -36.5q0 -21 -14.5 -35t-35.5 -14t-35 13.5t-14 35.5z" />
    <glyph glyph-name="cdotaccent" unicode="&#x10b;" horiz-adv-x="480" 
d="M290 500q-81 0 -135.5 -67.5t-54.5 -162.5q0 -114 55.5 -182t144.5 -68q73 0 136 47l4 -7q-77 -70 -165 -70q-108 0 -169 74t-61 181q0 122 70.5 193.5t169.5 71.5q74 0 117 -37t43 -88q0 -24 -11.5 -34.5t-26.5 -10.5q-32 0 -32 26q0 14 17.5 29t17.5 25q0 35 -34 57.5
t-86 22.5zM239 599q0 22 14 36.5t35 14.5t35.5 -14.5t14.5 -36.5q0 -21 -14.5 -35t-35.5 -14t-35 13.5t-14 35.5z" />
    <glyph glyph-name="Ccaron" unicode="&#x10c;" horiz-adv-x="640" 
d="M380 0q50 0 90 17t65.5 46t41 59t23.5 63h10l-15 -135q-96 -60 -215 -60q-137 0 -231 102t-94 258t94 258t231 102q119 0 215 -60l10 -135h-10q-17 75 -74 130t-141 55q-114 0 -189.5 -96t-75.5 -254t75.5 -254t189.5 -96zM249 920l127 -101l127 101h2l-125 -180h-9
l-124 180h2z" />
    <glyph glyph-name="ccaron" unicode="&#x10d;" horiz-adv-x="480" 
d="M290 500q-81 0 -135.5 -67.5t-54.5 -162.5q0 -114 55.5 -182t144.5 -68q73 0 136 47l4 -7q-77 -70 -165 -70q-108 0 -169 74t-61 181q0 122 70.5 193.5t169.5 71.5q74 0 117 -37t43 -88q0 -24 -11.5 -34.5t-26.5 -10.5q-32 0 -32 26q0 14 17.5 29t17.5 25q0 35 -34 57.5
t-86 22.5zM165 712l115 -90l116 90h2l-113 -162h-9l-113 162h2z" />
    <glyph glyph-name="Dcaron" unicode="&#x10e;" horiz-adv-x="706" 
d="M195 10h160q111 0 190.5 94t79.5 246t-80 246t-190 94h-160v-680zM355 0h-310v10q67 4 81 10.5t14 39.5v580q0 33 -14 39.5t-81 10.5v10h310q143 0 236.5 -97t93.5 -253t-93.5 -253t-236.5 -97zM196 920l127 -101l127 101h2l-125 -180h-9l-124 180h2z" />
    <glyph glyph-name="dcaron" unicode="&#x10f;" horiz-adv-x="640" 
d="M276 10q70 0 139 61v279q0 78 -39.5 114t-90.5 36q-87 0 -133.5 -71t-46.5 -179q0 -109 49.5 -174.5t121.5 -65.5zM470 730v-660q0 -33 14 -39.5t81 -10.5v-10l-135 -20h-10v70h-5q-31 -30 -76 -50t-88 -20q-96 0 -151 72.5t-55 187.5q0 119 67.5 189.5t162.5 70.5
q77 0 140 -50v190q0 33 -14 39.5t-81 10.5v10l140 20h10zM565 730q34 0 49.5 -23t15.5 -57q0 -76 -91 -125l-4 7q60 34 60 62q0 6 -0.5 10t-8 10t-21.5 6q-24 0 -39.5 16.5t-15.5 38.5q0 24 16.5 39.5t38.5 15.5z" />
    <glyph glyph-name="Dcroat" unicode="&#x110;" horiz-adv-x="740" 
d="M355 0h-310v10q67 4 81 10.5t14 39.5v286h-95v10h95v284q0 33 -14 39.5t-81 10.5v10h310q143 0 236.5 -97t93.5 -253t-93.5 -253t-236.5 -97zM195 10h160q111 0 190.5 94t79.5 246t-80 246t-190 94h-160v-334h132v-10h-132v-336z" />
    <glyph glyph-name="dcroat" unicode="&#x111;" horiz-adv-x="580" 
d="M470 730v-144h95v-10h-95v-506q0 -33 14 -39.5t81 -10.5v-10l-135 -20h-10v70h-5q-31 -30 -76 -50t-88 -20q-96 0 -151 72.5t-55 187.5q0 119 67.5 189.5t162.5 70.5q77 0 140 -50v116h-132v10h132v64q0 33 -14 39.5t-81 10.5v10l140 20h10zM276 10q70 0 139 61v279
q0 78 -39.5 114t-90.5 36q-87 0 -133.5 -71t-46.5 -179q0 -109 49.5 -174.5t121.5 -65.5z" />
    <glyph glyph-name="Emacron" unicode="&#x112;" 
d="M540 700l5 -160h-10q-17 72 -47.5 111t-87.5 39h-205v-330h125q52 0 77.5 25.5t32.5 84.5h10v-230h-10q-7 59 -32.5 84.5t-77.5 25.5h-125v-340h195q125 0 155 150h10l-10 -160h-500v10q67 4 81 10.5t14 39.5v580q0 33 -14 39.5t-81 10.5v10h495zM175 782h304v-10h-304
v10z" />
    <glyph glyph-name="emacron" unicode="&#x113;" horiz-adv-x="495" 
d="M285 510q67 0 116 -36.5t49 -115.5q0 -33 -10 -60h-339q-1 -9 -1 -28q0 -114 55.5 -182t144.5 -68q72 0 136 47l4 -7q-77 -70 -165 -70q-108 0 -169 74t-61 181q0 122 70.5 193.5t169.5 71.5zM280 500q-65 0 -116 -54.5t-62 -137.5h277q6 24 6 74q-3 118 -105 118z
M131 567h275v-10h-275v10z" />
    <glyph glyph-name="Ebreve" unicode="&#x114;" 
d="M540 700l5 -160h-10q-17 72 -47.5 111t-87.5 39h-205v-330h125q52 0 77.5 25.5t32.5 84.5h10v-230h-10q-7 59 -32.5 84.5t-77.5 25.5h-125v-340h195q125 0 155 150h10l-10 -160h-500v10q67 4 81 10.5t14 39.5v580q0 33 -14 39.5t-81 10.5v10h495zM325 750q-44 0 -73 25
t-39 57t-10 69h5q8 -38 38 -63.5t79 -25.5t79 25.5t38 63.5h5q0 -59 -29.5 -105t-92.5 -46z" />
    <glyph glyph-name="ebreve" unicode="&#x115;" horiz-adv-x="495" 
d="M285 510q67 0 116 -36.5t49 -115.5q0 -33 -10 -60h-339q-1 -9 -1 -28q0 -114 55.5 -182t144.5 -68q72 0 136 47l4 -7q-77 -70 -165 -70q-108 0 -169 74t-61 181q0 122 70.5 193.5t169.5 71.5zM280 500q-65 0 -116 -54.5t-62 -137.5h277q6 24 6 74q-3 118 -105 118z
M280 550q-56 0 -83 40t-27 96h5q17 -79 105 -79q89 0 106 79h5q0 -56 -27.5 -96t-83.5 -40z" />
    <glyph glyph-name="Edotaccent" unicode="&#x116;" 
d="M540 700l5 -160h-10q-17 72 -47.5 111t-87.5 39h-205v-330h125q52 0 77.5 25.5t32.5 84.5h10v-230h-10q-7 59 -32.5 84.5t-77.5 25.5h-125v-340h195q125 0 155 150h10l-10 -160h-500v10q67 4 81 10.5t14 39.5v580q0 33 -14 39.5t-81 10.5v10h495zM271 805q0 22 14 36.5
t35 14.5t35.5 -14.5t14.5 -36.5q0 -21 -14.5 -35t-35.5 -14t-35 13.5t-14 35.5z" />
    <glyph glyph-name="edotaccent" unicode="&#x117;" horiz-adv-x="495" 
d="M285 510q67 0 116 -36.5t49 -115.5q0 -33 -10 -60h-339q-1 -9 -1 -28q0 -114 55.5 -182t144.5 -68q72 0 136 47l4 -7q-77 -70 -165 -70q-108 0 -169 74t-61 181q0 122 70.5 193.5t169.5 71.5zM280 500q-65 0 -116 -54.5t-62 -137.5h277q6 24 6 74q-3 118 -105 118z
M231 599q0 22 14 36.5t35 14.5t35.5 -14.5t14.5 -36.5q0 -21 -14.5 -35t-35.5 -14t-35 13.5t-14 35.5z" />
    <glyph glyph-name="Eogonek" unicode="&#x118;" 
d="M590 -178v-4q-31 -40 -77 -40q-31 0 -53 24t-22 60q0 69 98 138h-491v10q67 4 81 10.5t14 39.5v580q0 33 -14 39.5t-81 10.5v10h495l5 -160h-10q-17 72 -47.5 111t-87.5 39h-205v-330h125q52 0 77.5 25.5t32.5 84.5h10v-230h-10q-7 59 -32.5 84.5t-77.5 25.5h-125v-340
h195q125 0 155 150h10l-10 -160q-26 -24 -41.5 -61t-15.5 -68q0 -47 32 -61.5t70 12.5z" />
    <glyph glyph-name="eogonek" unicode="&#x119;" horiz-adv-x="495" 
d="M370 9v3q-48 -22 -95 -22q-108 0 -169 74t-61 181q0 122 70.5 193.5t169.5 71.5q67 0 116 -36.5t49 -115.5q0 -33 -10 -60h-339q-1 -13 -1 -28q0 -114 55.5 -182t144.5 -68q72 0 136 47l4 -7q-123 -89 -123 -167q0 -37 23.5 -54t67.5 1v-4q-27 -36 -69 -36
q-29 0 -49 21.5t-20 54.5q0 59 100 133zM280 500q-66 0 -115.5 -54t-62.5 -138h277q6 24 6 74q-3 118 -105 118z" />
    <glyph glyph-name="Ecaron" unicode="&#x11a;" 
d="M540 700l5 -160h-10q-17 72 -47.5 111t-87.5 39h-205v-330h125q52 0 77.5 25.5t32.5 84.5h10v-230h-10q-7 59 -32.5 84.5t-77.5 25.5h-125v-340h195q125 0 155 150h10l-10 -160h-500v10q67 4 81 10.5t14 39.5v580q0 33 -14 39.5t-81 10.5v10h495zM192 920l127 -101
l127 101h2l-125 -180h-9l-124 180h2z" />
    <glyph glyph-name="ecaron" unicode="&#x11b;" horiz-adv-x="495" 
d="M285 510q67 0 116 -36.5t49 -115.5q0 -33 -10 -60h-339q-1 -9 -1 -28q0 -114 55.5 -182t144.5 -68q72 0 136 47l4 -7q-77 -70 -165 -70q-108 0 -169 74t-61 181q0 122 70.5 193.5t169.5 71.5zM280 500q-65 0 -116 -54.5t-62 -137.5h277q6 24 6 74q-3 118 -105 118z
M164 712l115 -90l116 90h2l-113 -162h-9l-113 162h2z" />
    <glyph glyph-name="Gcircumflex" unicode="&#x11c;" horiz-adv-x="710" 
d="M380 0q116 0 180 111v139q0 33 -14 39.5t-81 10.5v10h225v-10q-52 -4 -63.5 -11t-11.5 -39v-255h-10l-14 86q-93 -91 -211 -91q-137 0 -231 102t-94 258t94 258t231 102q119 0 215 -60l10 -135h-10q-17 75 -74 130t-141 55q-114 0 -189.5 -96t-75.5 -254t75.5 -254
t189.5 -96zM382 841l-127 -101h-2l124 180h9l125 -180h-2z" />
    <glyph glyph-name="gcircumflex" unicode="&#x11d;" horiz-adv-x="535" 
d="M250 155q-50 0 -91 18q-9 -10 -16.5 -31t-7.5 -37q0 -20 15 -26t52 -9l162 -10q59 -3 100 -31.5t41 -78.5q0 -43 -24 -75t-65 -50t-87.5 -26.5t-98.5 -8.5q-200 0 -200 110q0 31 27.5 58t81.5 61q-64 12 -64 65q0 47 77 92q-97 47 -97 156q0 80 55 129t140 49
q64 0 114 -33l131 23v-55l-124 27q33 -25 51 -62t18 -75q0 -85 -52 -132.5t-138 -47.5zM120 340q0 -74 39.5 -124.5t95.5 -50.5q62 0 91 46t29 114q0 73 -36.5 124t-93.5 51q-59 0 -92 -45t-33 -115zM330 5l-182 13q-60 -62 -60 -108t37 -78t110 -32q35 0 69 7t66 21
t52 39.5t20 58.5q0 71 -112 79zM243 640l-115 -90h-2l113 162h9l113 -162h-2z" />
    <glyph glyph-name="Gbreve" unicode="&#x11e;" horiz-adv-x="710" 
d="M380 0q116 0 180 111v139q0 33 -14 39.5t-81 10.5v10h225v-10q-52 -4 -63.5 -11t-11.5 -39v-255h-10l-14 86q-93 -91 -211 -91q-137 0 -231 102t-94 258t94 258t231 102q119 0 215 -60l10 -135h-10q-17 75 -74 130t-141 55q-114 0 -189.5 -96t-75.5 -254t75.5 -254
t189.5 -96zM375 750q-44 0 -73 25t-39 57t-10 69h5q8 -38 38 -63.5t79 -25.5t79 25.5t38 63.5h5q0 -59 -29.5 -105t-92.5 -46z" />
    <glyph glyph-name="gbreve" unicode="&#x11f;" horiz-adv-x="535" 
d="M250 155q-50 0 -91 18q-9 -10 -16.5 -31t-7.5 -37q0 -20 15 -26t52 -9l162 -10q59 -3 100 -31.5t41 -78.5q0 -43 -24 -75t-65 -50t-87.5 -26.5t-98.5 -8.5q-200 0 -200 110q0 31 27.5 58t81.5 61q-64 12 -64 65q0 47 77 92q-97 47 -97 156q0 80 55 129t140 49
q64 0 114 -33l131 23v-55l-124 27q33 -25 51 -62t18 -75q0 -85 -52 -132.5t-138 -47.5zM120 340q0 -74 39.5 -124.5t95.5 -50.5q62 0 91 46t29 114q0 73 -36.5 124t-93.5 51q-59 0 -92 -45t-33 -115zM330 5l-182 13q-60 -62 -60 -108t37 -78t110 -32q35 0 69 7t66 21
t52 39.5t20 58.5q0 71 -112 79zM255 550q-56 0 -83 40t-27 96h5q17 -79 105 -79q89 0 106 79h5q0 -56 -27.5 -96t-83.5 -40z" />
    <glyph glyph-name="Gdotaccent" unicode="&#x120;" horiz-adv-x="710" 
d="M380 0q116 0 180 111v139q0 33 -14 39.5t-81 10.5v10h225v-10q-52 -4 -63.5 -11t-11.5 -39v-255h-10l-14 86q-93 -91 -211 -91q-137 0 -231 102t-94 258t94 258t231 102q119 0 215 -60l10 -135h-10q-17 75 -74 130t-141 55q-114 0 -189.5 -96t-75.5 -254t75.5 -254
t189.5 -96zM329 805q0 22 14 36.5t35 14.5t35.5 -14.5t14.5 -36.5q0 -21 -14.5 -35t-35.5 -14t-35 13.5t-14 35.5z" />
    <glyph glyph-name="gdotaccent" unicode="&#x121;" horiz-adv-x="535" 
d="M250 155q-50 0 -91 18q-9 -10 -16.5 -31t-7.5 -37q0 -20 15 -26t52 -9l162 -10q59 -3 100 -31.5t41 -78.5q0 -43 -24 -75t-65 -50t-87.5 -26.5t-98.5 -8.5q-200 0 -200 110q0 31 27.5 58t81.5 61q-64 12 -64 65q0 47 77 92q-97 47 -97 156q0 80 55 129t140 49
q64 0 114 -33l131 23v-55l-124 27q33 -25 51 -62t18 -75q0 -85 -52 -132.5t-138 -47.5zM120 340q0 -74 39.5 -124.5t95.5 -50.5q62 0 91 46t29 114q0 73 -36.5 124t-93.5 51q-59 0 -92 -45t-33 -115zM330 5l-182 13q-60 -62 -60 -108t37 -78t110 -32q35 0 69 7t66 21
t52 39.5t20 58.5q0 71 -112 79zM210 599q0 22 14 36.5t35 14.5t35.5 -14.5t14.5 -36.5q0 -21 -14.5 -35t-35.5 -14t-35 13.5t-14 35.5z" />
    <glyph glyph-name="Gcommaaccent" unicode="&#x122;" horiz-adv-x="710" 
d="M371 -30q34 0 49.5 -23t15.5 -57q0 -76 -91 -125l-4 7q60 34 60 62q0 6 -0.5 10t-8 10t-21.5 6q-24 0 -39.5 16.5t-15.5 38.5q0 24 16.5 39.5t38.5 15.5zM380 0q116 0 180 111v139q0 33 -14 39.5t-81 10.5v10h225v-10q-52 -4 -63.5 -11t-11.5 -39v-255h-10l-14 86
q-93 -91 -211 -91q-137 0 -231 102t-94 258t94 258t231 102q119 0 215 -60l10 -135h-10q-17 75 -74 130t-141 55q-114 0 -189.5 -96t-75.5 -254t75.5 -254t189.5 -96z" />
    <glyph glyph-name="gcommaaccent" unicode="&#x123;" horiz-adv-x="535" 
d="M250 155q-50 0 -91 18q-9 -10 -16.5 -31t-7.5 -37q0 -20 15 -26t52 -9l162 -10q59 -3 100 -31.5t41 -78.5q0 -43 -24 -75t-65 -50t-87.5 -26.5t-98.5 -8.5q-200 0 -200 110q0 31 27.5 58t81.5 61q-64 12 -64 65q0 47 77 92q-97 47 -97 156q0 80 55 129t140 49
q64 0 114 -33l131 23v-55l-124 27q33 -25 51 -62t18 -75q0 -85 -52 -132.5t-138 -47.5zM120 340q0 -74 39.5 -124.5t95.5 -50.5q62 0 91 46t29 114q0 73 -36.5 124t-93.5 51q-59 0 -92 -45t-33 -115zM330 5l-182 13q-60 -62 -60 -108t37 -78t110 -32q35 0 69 7t66 21
t52 39.5t20 58.5q0 71 -112 79zM256 550q-34 0 -49.5 23t-15.5 57q0 76 91 125l4 -7q-60 -34 -60 -62q0 -6 0.5 -10t8 -10t21.5 -6q24 0 39.5 -16.5t15.5 -38.5q0 -24 -16.5 -39.5t-38.5 -15.5z" />
    <glyph glyph-name="Hcircumflex" unicode="&#x124;" horiz-adv-x="775" 
d="M580 60v295h-385v-295q0 -33 14 -39.5t81 -10.5v-10h-245v10q67 4 81 10.5t14 39.5v580q0 33 -14 39.5t-81 10.5v10h245v-10q-67 -4 -81 -10.5t-14 -39.5v-275h385v275q0 33 -14 39.5t-81 10.5v10h245v-10q-67 -4 -81 -10.5t-14 -39.5v-580q0 -33 14 -39.5t81 -10.5v-10
h-245v10q67 4 81 10.5t14 39.5zM387 841l-127 -101h-2l124 180h9l125 -180h-2z" />
    <glyph glyph-name="hcircumflex" unicode="&#x125;" horiz-adv-x="615" 
d="M35 0v10q67 4 81 10.5t14 39.5v590q0 33 -14 39.5t-81 10.5v10l140 20h10l-5 -325h5q40 47 91.5 76t104.5 29q55 0 89.5 -36t34.5 -114v-300q0 -33 14 -39.5t81 -10.5v-10h-225v10q52 4 63.5 11t11.5 39v303q0 112 -110 112q-73 0 -155 -80v-335q0 -33 14 -39.5t81 -10.5
v-10h-245zM144 850l-115 -90h-2l113 162h9l113 -162h-2z" />
    <glyph glyph-name="Hbar" unicode="&#x126;" horiz-adv-x="775" 
d="M140 60v447h-95v10h95v123q0 33 -14 39.5t-81 10.5v10h245v-10q-67 -4 -81 -10.5t-14 -39.5v-123h385v123q0 33 -14 39.5t-81 10.5v10h245v-10q-67 -4 -81 -10.5t-14 -39.5v-123h95v-10h-95v-447q0 -33 14 -39.5t81 -10.5v-10h-245v10q67 4 81 10.5t14 39.5v295h-385
v-295q0 -33 14 -39.5t81 -10.5v-10h-245v10q67 4 81 10.5t14 39.5zM195 507v-142h385v142h-385z" />
    <glyph glyph-name="hbar" unicode="&#x127;" horiz-adv-x="615" 
d="M35 0v10q67 4 81 10.5t14 39.5v516h-95v10h95v64q0 33 -14 39.5t-81 10.5v10l140 20h10l-3 -144h135v-10h-135l-2 -171h5q40 47 91.5 76t104.5 29q55 0 89.5 -36t34.5 -114v-300q0 -33 14 -39.5t81 -10.5v-10h-225v10q52 4 63.5 11t11.5 39v303q0 112 -110 112
q-73 0 -155 -80v-335q0 -33 14 -39.5t81 -10.5v-10h-245z" />
    <glyph glyph-name="Itilde" unicode="&#x128;" horiz-adv-x="335" 
d="M140 60v580q0 33 -14 39.5t-81 10.5v10h245v-10q-67 -4 -81 -10.5t-14 -39.5v-580q0 -33 14 -39.5t81 -10.5v-10h-245v10q67 4 81 10.5t14 39.5zM2 764l-4 2q36 74 58 93q17 14 33 14q17 0 84.5 -21t90.5 -21q36 0 66 45l5 -4q-48 -96 -92 -96q-21 0 -84.5 20t-84.5 20
t-36 -11.5t-36 -40.5z" />
    <glyph glyph-name="itilde" unicode="&#x129;" horiz-adv-x="295" 
d="M3 544l-4 2l16.5 33t17 27.5t25 26.5t27.5 8q18 0 82.5 -18t81.5 -18q29 0 52 35l5 -4q-29 -58 -47 -73q-16 -13 -35 -13q-21 0 -84 18t-84 18q-23 0 -53 -42zM185 510v-450q0 -33 14 -39.5t81 -10.5v-10h-245v10q67 4 81 10.5t14 39.5v370q0 33 -14 39.5t-81 10.5v10
l140 20h10z" />
    <glyph glyph-name="Imacron" unicode="&#x12a;" horiz-adv-x="335" 
d="M140 60v580q0 33 -14 39.5t-81 10.5v10h245v-10q-67 -4 -81 -10.5t-14 -39.5v-580q0 -33 14 -39.5t81 -10.5v-10h-245v10q67 4 81 10.5t14 39.5zM15 782h304v-10h-304v10z" />
    <glyph glyph-name="imacron" unicode="&#x12b;" horiz-adv-x="295" 
d="M6 567h275v-10h-275v10zM185 510v-450q0 -33 14 -39.5t81 -10.5v-10h-245v10q67 4 81 10.5t14 39.5v370q0 33 -14 39.5t-81 10.5v10l140 20h10z" />
    <glyph glyph-name="Ibreve" unicode="&#x12c;" horiz-adv-x="335" 
d="M140 60v580q0 33 -14 39.5t-81 10.5v10h245v-10q-67 -4 -81 -10.5t-14 -39.5v-580q0 -33 14 -39.5t81 -10.5v-10h-245v10q67 4 81 10.5t14 39.5zM167 750q-44 0 -73 25t-39 57t-10 69h5q8 -38 38 -63.5t79 -25.5t79 25.5t38 63.5h5q0 -59 -29.5 -105t-92.5 -46z" />
    <glyph glyph-name="ibreve" unicode="&#x12d;" horiz-adv-x="295" 
d="M150 550q-56 0 -83 40t-27 96h5q17 -79 105 -79q89 0 106 79h5q0 -56 -27.5 -96t-83.5 -40zM185 510v-450q0 -33 14 -39.5t81 -10.5v-10h-245v10q67 4 81 10.5t14 39.5v370q0 33 -14 39.5t-81 10.5v10l140 20h10z" />
    <glyph glyph-name="Iogonek" unicode="&#x12e;" horiz-adv-x="335" 
d="M242 -178v-4q-31 -40 -77 -40q-31 0 -53 24t-22 60q0 69 98 138h-143v10q67 4 81 10.5t14 39.5v580q0 33 -14 39.5t-81 10.5v10h245v-10q-67 -4 -81 -10.5t-14 -39.5v-580q0 -33 14 -39.5t81 -10.5v-10h-93q-26 -24 -41.5 -61t-15.5 -68q0 -47 32 -61.5t70 12.5z" />
    <glyph glyph-name="iogonek" unicode="&#x12f;" horiz-adv-x="295" 
d="M218 -160v-4q-27 -36 -69 -36q-29 0 -49 21.5t-20 54.5q0 58 90 124h-135v10q67 4 81 10.5t14 39.5v370q0 33 -14 39.5t-81 10.5v10l140 20h10v-450q0 -33 14 -39.5t81 -10.5v-10h-102q-51 -48 -51 -107q0 -39 25.5 -54.5t65.5 1.5zM105 629q0 20 14.5 34.5t35.5 14.5
t35.5 -14.5t14.5 -34.5q0 -21 -14.5 -35t-35.5 -14t-35.5 14t-14.5 35z" />
    <glyph glyph-name="Idotaccent" unicode="&#x130;" horiz-adv-x="335" 
d="M140 60v580q0 33 -14 39.5t-81 10.5v10h245v-10q-67 -4 -81 -10.5t-14 -39.5v-580q0 -33 14 -39.5t81 -10.5v-10h-245v10q67 4 81 10.5t14 39.5zM117 805q0 22 14 36.5t35 14.5t35.5 -14.5t14.5 -36.5q0 -21 -14.5 -35t-35.5 -14t-35 13.5t-14 35.5z" />
    <glyph glyph-name="dotlessi" unicode="&#x131;" horiz-adv-x="295" 
d="M185 510v-450q0 -33 14 -39.5t81 -10.5v-10h-245v10q67 4 81 10.5t14 39.5v370q0 33 -14 39.5t-81 10.5v10l140 20h10z" />
    <glyph glyph-name="IJ" unicode="&#x132;" horiz-adv-x="685" 
d="M140 60v580q0 33 -14 39.5t-81 10.5v10h245v-10q-67 -4 -81 -10.5t-14 -39.5v-580q0 -33 14 -39.5t81 -10.5v-10h-245v10q67 4 81 10.5t14 39.5zM500 175v465q0 33 -14 39.5t-81 10.5v10h245v-10q-67 -4 -81 -10.5t-14 -39.5v-440q0 -95 -54 -152.5t-118 -57.5
q-53 0 -53 35q0 30 40 30q9 0 30 -17.5t40 -17.5q60 0 60 155z" />
    <glyph glyph-name="ij" unicode="&#x133;" horiz-adv-x="540" 
d="M440 510v-490q0 -107 -38 -168.5t-92 -61.5q-45 0 -45 36q0 14 9.5 24t25.5 10q13 0 34 -17.5t26 -17.5q8 0 13 5t8.5 23t3.5 52v525q0 33 -14 39.5t-81 10.5v10l140 20h10zM360 629q0 20 14.5 34.5t35.5 14.5t35.5 -14.5t14.5 -34.5q0 -21 -14.5 -35t-35.5 -14t-35.5 14
t-14.5 35zM105 629q0 20 14.5 34.5t35.5 14.5t35.5 -14.5t14.5 -34.5q0 -21 -14.5 -35t-35.5 -14t-35.5 14t-14.5 35zM185 510v-450q0 -33 14 -39.5t81 -10.5v-10h-245v10q67 4 81 10.5t14 39.5v370q0 33 -14 39.5t-81 10.5v10l140 20h10z" />
    <glyph glyph-name="Jcircumflex" unicode="&#x134;" horiz-adv-x="365" 
d="M180 175v465q0 33 -14 39.5t-81 10.5v10h245v-10q-67 -4 -81 -10.5t-14 -39.5v-440q0 -95 -54 -152.5t-118 -57.5q-53 0 -53 35q0 30 40 30q9 0 30 -17.5t40 -17.5q60 0 60 155zM202 841l-127 -101h-2l124 180h9l125 -180h-2z" />
    <glyph glyph-name="jcircumflex" unicode="&#x135;" horiz-adv-x="275" 
d="M175 510v-490q0 -107 -38 -168.5t-92 -61.5q-45 0 -45 36q0 14 9.5 24t25.5 10q13 0 34 -17.5t26 -17.5q8 0 13 5t8.5 23t3.5 52v525q0 33 -14 39.5t-81 10.5v10l140 20h10zM137 642l-115 -90h-2l113 162h9l113 -162h-2z" />
    <glyph glyph-name="Kcommaaccent" unicode="&#x136;" horiz-adv-x="710" 
d="M370 -32q34 0 49.5 -23t15.5 -57q0 -76 -91 -125l-4 7q60 34 60 62q0 6 -0.5 10t-8 10t-21.5 6q-24 0 -39.5 16.5t-15.5 38.5q0 24 16.5 39.5t38.5 15.5zM140 60v580q0 33 -14 39.5t-81 10.5v10h245v-10q-67 -4 -81 -10.5t-14 -39.5v-275q75 0 103 11t55 44l151 188
q26 30 1.5 54t-90.5 28v10h230v-10q-42 -3 -64 -17t-46 -43l-220 -270q31 -23 105 -110l112 -133q25 -29 42 -46.5t49.5 -37.5t66.5 -23v-10h-125q-23 22 -52.5 55.5l-53 62.5t-25.5 31l-126 149q-46 56 -113 57v-295q0 -33 14 -39.5t81 -10.5v-10h-245v10q67 4 81 10.5
t14 39.5z" />
    <glyph glyph-name="kcommaaccent" unicode="&#x137;" horiz-adv-x="585" 
d="M185 730v-460q71 0 92 6t53 42l77 92q19 22 21 37t-20 26.5t-72 16.5v10h209v-10l-21 -4t-18.5 -5.5t-15 -5.5t-13.5 -7.5t-10.5 -7.5t-10 -9.5t-8.5 -9.5t-9.5 -10.5t-8.5 -10.5l-123 -144l198 -228l5 -6q5 -6 7.5 -8.5t9.5 -8t13.5 -8.5t17 -6t22.5 -4v-7h-115
l-189 229q-16 19 -35 25t-56 6v-200q0 -33 14 -39.5t81 -10.5v-10h-245v10q67 4 81 10.5t14 39.5v590q0 33 -14 39.5t-81 10.5v10l140 20h10zM309 -30q34 0 49.5 -23t15.5 -57q0 -76 -91 -125l-4 7q60 34 60 62q0 6 -0.5 10t-8 10t-21.5 6q-24 0 -39.5 16.5t-15.5 38.5
q0 24 16.5 39.5t38.5 15.5z" />
    <glyph glyph-name="Lacute" unicode="&#x139;" horiz-adv-x="565" 
d="M140 60v580q0 33 -14 39.5t-81 10.5v10h245v-10q-67 -4 -81 -10.5t-14 -39.5v-630h185q125 0 155 150h10l-10 -160h-490v10q67 4 81 10.5t14 39.5zM310 841l-136 -101l-2 2l87 148q11 18 30 20q15 1 27.5 -10t12.5 -26q0 -19 -19 -33z" />
    <glyph glyph-name="lacute" unicode="&#x13a;" horiz-adv-x="295" 
d="M185 730v-670q0 -33 14 -39.5t81 -10.5v-10h-245v10q67 4 81 10.5t14 39.5v590q0 33 -14 39.5t-81 10.5v10l140 20h10zM266 861l-126 -89l-4 4l83 130q10 16 28 18q14 1 25 -9t11 -24q0 -18 -17 -30z" />
    <glyph glyph-name="Lcommaaccent" unicode="&#x13b;" horiz-adv-x="565" 
d="M303 -32q34 0 49.5 -23t15.5 -57q0 -76 -91 -125l-4 7q60 34 60 62q0 6 -0.5 10t-8 10t-21.5 6q-24 0 -39.5 16.5t-15.5 38.5q0 24 16.5 39.5t38.5 15.5zM140 60v580q0 33 -14 39.5t-81 10.5v10h245v-10q-67 -4 -81 -10.5t-14 -39.5v-630h185q125 0 155 150h10l-10 -160
h-490v10q67 4 81 10.5t14 39.5z" />
    <glyph glyph-name="lcommaaccent" unicode="&#x13c;" horiz-adv-x="295" 
d="M185 730v-670q0 -33 14 -39.5t81 -10.5v-10h-245v10q67 4 81 10.5t14 39.5v590q0 33 -14 39.5t-81 10.5v10l140 20h10zM154 -30q34 0 49.5 -23t15.5 -57q0 -76 -91 -125l-4 7q60 34 60 62q0 6 -0.5 10t-8 10t-21.5 6q-24 0 -39.5 16.5t-15.5 38.5q0 24 16.5 39.5
t38.5 15.5z" />
    <glyph glyph-name="Lcaron" unicode="&#x13d;" horiz-adv-x="565" 
d="M398 700q34 0 49.5 -23t15.5 -57q0 -76 -91 -125l-4 7q60 34 60 62q0 6 -0.5 10t-8 10t-21.5 6q-24 0 -39.5 16.5t-15.5 38.5q0 24 16.5 39.5t38.5 15.5zM140 60v580q0 33 -14 39.5t-81 10.5v10h245v-10q-67 -4 -81 -10.5t-14 -39.5v-630h185q125 0 155 150h10l-10 -160
h-490v10q67 4 81 10.5t14 39.5z" />
    <glyph glyph-name="lcaron" unicode="&#x13e;" horiz-adv-x="355" 
d="M185 730v-670q0 -33 14 -39.5t81 -10.5v-10h-245v10q67 4 81 10.5t14 39.5v590q0 33 -14 39.5t-81 10.5v10l140 20h10zM280 730q34 0 49.5 -23t15.5 -57q0 -76 -91 -125l-4 7q60 34 60 62q0 6 -0.5 10t-8 10t-21.5 6q-24 0 -39.5 16.5t-15.5 38.5q0 24 16.5 39.5
t38.5 15.5z" />
    <glyph glyph-name="Ldot" unicode="&#x13f;" horiz-adv-x="565" 
d="M140 60v580q0 33 -14 39.5t-81 10.5v10h245v-10q-67 -4 -81 -10.5t-14 -39.5v-630h185q125 0 155 150h10l-10 -160h-490v10q67 4 81 10.5t14 39.5zM276 366q0 22 14 36.5t35 14.5t35.5 -14.5t14.5 -36.5q0 -21 -14.5 -35t-35.5 -14t-35 13.5t-14 35.5z" />
    <glyph glyph-name="ldot" unicode="&#x140;" horiz-adv-x="334" 
d="M185 730v-670q0 -33 14 -39.5t81 -10.5v-10h-245v10q67 4 81 10.5t14 39.5v590q0 33 -14 39.5t-81 10.5v10l140 20h10zM225 385q0 22 14 36.5t35 14.5t35.5 -14.5t14.5 -36.5q0 -21 -14.5 -35t-35.5 -14t-35 13.5t-14 35.5z" />
    <glyph glyph-name="Lslash" unicode="&#x141;" horiz-adv-x="565" 
d="M140 60v279l-95 -39v12l95 39v289q0 33 -14 39.5t-81 10.5v10h245v-10q-67 -4 -81 -10.5t-14 -39.5v-267l95 39v-12l-95 -39v-351h185q125 0 155 150h10l-10 -160h-490v10q67 4 81 10.5t14 39.5z" />
    <glyph glyph-name="lslash" unicode="&#x142;" horiz-adv-x="295" 
d="M185 730v-358l95 39v-13l-95 -39v-299q0 -33 14 -39.5t81 -10.5v-10h-245v10q67 4 81 10.5t14 39.5v277l-95 -39v13l95 39v300q0 33 -14 39.5t-81 10.5v10l140 20h10z" />
    <glyph glyph-name="Nacute" unicode="&#x143;" horiz-adv-x="725" 
d="M590 -5h-10l-425 655v-590q0 -32 20.5 -39t99.5 -11v-10h-235v10q70 4 87.5 11t17.5 39v580q0 32 -17.5 39t-87.5 11v10h150l390 -602v542q0 32 -20.5 39t-99.5 11v10h235v-10q-70 -4 -87.5 -11t-17.5 -39v-645zM466 841l-136 -101l-2 2l87 148q11 18 30 20
q15 1 27.5 -10t12.5 -26q0 -19 -19 -33z" />
    <glyph glyph-name="nacute" unicode="&#x144;" horiz-adv-x="615" 
d="M35 0v10q67 4 81 10.5t14 39.5v370q0 33 -14 39.5t-81 10.5v10l140 20h10l-5 -105h5q40 47 91.5 76t104.5 29q55 0 89.5 -36t34.5 -114v-300q0 -33 14 -39.5t81 -10.5v-10h-225v10q52 4 63.5 11t11.5 39v303q0 112 -110 112q-73 0 -155 -80v-335q0 -33 14 -39.5t81 -10.5
v-10h-245zM398 641l-126 -89l-4 4l83 130q10 16 28 18q14 1 25 -9t11 -24q0 -18 -17 -30z" />
    <glyph glyph-name="Ncommaaccent" unicode="&#x145;" horiz-adv-x="725" 
d="M366 -30q34 0 49.5 -23t15.5 -57q0 -76 -91 -125l-4 7q60 34 60 62q0 6 -0.5 10t-8 10t-21.5 6q-24 0 -39.5 16.5t-15.5 38.5q0 24 16.5 39.5t38.5 15.5zM590 -5h-10l-425 655v-590q0 -32 20.5 -39t99.5 -11v-10h-235v10q70 4 87.5 11t17.5 39v580q0 32 -17.5 39
t-87.5 11v10h150l390 -602v542q0 32 -20.5 39t-99.5 11v10h235v-10q-70 -4 -87.5 -11t-17.5 -39v-645z" />
    <glyph glyph-name="ncommaaccent" unicode="&#x146;" horiz-adv-x="615" 
d="M35 0v10q67 4 81 10.5t14 39.5v370q0 33 -14 39.5t-81 10.5v10l140 20h10l-5 -105h5q40 47 91.5 76t104.5 29q55 0 89.5 -36t34.5 -114v-300q0 -33 14 -39.5t81 -10.5v-10h-225v10q52 4 63.5 11t11.5 39v303q0 112 -110 112q-73 0 -155 -80v-335q0 -33 14 -39.5t81 -10.5
v-10h-245zM319 -30q34 0 49.5 -23t15.5 -57q0 -76 -91 -125l-4 7q60 34 60 62q0 6 -0.5 10t-8 10t-21.5 6q-24 0 -39.5 16.5t-15.5 38.5q0 24 16.5 39.5t38.5 15.5z" />
    <glyph glyph-name="Ncaron" unicode="&#x147;" horiz-adv-x="725" 
d="M590 -5h-10l-425 655v-590q0 -32 20.5 -39t99.5 -11v-10h-235v10q70 4 87.5 11t17.5 39v580q0 32 -17.5 39t-87.5 11v10h150l390 -602v542q0 32 -20.5 39t-99.5 11v10h235v-10q-70 -4 -87.5 -11t-17.5 -39v-645zM224 920l127 -101l127 101h2l-125 -180h-9l-124 180h2z
" />
    <glyph glyph-name="ncaron" unicode="&#x148;" horiz-adv-x="615" 
d="M35 0v10q67 4 81 10.5t14 39.5v370q0 33 -14 39.5t-81 10.5v10l140 20h10l-5 -105h5q40 47 91.5 76t104.5 29q55 0 89.5 -36t34.5 -114v-300q0 -33 14 -39.5t81 -10.5v-10h-225v10q52 4 63.5 11t11.5 39v303q0 112 -110 112q-73 0 -155 -80v-335q0 -33 14 -39.5t81 -10.5
v-10h-245zM193 712l115 -90l116 90h2l-113 -162h-9l-113 162h2z" />
    <glyph glyph-name="Eng" unicode="&#x14a;" horiz-adv-x="725" 
d="M580 0l-425 650v-590q0 -32 20.5 -39t99.5 -11v-10h-235v10q70 4 87.5 11t17.5 39v580q0 32 -17.5 39t-87.5 11v10h150l390 -602v542q0 32 -20.5 39t-99.5 11v10h235v-10q-70 -4 -87.5 -11t-17.5 -39v-620q0 -110 -31.5 -170t-83.5 -60q-45 0 -45 36q0 14 9.5 24t25.5 10
q13 0 34 -17.5t26 -17.5q8 0 20.5 21.5t23.5 62t11 81.5v10z" />
    <glyph glyph-name="eng" unicode="&#x14b;" horiz-adv-x="605" 
d="M505 360v-340q0 -107 -38 -168.5t-92 -61.5q-45 0 -45 36q0 14 9.5 24t25.5 10q13 0 34 -17.5t26 -17.5q8 0 13 5t8.5 23t3.5 52v458q0 112 -110 112q-73 0 -155 -80v-335q0 -33 14 -39.5t81 -10.5v-10h-245v10q67 4 81 10.5t14 39.5v370q0 33 -14 39.5t-81 10.5v10
l140 20h10l-5 -105h5q40 47 91.5 76t104.5 29q55 0 89.5 -36t34.5 -114z" />
    <glyph glyph-name="Omacron" unicode="&#x14c;" horiz-adv-x="770" 
d="M385 -10q142 0 236 101.5t94 258.5t-94 258.5t-236 101.5t-236 -101.5t-94 -258.5t94 -258.5t236 -101.5zM385 700q110 0 190 -98.5t80 -251.5t-80 -251.5t-190 -98.5t-190 98.5t-80 251.5t80 251.5t190 98.5zM233 782h304v-10h-304v10z" />
    <glyph glyph-name="omacron" unicode="&#x14d;" horiz-adv-x="550" 
d="M275 -10q103 0 166.5 74.5t63.5 185.5t-63.5 185.5t-166.5 74.5t-166.5 -74.5t-63.5 -185.5t63.5 -185.5t166.5 -74.5zM275 500q78 0 124 -68.5t46 -181.5t-46 -181.5t-124 -68.5t-124 68.5t-46 181.5t46 181.5t124 68.5zM137 567h275v-10h-275v10z" />
    <glyph glyph-name="Obreve" unicode="&#x14e;" horiz-adv-x="770" 
d="M385 -10q142 0 236 101.5t94 258.5t-94 258.5t-236 101.5t-236 -101.5t-94 -258.5t94 -258.5t236 -101.5zM385 700q110 0 190 -98.5t80 -251.5t-80 -251.5t-190 -98.5t-190 98.5t-80 251.5t80 251.5t190 98.5zM385 750q-44 0 -73 25t-39 57t-10 69h5q8 -38 38 -63.5
t79 -25.5t79 25.5t38 63.5h5q0 -59 -29.5 -105t-92.5 -46z" />
    <glyph glyph-name="obreve" unicode="&#x14f;" horiz-adv-x="550" 
d="M275 -10q103 0 166.5 74.5t63.5 185.5t-63.5 185.5t-166.5 74.5t-166.5 -74.5t-63.5 -185.5t63.5 -185.5t166.5 -74.5zM275 500q78 0 124 -68.5t46 -181.5t-46 -181.5t-124 -68.5t-124 68.5t-46 181.5t46 181.5t124 68.5zM274 550q-56 0 -83 40t-27 96h5q17 -79 105 -79
q89 0 106 79h5q0 -56 -27.5 -96t-83.5 -40z" />
    <glyph glyph-name="Ohungarumlaut" unicode="&#x150;" horiz-adv-x="770" 
d="M385 -10q142 0 236 101.5t94 258.5t-94 258.5t-236 101.5t-236 -101.5t-94 -258.5t94 -258.5t236 -101.5zM385 700q110 0 190 -98.5t80 -251.5t-80 -251.5t-190 -98.5t-190 98.5t-80 251.5t80 251.5t190 98.5zM446 841l-136 -101l-3 3l88 147q11 18 30 20q15 1 27.5 -10
t12.5 -26q0 -19 -19 -33zM576 841l-136 -101l-3 3l88 147q11 18 30 20q15 1 27.5 -10t12.5 -26q0 -19 -19 -33z" />
    <glyph glyph-name="ohungarumlaut" unicode="&#x151;" horiz-adv-x="550" 
d="M275 -10q103 0 166.5 74.5t63.5 185.5t-63.5 185.5t-166.5 74.5t-166.5 -74.5t-63.5 -185.5t63.5 -185.5t166.5 -74.5zM275 500q78 0 124 -68.5t46 -181.5t-46 -181.5t-124 -68.5t-124 68.5t-46 181.5t46 181.5t124 68.5zM312 641l-127 -88l-3 3l83 130q10 16 28 18
q14 1 25 -9t11 -24q0 -18 -17 -30zM430 641l-127 -88l-3 3l83 130q10 16 28 18q14 1 25.5 -9t11.5 -24q0 -18 -18 -30z" />
    <glyph glyph-name="OE" unicode="&#x152;" horiz-adv-x="965" 
d="M905 700l5 -160h-10q-17 72 -47.5 111t-87.5 39h-205v-330h125q52 0 77.5 25.5t32.5 84.5h10v-230h-10q-7 59 -32.5 84.5t-77.5 25.5h-125v-340h195q125 0 155 150h10l-10 -160h-444q-43 -10 -81 -10q-142 0 -236 101.5t-94 258.5t94 258.5t236 101.5q41 0 84 -10h436z
M385 700q-110 0 -190 -98.5t-80 -251.5t80 -251.5t190 -98.5q116 0 120 112v480q-4 108 -120 108z" />
    <glyph glyph-name="oe" unicode="&#x153;" horiz-adv-x="905" 
d="M695 510q67 0 116 -36.5t49 -115.5q0 -33 -10 -60h-339q-1 -9 -1 -28q0 -114 55.5 -182t144.5 -68q72 0 136 47l4 -7q-77 -70 -165 -70q-74 0 -126.5 36t-79.5 97q-29 -62 -81.5 -97.5t-122.5 -35.5q-103 0 -166.5 74.5t-63.5 185.5t63.5 185.5t166.5 74.5
q71 0 124.5 -37.5t81.5 -100.5q30 65 88 101.5t126 36.5zM275 500q-78 0 -124 -68.5t-46 -181.5t46 -181.5t124 -68.5t124 68.5t46 181.5t-46 181.5t-124 68.5zM512 308h277q6 24 6 74q-3 118 -105 118q-65 0 -116 -54.5t-62 -137.5z" />
    <glyph glyph-name="Racute" unicode="&#x154;" horiz-adv-x="670" 
d="M45 700h279q110 0 170.5 -52.5t60.5 -137.5q0 -84 -62 -143t-199 -62q53 -20 81.5 -42t52.5 -53l92 -125q49 -66 130 -75v-10h-125q-37 34 -75 90l-66 95q-63 91 -109 120h-80v-245q0 -33 14 -39.5t81 -10.5v-10h-245v10q67 4 81 10.5t14 39.5v580q0 33 -14 39.5
t-81 10.5v10zM310 690h-115v-375h85q113 0 164 54t51 131q0 33 -9 64t-28.5 60.5t-57.5 47.5t-90 18zM424 841l-136 -101l-2 2l87 148q11 18 30 20q15 1 27.5 -10t12.5 -26q0 -19 -19 -33z" />
    <glyph glyph-name="racute" unicode="&#x155;" horiz-adv-x="410" 
d="M35 0v10q67 4 81 10.5t14 39.5v370q0 33 -14 39.5t-81 10.5v10l140 20h10l-5 -115h5q86 115 165 115q22 0 36 -11t14 -31q0 -15 -10.5 -26.5t-25.5 -11.5q-9 0 -29.5 17.5t-39.5 17.5q-46 0 -110 -80v-325q0 -33 16.5 -39.5t98.5 -10.5v-10h-265zM285 641l-126 -89l-4 4
l83 130q10 16 28 18q14 1 25 -9t11 -24q0 -18 -17 -30z" />
    <glyph glyph-name="Rcommaaccent" unicode="&#x156;" horiz-adv-x="670" 
d="M368 -31q34 0 49.5 -23t15.5 -57q0 -76 -91 -125l-4 7q60 34 60 62q0 6 -0.5 10t-8 10t-21.5 6q-24 0 -39.5 16.5t-15.5 38.5q0 24 16.5 39.5t38.5 15.5zM45 700h279q110 0 170.5 -52.5t60.5 -137.5q0 -84 -62 -143t-199 -62q53 -20 81.5 -42t52.5 -53l92 -125
q49 -66 130 -75v-10h-125q-37 34 -75 90l-66 95q-63 91 -109 120h-80v-245q0 -33 14 -39.5t81 -10.5v-10h-245v10q67 4 81 10.5t14 39.5v580q0 33 -14 39.5t-81 10.5v10zM310 690h-115v-375h85q113 0 164 54t51 131q0 33 -9 64t-28.5 60.5t-57.5 47.5t-90 18z" />
    <glyph glyph-name="rcommaaccent" unicode="&#x157;" horiz-adv-x="410" 
d="M35 0v10q67 4 81 10.5t14 39.5v370q0 33 -14 39.5t-81 10.5v10l140 20h10l-5 -115h5q86 115 165 115q22 0 36 -11t14 -31q0 -15 -10.5 -26.5t-25.5 -11.5q-9 0 -29.5 17.5t-39.5 17.5q-46 0 -110 -80v-325q0 -33 16.5 -39.5t98.5 -10.5v-10h-265zM153 -30q34 0 49.5 -23
t15.5 -57q0 -76 -91 -125l-4 7q60 34 60 62q0 6 -0.5 10t-8 10t-21.5 6q-24 0 -39.5 16.5t-15.5 38.5q0 24 16.5 39.5t38.5 15.5z" />
    <glyph glyph-name="Rcaron" unicode="&#x158;" horiz-adv-x="670" 
d="M45 700h279q110 0 170.5 -52.5t60.5 -137.5q0 -84 -62 -143t-199 -62q53 -20 81.5 -42t52.5 -53l92 -125q49 -66 130 -75v-10h-125q-37 34 -75 90l-66 95q-63 91 -109 120h-80v-245q0 -33 14 -39.5t81 -10.5v-10h-245v10q67 4 81 10.5t14 39.5v580q0 33 -14 39.5
t-81 10.5v10zM310 690h-115v-375h85q113 0 164 54t51 131q0 33 -9 64t-28.5 60.5t-57.5 47.5t-90 18zM180 920l127 -101l127 101h2l-125 -180h-9l-124 180h2z" />
    <glyph glyph-name="rcaron" unicode="&#x159;" horiz-adv-x="410" 
d="M35 0v10q67 4 81 10.5t14 39.5v370q0 33 -14 39.5t-81 10.5v10l140 20h10l-5 -115h5q86 115 165 115q22 0 36 -11t14 -31q0 -15 -10.5 -26.5t-25.5 -11.5q-9 0 -29.5 17.5t-39.5 17.5q-46 0 -110 -80v-325q0 -33 16.5 -39.5t98.5 -10.5v-10h-265zM119 712l115 -90l116 90
h2l-113 -162h-9l-113 162h2z" />
    <glyph glyph-name="Sacute" unicode="&#x15a;" horiz-adv-x="535" 
d="M465 505h-10q-19 89 -69.5 142t-115.5 53q-67 0 -106 -34t-39 -91q0 -48 26.5 -84.5t65.5 -58l85.5 -46t85.5 -47.5t65.5 -64t26.5 -95q0 -85 -58 -137.5t-157 -52.5q-108 0 -200 50l-10 170h10q9 -61 31.5 -104t53 -65t60 -31.5t60.5 -9.5q74 0 114.5 43.5t40.5 116.5
q0 58 -36.5 98t-88.5 64.5l-104.5 49t-89 66.5t-36.5 102q0 71 53.5 120.5t151.5 49.5q97 0 180 -45zM383 841l-136 -101l-2 2l87 148q11 18 30 20q15 1 27.5 -10t12.5 -26q0 -19 -19 -33z" />
    <glyph glyph-name="sacute" unicode="&#x15b;" horiz-adv-x="425" 
d="M360 350h-10q-3 58 -48.5 104t-94.5 46q-52 0 -79.5 -25.5t-27.5 -66.5t29 -68t70 -42.5l82 -32t70 -48.5t29 -80q0 -69 -49 -108t-126 -39t-147 35l-13 135h10q17 -83 60 -121.5t93 -38.5q55 0 86 31t31 77q0 42 -28.5 70t-68.5 44l-80.5 32.5t-69 47t-28.5 76.5
q0 59 46.5 95.5t118.5 36.5t137 -31zM312 641l-126 -89l-4 4l83 130q10 16 28 18q14 1 25 -9t11 -24q0 -18 -17 -30z" />
    <glyph glyph-name="Scircumflex" unicode="&#x15c;" horiz-adv-x="535" 
d="M465 505h-10q-19 89 -69.5 142t-115.5 53q-67 0 -106 -34t-39 -91q0 -48 26.5 -84.5t65.5 -58l85.5 -46t85.5 -47.5t65.5 -64t26.5 -95q0 -85 -58 -137.5t-157 -52.5q-108 0 -200 50l-10 170h10q9 -61 31.5 -104t53 -65t60 -31.5t60.5 -9.5q74 0 114.5 43.5t40.5 116.5
q0 58 -36.5 98t-88.5 64.5l-104.5 49t-89 66.5t-36.5 102q0 71 53.5 120.5t151.5 49.5q97 0 180 -45zM275 841l-127 -101h-2l124 180h9l125 -180h-2z" />
    <glyph glyph-name="scircumflex" unicode="&#x15d;" horiz-adv-x="425" 
d="M360 350h-10q-3 58 -48.5 104t-94.5 46q-52 0 -79.5 -25.5t-27.5 -66.5t29 -68t70 -42.5l82 -32t70 -48.5t29 -80q0 -69 -49 -108t-126 -39t-147 35l-13 135h10q17 -83 60 -121.5t93 -38.5q55 0 86 31t31 77q0 42 -28.5 70t-68.5 44l-80.5 32.5t-69 47t-28.5 76.5
q0 59 46.5 95.5t118.5 36.5t137 -31zM215 640l-115 -90h-2l113 162h9l113 -162h-2z" />
    <glyph glyph-name="Scedilla" unicode="&#x15e;" horiz-adv-x="535" 
d="M465 505h-10q-19 89 -69.5 142t-115.5 53q-67 0 -106 -34t-39 -91q0 -48 26.5 -84.5t65.5 -58l85.5 -46t85.5 -47.5t65.5 -64t26.5 -95q0 -84 -57 -136.5t-154 -53.5v-23q43 -8 76 -32.5t33 -65.5q0 -43 -48 -71.5t-107 -36.5l-3 6q50 14 77 35t27 55q0 52 -65 68l3 65
q-110 2 -197 50l-10 170h10q9 -61 31.5 -104t53 -65t60 -31.5t60.5 -9.5q74 0 114.5 43.5t40.5 116.5q0 58 -36.5 98t-88.5 64.5l-104.5 49t-89 66.5t-36.5 102q0 71 53.5 120.5t151.5 49.5q97 0 180 -45z" />
    <glyph glyph-name="scedilla" unicode="&#x15f;" horiz-adv-x="425" 
d="M360 350h-10q-3 58 -48.5 104t-94.5 46q-52 0 -79.5 -25.5t-27.5 -66.5t29 -68t70 -42.5l82 -32t70 -48.5t29 -80q0 -68 -47.5 -106.5t-123.5 -40.5v-23q104 -20 104 -84q0 -39 -42.5 -65t-98.5 -34l-3 6q93 21 93 72q0 48 -63 63l3 65q-79 1 -144 35l-13 135h10
q17 -83 60 -121.5t93 -38.5q55 0 86 31t31 77q0 42 -28.5 70t-68.5 44l-80.5 32.5t-69 47t-28.5 76.5q0 59 46.5 95.5t118.5 36.5t137 -31z" />
    <glyph glyph-name="Scaron" unicode="&#x160;" horiz-adv-x="535" 
d="M140 920l127 -101l127 101h2l-125 -180h-9l-124 180h2zM465 505h-10q-19 89 -69.5 142t-115.5 53q-67 0 -106 -34t-39 -91q0 -48 26.5 -84.5t65.5 -58l85.5 -46t85.5 -47.5t65.5 -64t26.5 -95q0 -85 -58 -137.5t-157 -52.5q-108 0 -200 50l-10 170h10q9 -61 31.5 -104
t53 -65t60 -31.5t60.5 -9.5q74 0 114.5 43.5t40.5 116.5q0 58 -36.5 98t-88.5 64.5l-104.5 49t-89 66.5t-36.5 102q0 71 53.5 120.5t151.5 49.5q97 0 180 -45z" />
    <glyph glyph-name="scaron" unicode="&#x161;" horiz-adv-x="425" 
d="M360 350h-10q-3 58 -48.5 104t-94.5 46q-52 0 -79.5 -25.5t-27.5 -66.5t29 -68t70 -42.5l82 -32t70 -48.5t29 -80q0 -69 -49 -108t-126 -39t-147 35l-13 135h10q17 -83 60 -121.5t93 -38.5q55 0 86 31t31 77q0 42 -28.5 70t-68.5 44l-80.5 32.5t-69 47t-28.5 76.5
q0 59 46.5 95.5t118.5 36.5t137 -31zM97 712l115 -90l116 90h2l-113 -162h-9l-113 162h2z" />
    <glyph glyph-name="Tcommaaccent" unicode="&#x162;" horiz-adv-x="575" 
d="M286 -30q34 0 49.5 -23t15.5 -57q0 -76 -91 -125l-4 7q60 34 60 62q0 6 -0.5 10t-8 10t-21.5 6q-24 0 -39.5 16.5t-15.5 38.5q0 24 16.5 39.5t38.5 15.5zM30 540l5 160h505l5 -160h-10q-17 72 -47.5 111t-87.5 39h-85v-630q0 -33 14 -39.5t81 -10.5v-10h-245v10
q67 4 81 10.5t14 39.5v630h-85q-57 0 -87.5 -39t-47.5 -111h-10z" />
    <glyph glyph-name="tcommaaccent" unicode="&#x163;" horiz-adv-x="355" 
d="M175 490v-386q0 -96 65 -96q33 0 92 40l3 -8q-64 -50 -122 -50q-48 0 -70.5 28.5t-22.5 91.5v380h-95v5l95 5l45 150h10v-150h145v-10h-145zM191 -30q34 0 49.5 -23t15.5 -57q0 -76 -91 -125l-4 7q60 34 60 62q0 6 -0.5 10t-8 10t-21.5 6q-24 0 -39.5 16.5t-15.5 38.5
q0 24 16.5 39.5t38.5 15.5z" />
    <glyph glyph-name="Tcaron" unicode="&#x164;" horiz-adv-x="575" 
d="M30 540l5 160h505l5 -160h-10q-17 72 -47.5 111t-87.5 39h-85v-630q0 -33 14 -39.5t81 -10.5v-10h-245v10q67 4 81 10.5t14 39.5v630h-85q-57 0 -87.5 -39t-47.5 -111h-10zM160 920l127 -101l127 101h2l-125 -180h-9l-124 180h2z" />
    <glyph glyph-name="tcaron" unicode="&#x165;" horiz-adv-x="355" 
d="M175 490v-386q0 -96 65 -96q33 0 92 40l3 -8q-64 -50 -122 -50q-48 0 -70.5 28.5t-22.5 91.5v380h-95v5l95 5l45 150h10v-150h145v-10h-145zM260 740q34 0 49.5 -23t15.5 -57q0 -76 -91 -125l-4 7q60 34 60 62q0 6 -0.5 10t-8 10t-21.5 6q-24 0 -39.5 16.5t-15.5 38.5
q0 24 16.5 39.5t38.5 15.5z" />
    <glyph glyph-name="Tbar" unicode="&#x166;" horiz-adv-x="575" 
d="M30 540l5 160h505l5 -160h-10q-17 72 -47.5 111t-87.5 39h-85v-334h100v-10h-100v-286q0 -33 14 -39.5t81 -10.5v-10h-245v10q67 4 81 10.5t14 39.5v286h-100v10h100v334h-85q-57 0 -87.5 -39t-47.5 -111h-10z" />
    <glyph glyph-name="tbar" unicode="&#x167;" horiz-adv-x="355" 
d="M175 490v-214h145v-10h-145v-162q0 -96 65 -96q33 0 92 40l3 -8q-64 -50 -122 -50q-48 0 -70.5 28.5t-22.5 91.5v156h-95v10h95v214h-95v5l95 5l45 150h10v-150h145v-10h-145z" />
    <glyph glyph-name="Utilde" unicode="&#x168;" horiz-adv-x="755" 
d="M130 270v370q0 33 -14 39.5t-81 10.5v10h245v-10q-67 -4 -81 -10.5t-14 -39.5v-375q0 -122 54.5 -188.5t160.5 -66.5q100 0 160 66.5t60 188.5v375q0 32 -18.5 39t-101.5 11v10h225v-10q-67 -4 -81 -10.5t-14 -39.5v-370q0 -134 -68.5 -207t-191.5 -73q-240 0 -240 280z
M229 764l-4 2q36 74 58 93q17 14 33 14q17 0 84.5 -21t90.5 -21q36 0 66 45l5 -4q-48 -96 -92 -96q-21 0 -84.5 20t-84.5 20t-36 -11.5t-36 -40.5z" />
    <glyph glyph-name="utilde" unicode="&#x169;" horiz-adv-x="605" 
d="M440 105v325q0 33 -16.5 39.5t-98.5 10.5v10l160 20h10v-440q0 -33 14 -39.5t81 -10.5v-10l-135 -20h-10v105h-5q-40 -47 -91.5 -76t-104.5 -29q-55 0 -89.5 36t-34.5 114v290q0 33 -14 39.5t-81 10.5v10l140 20h10v-388q0 -45 23 -71t67 -26q95 0 175 80zM163 544l-4 2
l16.5 33t17 27.5t25 26.5t27.5 8q18 0 82.5 -18t81.5 -18q29 0 52 35l5 -4q-29 -58 -47 -73q-16 -13 -35 -13q-21 0 -84 18t-84 18q-23 0 -53 -42z" />
    <glyph glyph-name="Umacron" unicode="&#x16a;" horiz-adv-x="755" 
d="M130 270v370q0 33 -14 39.5t-81 10.5v10h245v-10q-67 -4 -81 -10.5t-14 -39.5v-375q0 -122 54.5 -188.5t160.5 -66.5q100 0 160 66.5t60 188.5v375q0 32 -18.5 39t-101.5 11v10h225v-10q-67 -4 -81 -10.5t-14 -39.5v-370q0 -134 -68.5 -207t-191.5 -73q-240 0 -240 280z
M245 782h304v-10h-304v10z" />
    <glyph glyph-name="umacron" unicode="&#x16b;" horiz-adv-x="605" 
d="M440 105v325q0 33 -16.5 39.5t-98.5 10.5v10l160 20h10v-440q0 -33 14 -39.5t81 -10.5v-10l-135 -20h-10v105h-5q-40 -47 -91.5 -76t-104.5 -29q-55 0 -89.5 36t-34.5 114v290q0 33 -14 39.5t-81 10.5v10l140 20h10v-388q0 -45 23 -71t67 -26q95 0 175 80zM170 567h275
v-10h-275v10z" />
    <glyph glyph-name="Ubreve" unicode="&#x16c;" horiz-adv-x="755" 
d="M130 270v370q0 33 -14 39.5t-81 10.5v10h245v-10q-67 -4 -81 -10.5t-14 -39.5v-375q0 -122 54.5 -188.5t160.5 -66.5q100 0 160 66.5t60 188.5v375q0 32 -18.5 39t-101.5 11v10h225v-10q-67 -4 -81 -10.5t-14 -39.5v-370q0 -134 -68.5 -207t-191.5 -73q-240 0 -240 280z
M394 750q-44 0 -73 25t-39 57t-10 69h5q8 -38 38 -63.5t79 -25.5t79 25.5t38 63.5h5q0 -59 -29.5 -105t-92.5 -46z" />
    <glyph glyph-name="ubreve" unicode="&#x16d;" horiz-adv-x="605" 
d="M440 105v325q0 33 -16.5 39.5t-98.5 10.5v10l160 20h10v-440q0 -33 14 -39.5t81 -10.5v-10l-135 -20h-10v105h-5q-40 -47 -91.5 -76t-104.5 -29q-55 0 -89.5 36t-34.5 114v290q0 33 -14 39.5t-81 10.5v10l140 20h10v-388q0 -45 23 -71t67 -26q95 0 175 80zM298 550
q-56 0 -83 40t-27 96h5q17 -79 105 -79q89 0 106 79h5q0 -56 -27.5 -96t-83.5 -40z" />
    <glyph glyph-name="Uring" unicode="&#x16e;" horiz-adv-x="755" 
d="M130 270v370q0 33 -14 39.5t-81 10.5v10h245v-10q-67 -4 -81 -10.5t-14 -39.5v-375q0 -122 54.5 -188.5t160.5 -66.5q100 0 160 66.5t60 188.5v375q0 32 -18.5 39t-101.5 11v10h225v-10q-67 -4 -81 -10.5t-14 -39.5v-370q0 -134 -68.5 -207t-191.5 -73q-240 0 -240 280z
M307 827q0 36 24.5 60.5t59.5 24.5t60 -24.5t25 -60.5q0 -35 -25 -59.5t-60 -24.5t-59.5 24.5t-24.5 59.5zM314 827q0 -33 22 -55t55 -22q34 0 56 22t22 55q0 34 -22 56t-56 22q-33 0 -55 -22t-22 -56z" />
    <glyph glyph-name="uring" unicode="&#x16f;" horiz-adv-x="605" 
d="M440 105v325q0 33 -16.5 39.5t-98.5 10.5v10l160 20h10v-440q0 -33 14 -39.5t81 -10.5v-10l-135 -20h-10v105h-5q-40 -47 -91.5 -76t-104.5 -29q-55 0 -89.5 36t-34.5 114v290q0 33 -14 39.5t-81 10.5v10l140 20h10v-388q0 -45 23 -71t67 -26q95 0 175 80zM214 626
q0 33 22 55t54 22t54.5 -22t22.5 -55q0 -32 -22.5 -54t-54.5 -22t-54 22t-22 54zM221 626q0 -29 20 -49t49 -20q30 0 50 19.5t20 49.5q0 31 -19.5 50.5t-50.5 19.5q-30 0 -49.5 -20t-19.5 -50z" />
    <glyph glyph-name="Uhungarumlaut" unicode="&#x170;" horiz-adv-x="755" 
d="M130 270v370q0 33 -14 39.5t-81 10.5v10h245v-10q-67 -4 -81 -10.5t-14 -39.5v-375q0 -122 54.5 -188.5t160.5 -66.5q100 0 160 66.5t60 188.5v375q0 32 -18.5 39t-101.5 11v10h225v-10q-67 -4 -81 -10.5t-14 -39.5v-370q0 -134 -68.5 -207t-191.5 -73q-240 0 -240 280z
M441 841l-136 -101l-3 3l88 147q11 18 30 20q15 1 27.5 -10t12.5 -26q0 -19 -19 -33zM571 841l-136 -101l-3 3l88 147q11 18 30 20q15 1 27.5 -10t12.5 -26q0 -19 -19 -33z" />
    <glyph glyph-name="uhungarumlaut" unicode="&#x171;" horiz-adv-x="605" 
d="M440 105v325q0 33 -16.5 39.5t-98.5 10.5v10l160 20h10v-440q0 -33 14 -39.5t81 -10.5v-10l-135 -20h-10v105h-5q-40 -47 -91.5 -76t-104.5 -29q-55 0 -89.5 36t-34.5 114v290q0 33 -14 39.5t-81 10.5v10l140 20h10v-388q0 -45 23 -71t67 -26q95 0 175 80zM346 641
l-127 -88l-3 3l83 130q10 16 28 18q14 1 25 -9t11 -24q0 -18 -17 -30zM464 641l-127 -88l-3 3l83 130q10 16 28 18q14 1 25.5 -9t11.5 -24q0 -18 -18 -30z" />
    <glyph glyph-name="Uogonek" unicode="&#x172;" horiz-adv-x="755" 
d="M434 -178v-4q-31 -40 -77 -40q-31 0 -53 24t-22 60q0 64 84 128q-236 3 -236 280v370q0 33 -14 39.5t-81 10.5v10h245v-10q-67 -4 -81 -10.5t-14 -39.5v-375q0 -122 54.5 -188.5t160.5 -66.5q100 0 160 66.5t60 188.5v375q0 32 -18.5 39t-101.5 11v10h225v-10
q-67 -4 -81 -10.5t-14 -39.5v-370q0 -132 -66 -204.5t-185 -75.5q-47 -52 -47 -119q0 -47 32 -61.5t70 12.5z" />
    <glyph glyph-name="uogonek" unicode="&#x173;" horiz-adv-x="605" 
d="M505 -160v-4q-27 -36 -69 -36q-29 0 -49 21.5t-20 54.5q0 56 78 115v104h-5q-40 -47 -91.5 -76t-104.5 -29q-55 0 -89.5 36t-34.5 114v290q0 33 -14 39.5t-81 10.5v10l140 20h10v-388q0 -45 23 -71t67 -26q95 0 175 80v325q0 33 -16.5 39.5t-98.5 10.5v10l160 20h10v-440
q0 -33 14 -39.5t81 -10.5v-10l-135 -20q-41 -44 -41 -97q0 -39 25 -54.5t66 1.5z" />
    <glyph glyph-name="Wcircumflex" unicode="&#x174;" horiz-adv-x="1000" 
d="M681 -5l-159 525l-182 -525h-29l-210 628q-10 31 -28.5 47.5t-62.5 19.5v10h240v-10q-65 -7 -80.5 -22t-4.5 -48l184 -565h2l166 480l-26 88q-9 31 -27.5 47.5t-63.5 19.5v10h240v-10q-64 -7 -79.5 -21.5t-5.5 -48.5l162 -566h2l168 544q18 45 0.5 65t-97.5 27v10h200
v-10q-40 -7 -57.5 -21.5t-27.5 -45.5l-195 -628h-29zM514 841l-127 -101h-2l124 180h9l125 -180h-2z" />
    <glyph glyph-name="wcircumflex" unicode="&#x175;" horiz-adv-x="840" 
d="M585 -5l-150 428l-159 -428h-31l-166 428q-6 17 -10 25t-12.5 19t-21 16.5t-30.5 6.5v10h225v-10q-64 -7 -78 -21.5t-2 -48.5l132 -372h2l171 457h15l151 -457h2l126 372q13 38 -5 50t-89 20v10h180v-10q-29 -4 -44 -16.5t-25 -40.5l-150 -438h-31zM441 640l-115 -90h-2
l113 162h9l113 -162h-2z" />
    <glyph glyph-name="Ycircumflex" unicode="&#x176;" horiz-adv-x="640" 
d="M310 60v176l-199 387q-11 20 -19.5 31.5t-30 22.5t-51.5 13v10h240v-10q-64 -7 -79 -23.5t4 -46.5l182 -363h2l156 341q19 43 -1.5 63.5t-83.5 28.5v10h200v-10q-40 -7 -59.5 -22t-33.5 -45l-172 -376v-187q0 -33 14 -39.5t81 -10.5v-10h-245v10q67 4 81 10.5t14 39.5z
M349 841l-127 -101h-2l124 180h9l125 -180h-2z" />
    <glyph glyph-name="ycircumflex" unicode="&#x177;" horiz-adv-x="540" 
d="M466 433l-166 -428q-20 -52 -47 -92t-53 -63t-54.5 -37t-49.5 -18.5t-41 -4.5q-45 0 -45 36q0 15 9.5 24.5t26.5 9.5q10 0 28 -2.5t30 -2.5q62 0 100.5 24.5t70.5 93.5l-196 450q-27 65 -74 67v10h225v-10q-64 -7 -80 -23.5t0 -46.5l154 -370h2l143 370q15 38 -1.5 50
t-92.5 20v10h180v-10q-29 -4 -43.5 -16t-25.5 -41zM306 640l-115 -90h-2l113 162h9l113 -162h-2z" />
    <glyph glyph-name="Ydieresis" unicode="&#x178;" horiz-adv-x="640" 
d="M193 805q0 22 14 36.5t35 14.5t35.5 -14.5t14.5 -36.5q0 -21 -14.5 -35t-35.5 -14t-35 13.5t-14 35.5zM386 805q0 22 14.5 36.5t35.5 14.5t35 -14.5t14 -36.5t-14 -35.5t-35 -13.5t-35.5 14t-14.5 35zM310 60v176l-199 387q-11 20 -19.5 31.5t-30 22.5t-51.5 13v10h240
v-10q-64 -7 -79 -23.5t4 -46.5l182 -363h2l156 341q19 43 -1.5 63.5t-83.5 28.5v10h200v-10q-40 -7 -59.5 -22t-33.5 -45l-172 -376v-187q0 -33 14 -39.5t81 -10.5v-10h-245v10q67 4 81 10.5t14 39.5z" />
    <glyph glyph-name="Zacute" unicode="&#x179;" horiz-adv-x="570" 
d="M530 690l-438 -680h293q57 0 97 43.5t48 106.5h10l-10 -160h-500v10l439 680h-272q-57 0 -89 -38.5t-48 -111.5h-10l5 160h475v-10zM415 841l-136 -101l-2 2l87 148q11 18 30 20q15 1 27.5 -10t12.5 -26q0 -19 -19 -33z" />
    <glyph glyph-name="zacute" unicode="&#x17a;" horiz-adv-x="475" 
d="M93 10h232q42 0 68.5 33t41.5 107h10l-15 -150h-400v10l332 480h-207q-39 0 -61.5 -34t-38.5 -106h-10l10 150h370v-10zM360 641l-126 -89l-4 4l83 130q10 16 28 18q14 1 25 -9t11 -24q0 -18 -17 -30z" />
    <glyph glyph-name="Zdotaccent" unicode="&#x17b;" horiz-adv-x="570" 
d="M530 690l-438 -680h293q57 0 97 43.5t48 106.5h10l-10 -160h-500v10l439 680h-272q-57 0 -89 -38.5t-48 -111.5h-10l5 160h475v-10zM251 805q0 22 14 36.5t35 14.5t35.5 -14.5t14.5 -36.5q0 -21 -14.5 -35t-35.5 -14t-35 13.5t-14 35.5z" />
    <glyph glyph-name="zdotaccent" unicode="&#x17c;" horiz-adv-x="475" 
d="M93 10h232q42 0 68.5 33t41.5 107h10l-15 -150h-400v10l332 480h-207q-39 0 -61.5 -34t-38.5 -106h-10l10 150h370v-10zM198 599q0 22 14 36.5t35 14.5t35.5 -14.5t14.5 -36.5q0 -21 -14.5 -35t-35.5 -14t-35 13.5t-14 35.5z" />
    <glyph glyph-name="Zcaron" unicode="&#x17d;" horiz-adv-x="570" 
d="M178 920l127 -101l127 101h2l-125 -180h-9l-124 180h2zM530 690l-438 -680h293q57 0 97 43.5t48 106.5h10l-10 -160h-500v10l439 680h-272q-57 0 -89 -38.5t-48 -111.5h-10l5 160h475v-10z" />
    <glyph glyph-name="zcaron" unicode="&#x17e;" horiz-adv-x="475" 
d="M93 10h232q42 0 68.5 33t41.5 107h10l-15 -150h-400v10l332 480h-207q-39 0 -61.5 -34t-38.5 -106h-10l10 150h370v-10zM134 712l115 -90l116 90h2l-113 -162h-9l-113 162h2z" />
    <glyph glyph-name="uni018F" unicode="&#x18f;" horiz-adv-x="665" 
d="M279 -10q-41 0 -79 11t-71.5 34t-53.5 65t-20 99q0 45 14 84h480q2 24 2 37q0 161 -80.5 257.5t-208.5 96.5q-44 0 -82.5 -11.5t-58.5 -23t-46 -30.5l-4 7q101 94 222 94q148 0 232.5 -103t84.5 -252q0 -170 -96.5 -267.5t-234.5 -97.5zM286 0q103 0 175.5 78t86.5 195
h-402q-13 -46 -13 -104q2 -76 44.5 -122.5t108.5 -46.5z" />
    <glyph glyph-name="florin" unicode="&#x192;" horiz-adv-x="340" 
d="M237 490l-50 -470q-11 -107 -56 -168.5t-98 -61.5q-42 0 -42 32q0 15 11 26.5t28 11.5q13 0 33.5 -20t25.5 -20q22 0 34 110l59 560h-96l1 5l96 5l4 40q3 33 14 64t31.5 60.5t55.5 47.5t79 18q39 0 65.5 -19.5t26.5 -49.5q0 -27 -13 -39t-30 -12q-29 0 -29 23
q0 10 9.5 22t9.5 23q0 17 -13.5 29.5t-32.5 12.5q-100 0 -118 -180l-4 -40h130l-2 -10h-129z" />
    <glyph glyph-name="AEacute" unicode="&#x1fc;" horiz-adv-x="923" 
d="M368 10q67 4 81 10.5t14 39.5v200h-218l-83 -158q-28 -50 -16 -67t74 -25v-10h-200v10q89 16 117 67l332 623h394l5 -160h-10q-17 72 -47.5 111t-87.5 39h-205v-330h125q52 0 77.5 25.5t32.5 84.5h10v-230h-10q-7 59 -32.5 84.5t-77.5 25.5h-125v-340h195q125 0 155 150
h10l-10 -160h-500v10zM463 667h-2l-210 -397h212v397zM660 841l-136 -101l-2 2l87 148q11 18 30 20q15 1 27.5 -10t12.5 -26q0 -19 -19 -33z" />
    <glyph glyph-name="aeacute" unicode="&#x1fd;" horiz-adv-x="785" 
d="M575 510q67 0 116 -36.5t49 -115.5q0 -33 -10 -60h-339q-1 -9 -1 -28q0 -114 55.5 -182t144.5 -68q72 0 136 47l4 -7q-77 -70 -165 -70q-129 0 -192 105q-75 -59 -120 -82t-88 -23q-56 0 -85.5 31t-29.5 79q0 26 11 47.5t40 44t88 39t146 24.5v95q0 140 -120 140
q-47 0 -78.5 -23.5t-31.5 -50.5q0 -12 17.5 -27.5t17.5 -28.5t-10.5 -21.5t-26.5 -8.5t-27 10t-11 30q0 42 51.5 91t138.5 49q107 0 130 -97q33 47 83 72t107 25zM570 500q-67 0 -117 -55.5t-61 -136.5h277q6 24 6 74q-3 118 -105 118zM195 20q64 0 173 85q-33 60 -33 140
q-129 -15 -179.5 -48.5t-50.5 -86.5q0 -41 22 -65.5t68 -24.5zM517 641l-126 -89l-4 4l83 130q10 16 28 18q14 1 25 -9t11 -24q0 -18 -17 -30z" />
    <glyph glyph-name="Oslashacute" unicode="&#x1fe;" horiz-adv-x="770" 
d="M528 841l-136 -101l-2 2l87 148q11 18 30 20q15 1 27.5 -10t12.5 -26q0 -19 -19 -33zM385 -10q142 0 236 101.5t94 258.5q0 112 -51 199t-137 129l26 62h-10l-24 -58q-64 28 -134 28q-142 0 -236 -101.5t-94 -258.5q0 -113 51 -200.5t138 -128.5l-25 -61h11l23 56
q61 -26 132 -26zM385 700q66 0 125 -39l-257 -618q-63 43 -100.5 123.5t-37.5 183.5q0 153 80 251.5t190 98.5zM385 0q-66 0 -123 37l256 619q62 -44 99.5 -124t37.5 -182q0 -153 -80 -251.5t-190 -98.5z" />
    <glyph glyph-name="oslashacute" unicode="&#x1ff;" horiz-adv-x="550" 
d="M385 641l-126 -89l-4 4l83 130q10 16 28 18q14 1 25 -9t11 -24q0 -18 -17 -30zM275 -10q103 0 166.5 74.5t63.5 185.5q0 80 -35.5 144t-96.5 94l20 52h-10l-19 -48q-44 18 -89 18q-103 0 -166.5 -74.5t-63.5 -185.5q0 -81 35.5 -145.5t97.5 -94.5l-19 -50h11l18 46
q42 -16 87 -16zM275 500q46 0 83 -26l-172 -444q-81 62 -81 220q0 113 46 181.5t124 68.5zM275 0q-46 0 -81 23l171 445q80 -63 80 -218q0 -113 -46 -181.5t-124 -68.5z" />
    <glyph glyph-name="Scommaaccent" unicode="&#x218;" horiz-adv-x="535" 
d="M269 -30q34 0 49.5 -23t15.5 -57q0 -76 -91 -125l-4 7q60 34 60 62q0 6 -0.5 10t-8 10t-21.5 6q-24 0 -39.5 16.5t-15.5 38.5q0 24 16.5 39.5t38.5 15.5zM465 505h-10q-19 89 -69.5 142t-115.5 53q-67 0 -106 -34t-39 -91q0 -48 26.5 -84.5t65.5 -58l85.5 -46t85.5 -47.5
t65.5 -64t26.5 -95q0 -85 -58 -137.5t-157 -52.5q-108 0 -200 50l-10 170h10q9 -61 31.5 -104t53 -65t60 -31.5t60.5 -9.5q74 0 114.5 43.5t40.5 116.5q0 58 -36.5 98t-88.5 64.5l-104.5 49t-89 66.5t-36.5 102q0 71 53.5 120.5t151.5 49.5q97 0 180 -45z" />
    <glyph glyph-name="scommaaccent" unicode="&#x219;" horiz-adv-x="425" 
d="M360 350h-10q-3 58 -48.5 104t-94.5 46q-52 0 -79.5 -25.5t-27.5 -66.5t29 -68t70 -42.5l82 -32t70 -48.5t29 -80q0 -69 -49 -108t-126 -39t-147 35l-13 135h10q17 -83 60 -121.5t93 -38.5q55 0 86 31t31 77q0 42 -28.5 70t-68.5 44l-80.5 32.5t-69 47t-28.5 76.5
q0 59 46.5 95.5t118.5 36.5t137 -31zM213 -30q34 0 49.5 -23t15.5 -57q0 -76 -91 -125l-4 7q60 34 60 62q0 6 -0.5 10t-8 10t-21.5 6q-24 0 -39.5 16.5t-15.5 38.5q0 24 16.5 39.5t38.5 15.5z" />
    <glyph glyph-name="uni021A" unicode="&#x21a;" horiz-adv-x="575" 
d="M286 -30q34 0 49.5 -23t15.5 -57q0 -76 -91 -125l-4 7q60 34 60 62q0 6 -0.5 10t-8 10t-21.5 6q-24 0 -39.5 16.5t-15.5 38.5q0 24 16.5 39.5t38.5 15.5zM30 540l5 160h505l5 -160h-10q-17 72 -47.5 111t-87.5 39h-85v-630q0 -33 14 -39.5t81 -10.5v-10h-245v10
q67 4 81 10.5t14 39.5v630h-85q-57 0 -87.5 -39t-47.5 -111h-10z" />
    <glyph glyph-name="uni021B" unicode="&#x21b;" horiz-adv-x="355" 
d="M175 490v-386q0 -96 65 -96q33 0 92 40l3 -8q-64 -50 -122 -50q-48 0 -70.5 28.5t-22.5 91.5v380h-95v5l95 5l45 150h10v-150h145v-10h-145zM191 -30q34 0 49.5 -23t15.5 -57q0 -76 -91 -125l-4 7q60 34 60 62q0 6 -0.5 10t-8 10t-21.5 6q-24 0 -39.5 16.5t-15.5 38.5
q0 24 16.5 39.5t38.5 15.5z" />
    <glyph glyph-name="dotlessj" unicode="&#x237;" horiz-adv-x="275" 
d="M175 510v-490q0 -107 -38 -168.5t-92 -61.5q-45 0 -45 36q0 14 9.5 24t25.5 10q13 0 34 -17.5t26 -17.5q8 0 13 5t8.5 23t3.5 52v525q0 33 -14 39.5t-81 10.5v10l140 20h10z" />
    <glyph glyph-name="uni0259" unicode="&#x259;" horiz-adv-x="495" 
d="M210 -10q-67 0 -116 36.5t-49 115.5q0 33 10 60h338q2 18 2 28q0 114 -55.5 182t-144.5 68q-72 0 -136 -47l-4 7q77 70 165 70q108 0 169 -74t61 -181q0 -122 -70.5 -193.5t-169.5 -71.5zM215 0q64 0 115.5 54.5t61.5 137.5h-276q-6 -24 -6 -74q3 -118 105 -118z" />
    <glyph glyph-name="hsuperior" unicode="&#x2b0;" horiz-adv-x="373" 
d="M20 400v6q37 2 45 6t8 23v355q0 19 -8 23.5t-45 6.5v6l92 12h6l-3 -195h3q54 63 116 63q34 0 55 -21.5t21 -68.5v-181q0 -19 8 -23t45 -6v-6h-140v6q29 2 35.5 6t6.5 23v183q0 64 -61 64q-39 0 -86 -45v-202q0 -19 8 -23t45 -6v-6h-151z" />
    <glyph glyph-name="jsuperior" unicode="&#x2b2;" horiz-adv-x="168" 
d="M113 706v-290q0 -66 -26.5 -104t-61.5 -38q-30 0 -30 24q0 9 6 15.5t17 6.5q10 0 22 -13t15 -13q13 0 13 58v306q0 19 -8.5 23.5t-44.5 6.5v6l92 12h6zM54 777q0 14 10 23.5t25 9.5q14 0 24 -9.5t10 -23.5t-10 -23t-24 -9q-15 0 -25 9t-10 23z" />
    <glyph glyph-name="wsuperior" unicode="&#x2b7;" horiz-adv-x="511" 
d="M350 397l-90 249l-88 -249h-25l-100 259q-5 13 -8.5 19t-12 12t-21.5 7v6h143v-6q-36 -4 -44.5 -13.5t-1.5 -28.5l76 -214h1l96 265h14l92 -265h1l72 214q7 21 -4 29t-54 13v6h110v-6q-18 -2 -27.5 -10t-14.5 -26l-89 -261h-25z" />
    <glyph glyph-name="ysuperior" unicode="&#x2b8;" horiz-adv-x="331" 
d="M284 658l-97 -252q-29 -74 -70 -103t-79 -29q-30 0 -30 24q0 22 23 22q7 0 19 -4t21 -4q34 0 56 14t41 52l-120 276q-18 39 -43 40v6h143v-6q-36 -4 -45.5 -14.5t0.5 -27.5l88 -214h1l83 214q8 22 -2.5 30t-55.5 12v6h109v-6q-17 -2 -26 -10t-16 -26z" />
    <glyph glyph-name="circumflex" unicode="&#x2c6;" horiz-adv-x="435" 
d="M217 640l-115 -90h-2l113 162h9l113 -162h-2z" />
    <glyph glyph-name="caron" unicode="&#x2c7;" horiz-adv-x="435" 
d="M102 712l115 -90l116 90h2l-113 -162h-9l-113 162h2z" />
    <glyph glyph-name="uni02C9" unicode="&#x2c9;" horiz-adv-x="475" 
d="M100 567h275v-10h-275v10z" />
    <glyph glyph-name="breve" unicode="&#x2d8;" horiz-adv-x="421" 
d="M210 550q-56 0 -83 40t-27 96h5q17 -79 105 -79q89 0 106 79h5q0 -56 -27.5 -96t-83.5 -40z" />
    <glyph glyph-name="dotaccent" unicode="&#x2d9;" horiz-adv-x="299" 
d="M100 599q0 22 14 36.5t35 14.5t35.5 -14.5t14.5 -36.5q0 -21 -14.5 -35t-35.5 -14t-35 13.5t-14 35.5z" />
    <glyph glyph-name="ring" unicode="&#x2da;" horiz-adv-x="353" 
d="M100 626q0 33 22 55t54 22t54.5 -22t22.5 -55q0 -32 -22.5 -54t-54.5 -22t-54 22t-22 54zM107 626q0 -29 20 -49t49 -20q30 0 50 19.5t20 49.5q0 31 -19.5 50.5t-50.5 19.5q-30 0 -49.5 -20t-19.5 -50z" />
    <glyph glyph-name="ogonek" unicode="&#x2db;" horiz-adv-x="338" 
d="M238 -160v-4q-27 -36 -69 -36q-29 0 -49 21.5t-20 54.5q0 58 90 124h8q-51 -48 -51 -107q0 -39 25.5 -54.5t65.5 1.5z" />
    <glyph glyph-name="tilde" unicode="&#x2dc;" horiz-adv-x="507" 
d="M104 544l-4 2l16.5 33t17 27.5t25 26.5t27.5 8q18 0 82.5 -18t81.5 -18q29 0 52 35l5 -4q-29 -58 -47 -73q-16 -13 -35 -13q-21 0 -84 18t-84 18q-23 0 -53 -42z" />
    <glyph glyph-name="hungarumlaut" unicode="&#x2dd;" horiz-adv-x="466" 
d="M230 641l-127 -88l-3 3l83 130q10 16 28 18q14 1 25 -9t11 -24q0 -18 -17 -30zM348 641l-127 -88l-3 3l83 130q10 16 28 18q14 1 25.5 -9t11.5 -24q0 -18 -18 -30z" />
    <glyph glyph-name="xsuperior" unicode="&#x2e3;" horiz-adv-x="339" 
d="M208 452l-55 86l-70 -93q-6 -10 -6.5 -18t11.5 -14t38 -7v-6h-111v6q23 4 34.5 11.5t23.5 23.5l76 103l-72 115q-11 17 -21 24t-35 11v6h138v-6q-25 -5 -30.5 -13.5t6.5 -29.5l52 -83l60 81q32 41 -37 45v6h108v-6q-22 -4 -33 -11.5t-24 -25.5l-70 -95l76 -120
q19 -29 57 -36v-6h-143v6q52 8 27 46z" />
    <glyph glyph-name="uni037E" unicode="&#x37e;" horiz-adv-x="299" 
d="M100 345q0 22 14 36.5t35 14.5t35.5 -14.5t14.5 -36.5q0 -21 -14.5 -35t-35.5 -14t-35 13.5t-14 35.5z" />
    <glyph glyph-name="Delta" unicode="&#x394;" horiz-adv-x="694" 
d="M94 10h450l-222 637h-2zM614 0h-534l250 705h29z" />
    <glyph glyph-name="Delta" unicode="&#x2206;" horiz-adv-x="694" 
d="M94 10h450l-222 637h-2zM614 0h-534l250 705h29z" />
    <glyph glyph-name="Omega" unicode="&#x3a9;" horiz-adv-x="780" 
d="M390 700q-108 0 -179 -80t-71 -210q0 -106 49.5 -178.5t134.5 -93.5v-138h-259l-10 160h10q7 -57 44 -79t99 -22h106v73q-106 23 -172.5 96t-66.5 182q0 135 87 217.5t228 82.5t228 -82.5t87 -217.5q0 -109 -66.5 -182t-172.5 -96v-73h106q62 0 99 22t44 79h10l-10 -160
h-259v138q85 21 134.5 93.5t49.5 178.5q0 130 -71 210t-179 80z" />
    <glyph glyph-name="Omega" unicode="&#x2126;" horiz-adv-x="780" 
d="M390 700q-108 0 -179 -80t-71 -210q0 -106 49.5 -178.5t134.5 -93.5v-138h-259l-10 160h10q7 -57 44 -79t99 -22h106v73q-106 23 -172.5 96t-66.5 182q0 135 87 217.5t228 82.5t228 -82.5t87 -217.5q0 -109 -66.5 -182t-172.5 -96v-73h106q62 0 99 22t44 79h10l-10 -160
h-259v138q85 21 134.5 93.5t49.5 178.5q0 130 -71 210t-179 80z" />
    <glyph glyph-name="uni03BC" unicode="&#x3bc;" horiz-adv-x="605" 
d="M440 105v325q0 33 -16.5 39.5t-98.5 10.5v10l160 20h10v-440q0 -33 14 -39.5t81 -10.5v-10l-135 -20h-10v105h-5q-40 -47 -91.5 -76t-104.5 -29q-43 0 -74 22q-1 -104 -37 -163t-88 -59q-45 0 -45 36q0 14 9.5 24t25.5 10q13 0 34 -17.5t26 -17.5q8 0 13 5t8.5 23t3.5 52
v525q0 33 -14 39.5t-81 10.5v10l140 20h10v-388q0 -45 23 -71t67 -26q95 0 175 80z" />
    <glyph glyph-name="pi" unicode="&#x3c0;" horiz-adv-x="620" 
d="M455 490h-270v-430q0 -33 14 -39.5t81 -10.5v-10h-245v10q67 4 81 10.5t14 39.5v380q0 33 -14 39.5t-81 10.5v10h570v-10q-67 -4 -81 -10.5t-14 -39.5v-380q0 -33 14 -39.5t81 -10.5v-10h-245v10q67 4 81 10.5t14 39.5v430z" />
    <glyph glyph-name="uni03C2" unicode="&#x3c2;" horiz-adv-x="552" 
d="M128 249q0 68 46 114l-74 90l8 8l74 -90q43 36 95 36t93 -36l74 90l8 -8l-73 -89q47 -47 47 -115q0 -69 -47 -114l72 -86l-8 -9l-73 87q-40 -35 -93 -35q-54 0 -95 35l-71 -87l-9 9l72 86q-46 46 -46 114zM140 249q0 -59 40.5 -102t96.5 -43t96.5 43t40.5 102
t-40.5 102.5t-96.5 43.5t-96.5 -43.5t-40.5 -102.5z" />
    <glyph glyph-name="sigma" unicode="&#x3c3;" horiz-adv-x="552" 
d="M128 249q0 68 46 114l-74 90l8 8l74 -90q43 36 95 36t93 -36l74 90l8 -8l-73 -89q47 -47 47 -115q0 -69 -47 -114l72 -86l-8 -9l-73 87q-40 -35 -93 -35q-54 0 -95 35l-71 -87l-9 9l72 86q-46 46 -46 114zM140 249q0 -59 40.5 -102t96.5 -43t96.5 43t40.5 102
t-40.5 102.5t-96.5 43.5t-96.5 -43.5t-40.5 -102.5z" />
    <glyph glyph-name="Wgrave" unicode="&#x1e80;" horiz-adv-x="1000" 
d="M681 -5l-159 525l-182 -525h-29l-210 628q-10 31 -28.5 47.5t-62.5 19.5v10h240v-10q-65 -7 -80.5 -22t-4.5 -48l184 -565h2l166 480l-26 88q-9 31 -27.5 47.5t-63.5 19.5v10h240v-10q-64 -7 -79.5 -21.5t-5.5 -48.5l162 -566h2l168 544q18 45 0.5 65t-97.5 27v10h200
v-10q-40 -7 -57.5 -21.5t-27.5 -45.5l-195 -628h-29zM514 740l-136 101q-19 14 -19 33q0 15 12.5 26t27.5 10q19 -2 30 -20l87 -148z" />
    <glyph glyph-name="wgrave" unicode="&#x1e81;" horiz-adv-x="840" 
d="M585 -5l-150 428l-159 -428h-31l-166 428q-6 17 -10 25t-12.5 19t-21 16.5t-30.5 6.5v10h225v-10q-64 -7 -78 -21.5t-2 -48.5l132 -372h2l171 457h15l151 -457h2l126 372q13 38 -5 50t-89 20v10h180v-10q-29 -4 -44 -16.5t-25 -40.5l-150 -438h-31zM440 552l-126 89
q-17 12 -17 30q0 14 11 24t25 9q18 -2 28 -18l83 -130z" />
    <glyph glyph-name="Wacute" unicode="&#x1e82;" horiz-adv-x="1000" 
d="M681 -5l-159 525l-182 -525h-29l-210 628q-10 31 -28.5 47.5t-62.5 19.5v10h240v-10q-65 -7 -80.5 -22t-4.5 -48l184 -565h2l166 480l-26 88q-9 31 -27.5 47.5t-63.5 19.5v10h240v-10q-64 -7 -79.5 -21.5t-5.5 -48.5l162 -566h2l168 544q18 45 0.5 65t-97.5 27v10h200
v-10q-40 -7 -57.5 -21.5t-27.5 -45.5l-195 -628h-29zM645 841l-136 -101l-2 2l87 148q11 18 30 20q15 1 27.5 -10t12.5 -26q0 -19 -19 -33z" />
    <glyph glyph-name="wacute" unicode="&#x1e83;" horiz-adv-x="840" 
d="M585 -5l-150 428l-159 -428h-31l-166 428q-6 17 -10 25t-12.5 19t-21 16.5t-30.5 6.5v10h225v-10q-64 -7 -78 -21.5t-2 -48.5l132 -372h2l171 457h15l151 -457h2l126 372q13 38 -5 50t-89 20v10h180v-10q-29 -4 -44 -16.5t-25 -40.5l-150 -438h-31zM566 641l-126 -89
l-4 4l83 130q10 16 28 18q14 1 25 -9t11 -24q0 -18 -17 -30z" />
    <glyph glyph-name="Wdieresis" unicode="&#x1e84;" horiz-adv-x="1000" 
d="M681 -5l-159 525l-182 -525h-29l-210 628q-10 31 -28.5 47.5t-62.5 19.5v10h240v-10q-65 -7 -80.5 -22t-4.5 -48l184 -565h2l166 480l-26 88q-9 31 -27.5 47.5t-63.5 19.5v10h240v-10q-64 -7 -79.5 -21.5t-5.5 -48.5l162 -566h2l168 544q18 45 0.5 65t-97.5 27v10h200
v-10q-40 -7 -57.5 -21.5t-27.5 -45.5l-195 -628h-29zM374 805q0 22 14 36.5t35 14.5t35.5 -14.5t14.5 -36.5q0 -21 -14.5 -35t-35.5 -14t-35 13.5t-14 35.5zM567 805q0 22 14.5 36.5t35.5 14.5t35 -14.5t14 -36.5t-14 -35.5t-35 -13.5t-35.5 14t-14.5 35z" />
    <glyph glyph-name="wdieresis" unicode="&#x1e85;" horiz-adv-x="840" 
d="M585 -5l-150 428l-159 -428h-31l-166 428q-6 17 -10 25t-12.5 19t-21 16.5t-30.5 6.5v10h225v-10q-64 -7 -78 -21.5t-2 -48.5l132 -372h2l171 457h15l151 -457h2l126 372q13 38 -5 50t-89 20v10h180v-10q-29 -4 -44 -16.5t-25 -40.5l-150 -438h-31zM314 595q0 20 12.5 33
t32.5 13q19 0 32.5 -13t13.5 -33t-13.5 -32.5t-32.5 -12.5q-20 0 -32.5 12.5t-12.5 32.5zM488 595q0 20 13 33t33 13q19 0 31.5 -13t12.5 -33t-12.5 -32.5t-31.5 -12.5q-20 0 -33 12.5t-13 32.5z" />
    <glyph glyph-name="Ygrave" unicode="&#x1ef2;" horiz-adv-x="640" 
d="M310 60v176l-199 387q-11 20 -19.5 31.5t-30 22.5t-51.5 13v10h240v-10q-64 -7 -79 -23.5t4 -46.5l182 -363h2l156 341q19 43 -1.5 63.5t-83.5 28.5v10h200v-10q-40 -7 -59.5 -22t-33.5 -45l-172 -376v-187q0 -33 14 -39.5t81 -10.5v-10h-245v10q67 4 81 10.5t14 39.5z
M359 740l-136 101q-19 14 -19 33q0 15 12.5 26t27.5 10q19 -2 30 -20l87 -148z" />
    <glyph glyph-name="ygrave" unicode="&#x1ef3;" horiz-adv-x="540" 
d="M466 433l-166 -428q-20 -52 -47 -92t-53 -63t-54.5 -37t-49.5 -18.5t-41 -4.5q-45 0 -45 36q0 15 9.5 24.5t26.5 9.5q10 0 28 -2.5t30 -2.5q62 0 100.5 24.5t70.5 93.5l-196 450q-27 65 -74 67v10h225v-10q-64 -7 -80 -23.5t0 -46.5l154 -370h2l143 370q15 38 -1.5 50
t-92.5 20v10h180v-10q-29 -4 -43.5 -16t-25.5 -41zM304 552l-126 89q-17 12 -17 30q0 14 11 24t25 9q18 -2 28 -18l83 -130z" />
    <glyph glyph-name="thinspace" unicode="&#x2009;" horiz-adv-x="10" 
 />
    <glyph glyph-name="figuredash" unicode="&#x2012;" horiz-adv-x="534" 
d="M60 273h414v-10h-414v10z" />
    <glyph glyph-name="endash" unicode="&#x2013;" horiz-adv-x="534" 
d="M60 273h414v-10h-414v10z" />
    <glyph glyph-name="emdash" unicode="&#x2014;" horiz-adv-x="634" 
d="M60 273h514v-10h-514v10z" />
    <glyph glyph-name="quoteleft" unicode="&#x2018;" horiz-adv-x="300" 
d="M155 465q-34 0 -49.5 23t-15.5 57q0 113 111 165l5 -12q-37 -17 -63.5 -45.5t-26.5 -50.5q0 -14 13 -20.5t26 -6.5q24 0 39.5 -16.5t15.5 -38.5q0 -24 -16.5 -39.5t-38.5 -15.5z" />
    <glyph glyph-name="quoteright" unicode="&#x2019;" horiz-adv-x="300" 
d="M145 710q34 0 49.5 -23t15.5 -57q0 -113 -111 -165l-5 12q37 17 63.5 45.5t26.5 50.5q0 14 -13 20.5t-26 6.5q-24 0 -39.5 16.5t-15.5 38.5q0 24 16.5 39.5t38.5 15.5z" />
    <glyph glyph-name="quotesinglbase" unicode="&#x201a;" horiz-adv-x="300" 
d="M145 105q34 0 49.5 -23t15.5 -57q0 -113 -111 -165l-5 12q37 17 63.5 45.5t26.5 50.5q0 14 -13 20.5t-26 6.5q-24 0 -39.5 16.5t-15.5 38.5q0 24 16.5 39.5t38.5 15.5z" />
    <glyph glyph-name="quotedblleft" unicode="&#x201c;" horiz-adv-x="460" 
d="M315 465q-34 0 -49.5 23t-15.5 57q0 113 111 165l5 -12q-37 -17 -63.5 -45.5t-26.5 -50.5q0 -14 13 -20.5t26 -6.5q24 0 39.5 -16.5t15.5 -38.5q0 -24 -16.5 -39.5t-38.5 -15.5zM155 465q-34 0 -49.5 23t-15.5 57q0 113 111 165l5 -12q-37 -17 -63.5 -45.5t-26.5 -50.5
q0 -14 13 -20.5t26 -6.5q24 0 39.5 -16.5t15.5 -38.5q0 -24 -16.5 -39.5t-38.5 -15.5z" />
    <glyph glyph-name="quotedblright" unicode="&#x201d;" horiz-adv-x="460" 
d="M145 710q34 0 49.5 -23t15.5 -57q0 -113 -111 -165l-5 12q37 17 63.5 45.5t26.5 50.5q0 14 -13 20.5t-26 6.5q-24 0 -39.5 16.5t-15.5 38.5q0 24 16.5 39.5t38.5 15.5zM305 710q34 0 49.5 -23t15.5 -57q0 -113 -111 -165l-5 12q37 17 63.5 45.5t26.5 50.5q0 14 -13 20.5
t-26 6.5q-24 0 -39.5 16.5t-15.5 38.5q0 24 16.5 39.5t38.5 15.5z" />
    <glyph glyph-name="quotedblbase" unicode="&#x201e;" horiz-adv-x="460" 
d="M145 105q34 0 49.5 -23t15.5 -57q0 -113 -111 -165l-5 12q37 17 63.5 45.5t26.5 50.5q0 14 -13 20.5t-26 6.5q-24 0 -39.5 16.5t-15.5 38.5q0 24 16.5 39.5t38.5 15.5zM305 105q34 0 49.5 -23t15.5 -57q0 -113 -111 -165l-5 12q37 17 63.5 45.5t26.5 50.5q0 14 -13 20.5
t-26 6.5q-24 0 -39.5 16.5t-15.5 38.5q0 24 16.5 39.5t38.5 15.5z" />
    <glyph glyph-name="dagger" unicode="&#x2020;" 
d="M302 360h-4q-27 66 -59 104.5t-59 38.5q-16 0 -28 -16.5t-26 -33t-32 -16.5q-14 0 -24 9t-10 22q0 29 30 45.5t65 16.5q41 0 78 -39t62 -106q-31 265 -31 285q0 40 36 40t36 -40q0 -21 -6 -73.5l-14 -119l-11 -92.5q32 74 65.5 109.5t74.5 35.5q35 0 65 -16.5t30 -45.5
q0 -13 -10 -22t-24 -9q-19 0 -32.5 16.5t-25.5 33t-28 16.5q-27 0 -59 -38.5t-59 -104.5zM302 -10h-4q0 35 -17 155t-17 155q0 40 36 40t36 -40q0 -35 -17 -155t-17 -155z" />
    <glyph glyph-name="daggerdbl" unicode="&#x2021;" 
d="M302 360h-4q-27 66 -59 104.5t-59 38.5q-16 0 -28 -16.5t-26 -33t-32 -16.5q-14 0 -24 9t-10 22q0 29 30 45.5t65 16.5q41 0 78 -39t62 -106q-31 265 -31 285q0 40 36 40t36 -40q0 -21 -6 -73.5l-14 -119l-11 -92.5q32 74 65.5 109.5t74.5 35.5q35 0 65 -16.5t30 -45.5
q0 -13 -10 -22t-24 -9q-19 0 -32.5 16.5t-25.5 33t-28 16.5q-27 0 -59 -38.5t-59 -104.5zM302 340h-4q-27 -66 -59 -104.5t-59 -38.5q-16 0 -28 16.5t-26 33t-32 16.5q-14 0 -24 -9t-10 -22q0 -29 30 -45.5t65 -16.5q41 0 78 39t62 106q-31 -265 -31 -285q0 -40 36 -40
t36 40q0 21 -6 73.5l-14 119l-11 92.5q32 -74 65.5 -109.5t74.5 -35.5q35 0 65 16.5t30 45.5q0 13 -10 22t-24 9q-19 0 -32.5 -16.5t-25.5 -33t-28 -16.5q-27 0 -59 38.5t-59 104.5z" />
    <glyph glyph-name="bullet" unicode="&#x2022;" horiz-adv-x="339" 
d="M90 326q0 34 23 57t56 23q34 0 57 -23t23 -57q0 -33 -23 -56t-57 -23q-33 0 -56 23t-23 56z" />
    <glyph glyph-name="onedotenleader" unicode="&#x2024;" horiz-adv-x="290" 
d="M90 50q0 23 16 39t39 16t39 -16t16 -39t-16 -39t-39 -16t-39 16t-16 39z" />
    <glyph glyph-name="twodotenleader" unicode="&#x2025;" horiz-adv-x="460" 
d="M90 50q0 23 16 39t39 16t39 -16t16 -39t-16 -39t-39 -16t-39 16t-16 39zM260 50q0 23 16 39t39 16t39 -16t16 -39t-16 -39t-39 -16t-39 16t-16 39z" />
    <glyph glyph-name="ellipsis" unicode="&#x2026;" horiz-adv-x="630" 
d="M90 50q0 23 16 39t39 16t39 -16t16 -39t-16 -39t-39 -16t-39 16t-16 39zM260 50q0 23 16 39t39 16t39 -16t16 -39t-16 -39t-39 -16t-39 16t-16 39zM430 50q0 23 16 39t39 16t39 -16t16 -39t-16 -39t-39 -16t-39 16t-16 39z" />
    <glyph glyph-name="perthousand" unicode="&#x2030;" horiz-adv-x="1084" 
d="M532 700h11l-322 -700h-12zM406 145q2 66 42 110.5t103 44.5q60 0 99.5 -45t37.5 -110q-2 -66 -42.5 -110.5t-103.5 -44.5q-59 0 -98 45t-38 110zM446 145q0 -68 27.5 -109t73.5 -41t73 41t27 109t-27 109t-73 41t-73.5 -41t-27.5 -109zM66 555q2 66 42 110.5t103 44.5
q60 0 99.5 -45t37.5 -110q-2 -66 -42.5 -110.5t-103.5 -44.5q-59 0 -98 45t-38 110zM106 555q0 -68 27.5 -109t73.5 -41t73 41t27 109t-27 109t-73 41t-73.5 -41t-27.5 -109zM736 145q2 66 42 110.5t103 44.5q60 0 99.5 -45t37.5 -110q-2 -66 -42.5 -110.5t-103.5 -44.5
q-59 0 -98 45t-38 110zM776 145q0 -68 27.5 -109t73.5 -41t73 41t27 109t-27 109t-73 41t-73.5 -41t-27.5 -109z" />
    <glyph glyph-name="guilsinglleft" unicode="&#x2039;" horiz-adv-x="474" 
d="M374 445l-183 -176l183 -179v-11l-274 181v17l274 180v-12z" />
    <glyph glyph-name="guilsinglright" unicode="&#x203a;" horiz-adv-x="474" 
d="M283 269l-183 176v12l274 -180v-17l-274 -181v11z" />
    <glyph glyph-name="exclamdbl" unicode="&#x203c;" horiz-adv-x="510" 
d="M161 160h-10q-2 93 -16.5 296.5t-14.5 233.5q0 40 36 40t36 -40q0 -26 -15 -230t-16 -300zM100 50q0 23 16 39t39 16t39 -16t16 -39t-16 -39t-39 -16t-39 16t-16 39zM361 160h-10q-2 93 -16.5 296.5t-14.5 233.5q0 40 36 40t36 -40q0 -26 -15 -230t-16 -300zM300 50
q0 23 16 39t39 16t39 -16t16 -39t-16 -39t-39 -16t-39 16t-16 39z" />
    <glyph glyph-name="fraction" unicode="&#x2044;" horiz-adv-x="413" 
d="M334 710h9l-263 -720h-10z" />
    <glyph glyph-name="zerosuperior" unicode="&#x2070;" horiz-adv-x="344" 
d="M30 605q0 81 39 141t103 60q63 0 102.5 -60t39.5 -141t-39.5 -141t-102.5 -60q-64 0 -103 60t-39 141zM265 605q0 90 -25 142.5t-68 52.5t-68 -52.5t-25 -142.5t25 -142.5t68 -52.5t68 52.5t25 142.5z" />
    <glyph glyph-name="foursuperior" unicode="&#x2074;" horiz-adv-x="351" 
d="M260 410h-46v111h-184v6l224 279h6v-279h61v-6h-61v-111zM214 527v221l-177 -221h177z" />
    <glyph glyph-name="fivesuperior" unicode="&#x2075;" horiz-adv-x="311" 
d="M70 800h198v-41h-194l-3 -98q116 0 163 -39t47 -93q0 -57 -38 -91t-105 -34q-50 0 -79 22.5t-29 53.5q0 16 8.5 25.5t18.5 9.5q23 0 23 -19q0 -7 -11 -18.5t-11 -20.5q0 -21 20.5 -34t53.5 -13q46 0 73.5 29.5t27.5 74.5q0 46 -37.5 78t-122.5 32h-9z" />
    <glyph glyph-name="sixsuperior" unicode="&#x2076;" horiz-adv-x="327" 
d="M247 530q0 49 -22 81.5t-59 32.5q-49 0 -84 -37q-8 -83 16 -140t67 -57q35 0 58.5 34t23.5 86zM297 537q0 -60 -38 -96.5t-94 -36.5q-65 0 -100 45t-35 113q0 96 58.5 165t151.5 85l2 -4q-133 -38 -161 -192q47 39 100 39t84.5 -33.5t31.5 -84.5z" />
    <glyph glyph-name="sevensuperior" unicode="&#x2077;" horiz-adv-x="311" 
d="M281 794l-152 -384h-58l193 349h-162q-36 0 -49 -9.5t-17 -44.5h-6l3 95h248v-6z" />
    <glyph glyph-name="eightsuperior" unicode="&#x2078;" horiz-adv-x="326" 
d="M44 702q0 47 38.5 75.5t87.5 28.5q47 0 81.5 -26t34.5 -66q0 -58 -79 -96q43 -21 66 -43.5t23 -58.5q0 -54 -41.5 -83t-96.5 -29q-60 0 -94 27.5t-34 66.5q0 34 23.5 63.5t68.5 47.5q-37 20 -57.5 41t-20.5 52zM67 504q0 -46 27.5 -70t70.5 -24q38 0 62.5 26.5t24.5 59.5
q0 14 -6 26.5t-12.5 20.5t-22.5 18.5t-24 14.5l-30.5 15l-28.5 14q-28 -12 -44.5 -39.5t-16.5 -61.5zM250 715q0 40 -21.5 62.5t-61.5 22.5q-35 0 -55.5 -24.5t-20.5 -55.5q0 -8 2 -15t4 -12.5t8 -12l9.5 -10.5t12 -9.5t12.5 -8.5t15 -8.5l15 -7.5t16.5 -7.5t15.5 -7.5
q49 30 49 94z" />
    <glyph glyph-name="ninesuperior" unicode="&#x2079;" horiz-adv-x="327" 
d="M80 680q0 -49 22 -81.5t59 -32.5q49 0 84 37q8 83 -16 140t-67 57q-35 0 -58.5 -34t-23.5 -86zM30 673q0 60 38 96.5t94 36.5q65 0 100 -45t35 -113q0 -96 -58.5 -165t-151.5 -85l-2 4q131 37 161 192q-47 -39 -100 -39t-84.5 33.5t-31.5 84.5z" />
    <glyph glyph-name="nsuperior" unicode="&#x207f;" horiz-adv-x="373" 
d="M20 400v6q37 2 45 6t8 23v223q0 19 -8 23.5t-45 6.5v6l92 12h6l-3 -63h3q54 63 116 63q34 0 55 -21.5t21 -68.5v-181q0 -19 8 -23t45 -6v-6h-140v6q29 2 35.5 6t6.5 23v183q0 64 -61 64q-39 0 -86 -45v-202q0 -19 8 -23t45 -6v-6h-151z" />
    <glyph glyph-name="zeroinferior" unicode="&#x2080;" horiz-adv-x="344" 
d="M30 95q0 81 39 141t103 60q63 0 102.5 -60t39.5 -141t-39.5 -141t-102.5 -60q-64 0 -103 60t-39 141zM265 95q0 90 -25 142.5t-68 52.5t-68 -52.5t-25 -142.5t25 -142.5t68 -52.5t68 52.5t25 142.5z" />
    <glyph glyph-name="oneinferior" unicode="&#x2081;" horiz-adv-x="330" 
d="M146 -65v340l-114 -35l-2 5l155 51h6v-361q0 -18 18 -22.5t91 -6.5v-6h-264v6q74 2 92 6.5t18 22.5z" />
    <glyph glyph-name="twoinferior" unicode="&#x2082;" horiz-adv-x="306" 
d="M144 289q-35 0 -54 -17t-19 -35q0 -9 11.5 -17.5t11.5 -15.5q0 -9 -7.5 -14t-16.5 -5q-27 0 -27 25q0 36 32.5 61t80.5 25t80.5 -28.5t32.5 -82.5q0 -60 -44.5 -115t-150.5 -129h202v-41h-246v6q102 86 146.5 152t44.5 134q0 39 -19.5 68t-57.5 29z" />
    <glyph glyph-name="threeinferior" unicode="&#x2083;" horiz-adv-x="311" 
d="M281 8q0 -54 -41.5 -84t-91.5 -30q-48 0 -83 25t-35 61q0 25 27 25q9 0 16 -5t7 -14q0 -7 -10.5 -19t-10.5 -20q0 -14 22 -30t56 -17q42 0 68.5 25.5t26.5 74.5q0 58 -28.5 81t-83.5 23v6q38 -3 67.5 19t29.5 73q0 35 -18 61t-53 26q-34 0 -53.5 -15.5t-19.5 -30.5
q0 -9 11 -20.5t11 -18.5q0 -9 -7.5 -14t-16.5 -5q-26 0 -26 25q0 35 32.5 60.5t80.5 25.5q50 0 77.5 -25.5t27.5 -67.5q0 -36 -28.5 -61t-75.5 -34v-1q53 -6 87.5 -31t34.5 -68z" />
    <glyph glyph-name="fourinferior" unicode="&#x2084;" horiz-adv-x="351" 
d="M260 -100h-46v111h-184v6l224 279h6v-279h61v-6h-61v-111zM214 17v221l-177 -221h177z" />
    <glyph glyph-name="fiveinferior" unicode="&#x2085;" horiz-adv-x="311" 
d="M70 290h198v-41h-194l-3 -98q116 0 163 -39t47 -93q0 -57 -38 -91t-105 -34q-50 0 -79 22.5t-29 53.5q0 16 8.5 25.5t18.5 9.5q23 0 23 -19q0 -7 -11 -18.5t-11 -20.5q0 -21 20.5 -34t53.5 -13q46 0 73.5 29.5t27.5 74.5q0 46 -37.5 78t-122.5 32h-9z" />
    <glyph glyph-name="sixinferior" unicode="&#x2086;" horiz-adv-x="327" 
d="M247 20q0 49 -22 81.5t-59 32.5q-49 0 -84 -37q-8 -83 16 -140t67 -57q35 0 58.5 34t23.5 86zM297 27q0 -60 -38 -96.5t-94 -36.5q-65 0 -100 45t-35 113q0 96 58.5 165t151.5 85l2 -4q-133 -38 -161 -192q47 39 100 39t84.5 -33.5t31.5 -84.5z" />
    <glyph glyph-name="seveninferior" unicode="&#x2087;" horiz-adv-x="311" 
d="M281 284l-152 -384h-58l193 349h-162q-36 0 -49 -9.5t-17 -44.5h-6l3 95h248v-6z" />
    <glyph glyph-name="eightinferior" unicode="&#x2088;" horiz-adv-x="326" 
d="M44 192q0 47 38.5 75.5t87.5 28.5q47 0 81.5 -26t34.5 -66q0 -58 -79 -96q43 -21 66 -43.5t23 -58.5q0 -54 -41.5 -83t-96.5 -29q-60 0 -94 27.5t-34 66.5q0 34 23.5 63.5t68.5 47.5q-37 20 -57.5 41t-20.5 52zM67 -6q0 -46 27.5 -70t70.5 -24q38 0 62.5 26.5t24.5 59.5
q0 14 -6 26.5t-12.5 20.5t-22.5 18.5t-24 14.5l-30.5 15l-28.5 14q-28 -12 -44.5 -39.5t-16.5 -61.5zM250 205q0 40 -21.5 62.5t-61.5 22.5q-35 0 -55.5 -24.5t-20.5 -55.5q0 -8 2 -15t4 -12.5t8 -12l9.5 -10.5t12 -9.5t12.5 -8.5t15 -8.5l15 -7.5t16.5 -7.5t15.5 -7.5
q49 30 49 94z" />
    <glyph glyph-name="nineinferior" unicode="&#x2089;" horiz-adv-x="327" 
d="M80 170q0 -49 22 -81.5t59 -32.5q49 0 84 37q8 83 -16 140t-67 57q-35 0 -58.5 -34t-23.5 -86zM30 163q0 60 38 96.5t94 36.5q65 0 100 -45t35 -113q0 -96 -58.5 -165t-151.5 -85l-2 4q131 37 161 192q-47 -39 -100 -39t-84.5 33.5t-31.5 84.5z" />
    <glyph glyph-name="colonmonetary" unicode="&#x20a1;" horiz-adv-x="628" 
d="M360 0q88 0 137 51.5t66 120.5h10l-14 -126q-86 -56 -199 -56q-129 0 -217 95.5t-88 240.5t88 239.5t217 94.5q111 0 199 -55l9 -127h-10q-14 56 -46 97l-268 -537q54 -38 116 -38zM115 326q0 -129 64 -222l264 527q-38 19 -83 19q-102 0 -173.5 -94t-71.5 -230zM187 94
q22 -30 47 -49l271 539q-26 28 -52 42z" />
    <glyph glyph-name="franc" unicode="&#x20a3;" horiz-adv-x="688" 
d="M55 402h67q22 115 105 186.5t193 71.5q111 0 199 -55l9 -127h-10q-16 70 -68 121t-130 51q-87 0 -153 -69.5t-86 -178.5h208l-5 -10h-204q-5 -35 -5 -66q0 -30 5 -65h209l-5 -10h-203q19 -110 85.5 -180.5t153.5 -70.5q88 0 137 51.5t66 120.5h10l-14 -126
q-86 -56 -199 -56q-111 0 -193.5 72t-104.5 189h-67v10h65q-5 26 -5 65q0 31 5 66h-65v10z" />
    <glyph glyph-name="lira" unicode="&#x20a4;" horiz-adv-x="688" 
d="M55 402h67q22 115 105 186.5t193 71.5q111 0 199 -55l9 -127h-10q-16 70 -68 121t-130 51q-87 0 -153 -69.5t-86 -178.5h208l-5 -10h-204q-5 -35 -5 -66q0 -30 5 -65h209l-5 -10h-203q19 -110 85.5 -180.5t153.5 -70.5q88 0 137 51.5t66 120.5h10l-14 -126
q-86 -56 -199 -56q-111 0 -193.5 72t-104.5 189h-67v10h65q-5 26 -5 65q0 31 5 66h-65v10z" />
    <glyph glyph-name="peseta" unicode="&#x20a7;" horiz-adv-x="688" 
d="M55 402h67q22 115 105 186.5t193 71.5q111 0 199 -55l9 -127h-10q-16 70 -68 121t-130 51q-87 0 -153 -69.5t-86 -178.5h208l-5 -10h-204q-5 -35 -5 -66q0 -30 5 -65h209l-5 -10h-203q19 -110 85.5 -180.5t153.5 -70.5q88 0 137 51.5t66 120.5h10l-14 -126
q-86 -56 -199 -56q-111 0 -193.5 72t-104.5 189h-67v10h65q-5 26 -5 65q0 31 5 66h-65v10z" />
    <glyph glyph-name="Euro" unicode="&#x20ac;" horiz-adv-x="688" 
d="M55 402h67q22 115 105 186.5t193 71.5q111 0 199 -55l9 -127h-10q-16 70 -68 121t-130 51q-87 0 -153 -69.5t-86 -178.5h208l-5 -10h-204q-5 -35 -5 -66q0 -30 5 -65h209l-5 -10h-203q19 -110 85.5 -180.5t153.5 -70.5q88 0 137 51.5t66 120.5h10l-14 -126
q-86 -56 -199 -56q-111 0 -193.5 72t-104.5 189h-67v10h65q-5 26 -5 65q0 31 5 66h-65v10z" />
    <glyph glyph-name="litre" unicode="&#x2113;" horiz-adv-x="424" 
d="M40 156l-12 11l89 99v243q0 103 38 151q39 50 94 50q42 0 66.5 -27t24.5 -72q0 -49 -29 -112q-28 -61 -122 -176v-168q0 -76 21 -106q22 -29 57 -29q33 0 61 29q29 29 51 103h16q-20 -84 -64 -127q-33 -35 -84 -35q-41 0 -73.5 24.5t-45.5 65.5q-11 33 -11 107v52z
M189 543v-193q126 154 126 242q0 41 -18 65t-45 24t-45 -28q-18 -26 -18 -110z" />
    <glyph glyph-name="afii61352" unicode="&#x2116;" horiz-adv-x="1040" 
d="M590 -5h-10l-425 655v-590q0 -32 20.5 -39t99.5 -11v-10h-235v10q70 4 87.5 11t17.5 39v580q0 32 -17.5 39t-87.5 11v10h150l390 -602v542q0 32 -20.5 39t-99.5 11v10h235v-10q-70 -4 -87.5 -11t-17.5 -39v-645zM690 343h310v-10h-310v10zM847 394q-63 0 -102 44.5
t-39 111.5t39 111.5t102 44.5t102 -44.5t39 -111.5t-39 -111.5t-102 -44.5zM847 700q-43 0 -68 -40t-25 -110t25 -110t68 -40t68 40t25 110t-25 110t-68 40z" />
    <glyph glyph-name="trademark" unicode="&#x2122;" horiz-adv-x="767" 
d="M40 620l2 80h253l2 -80h-5q-17 75 -67 75h-43v-315q0 -17 7 -20t41 -5v-5h-123v5q34 2 41 5t7 20v315h-43q-50 0 -67 -75h-5zM652 380v300l-125 -333h-2l-138 330v-297q0 -17 10 -20t55 -5v-5h-117v5q33 2 40 5t7 20v290q0 16 -7 19.5t-40 5.5v5h75l128 -309l116 309h73
v-5q-33 -2 -40 -5.5t-7 -19.5v-290q0 -17 7 -20t40 -5v-5h-122v5q33 2 40 5t7 20z" />
    <glyph glyph-name="estimated" unicode="&#x212e;" horiz-adv-x="695" 
d="M666 349h-498v-235q76 -78 179 -78q155 0 238 157l44 -26q-63 -96 -125 -136.5t-157 -40.5q-141 0 -230 102.5t-89 256.5q0 156 89.5 258.5t229.5 102.5q135 0 224 -94.5t95 -266.5zM168 397h359v189q-77 77 -181 77t-178 -77v-189z" />
    <glyph glyph-name="onethird" unicode="&#x2153;" horiz-adv-x="850" 
d="M146 345v340l-114 -35l-2 5l155 51h6v-361q0 -18 18 -22.5t91 -6.5v-6h-264v6q74 2 92 6.5t18 22.5zM820 108q0 43 -34.5 68t-87.5 31v1q47 9 75.5 34t28.5 61q0 42 -27.5 67.5t-77.5 25.5q-48 0 -80.5 -25.5t-32.5 -60.5q0 -25 26 -25q9 0 16.5 5t7.5 14q0 7 -11 18.5
t-11 20.5q0 15 19.5 30.5t53.5 15.5q35 0 53 -26t18 -61q0 -51 -29.5 -73t-67.5 -19v-6q55 0 83.5 -23t28.5 -81q0 -49 -26.5 -74.5t-68.5 -25.5q-34 1 -56 17t-22 30q0 8 10.5 20t10.5 19q0 9 -7 14t-16 5q-27 0 -27 -25q0 -36 35 -61t83 -25q50 0 91.5 30t41.5 84z
M574 710h9l-263 -720h-10z" />
    <glyph glyph-name="twothirds" unicode="&#x2154;" horiz-adv-x="850" 
d="M144 699q-35 0 -54 -17t-19 -35q0 -9 11.5 -17.5t11.5 -15.5q0 -9 -7.5 -14t-16.5 -5q-27 0 -27 25q0 36 32.5 61t80.5 25t80.5 -28.5t32.5 -82.5q0 -60 -44.5 -115t-150.5 -129h202v-41h-246v6q102 86 146.5 152t44.5 134q0 39 -19.5 68t-57.5 29zM820 108
q0 43 -34.5 68t-87.5 31v1q47 9 75.5 34t28.5 61q0 42 -27.5 67.5t-77.5 25.5q-48 0 -80.5 -25.5t-32.5 -60.5q0 -25 26 -25q9 0 16.5 5t7.5 14q0 7 -11 18.5t-11 20.5q0 15 19.5 30.5t53.5 15.5q35 0 53 -26t18 -61q0 -51 -29.5 -73t-67.5 -19v-6q55 0 83.5 -23t28.5 -81
q0 -49 -26.5 -74.5t-68.5 -25.5q-34 1 -56 17t-22 30q0 8 10.5 20t10.5 19q0 9 -7 14t-16 5q-27 0 -27 -25q0 -36 35 -61t83 -25q50 0 91.5 30t41.5 84zM574 710h9l-263 -720h-10z" />
    <glyph glyph-name="oneeighth" unicode="&#x215b;" horiz-adv-x="850" 
d="M568 292q0 -31 20.5 -52t57.5 -41q-45 -18 -68.5 -47.5t-23.5 -63.5q0 -39 34 -66.5t94 -27.5q55 0 96.5 29t41.5 83q0 36 -23 58.5t-66 43.5q79 38 79 96q0 40 -34.5 66t-81.5 26q-49 0 -87.5 -28.5t-38.5 -75.5zM591 94q0 34 16.5 61.5t44.5 39.5l28.5 -14l30.5 -15
t24 -14.5t22.5 -18.5t12.5 -20.5t6 -26.5q0 -33 -24.5 -59.5t-62.5 -26.5q-43 0 -70.5 24t-27.5 70zM774 305q0 -64 -49 -94q-3 2 -15.5 7.5t-16.5 7.5l-15 7.5t-15 8.5t-12.5 8.5t-12 9.5l-9.5 10.5t-8 12t-4 12.5t-2 15q0 31 20.5 55.5t55.5 24.5q40 0 61.5 -22.5
t21.5 -62.5zM146 345v340l-114 -35l-2 5l155 51h6v-361q0 -18 18 -22.5t91 -6.5v-6h-264v6q74 2 92 6.5t18 22.5zM564 710h9l-263 -720h-10z" />
    <glyph glyph-name="threeeighths" unicode="&#x215c;" horiz-adv-x="850" 
d="M568 292q0 -31 20.5 -52t57.5 -41q-45 -18 -68.5 -47.5t-23.5 -63.5q0 -39 34 -66.5t94 -27.5q55 0 96.5 29t41.5 83q0 36 -23 58.5t-66 43.5q79 38 79 96q0 40 -34.5 66t-81.5 26q-49 0 -87.5 -28.5t-38.5 -75.5zM591 94q0 34 16.5 61.5t44.5 39.5l28.5 -14l30.5 -15
t24 -14.5t22.5 -18.5t12.5 -20.5t6 -26.5q0 -33 -24.5 -59.5t-62.5 -26.5q-43 0 -70.5 24t-27.5 70zM281 418q0 43 -34.5 68t-87.5 31v1q47 9 75.5 34t28.5 61q0 42 -27.5 67.5t-77.5 25.5q-48 0 -80.5 -25.5t-32.5 -60.5q0 -25 26 -25q9 0 16.5 5t7.5 14q0 7 -11 18.5
t-11 20.5q0 15 19.5 30.5t53.5 15.5q35 0 53 -26t18 -61q0 -51 -29.5 -73t-67.5 -19v-6q55 0 83.5 -23t28.5 -81q0 -49 -26.5 -74.5t-68.5 -25.5q-34 1 -56 17t-22 30q0 8 10.5 20t10.5 19q0 9 -7 14t-16 5q-27 0 -27 -25q0 -36 35 -61t83 -25q50 0 91.5 30t41.5 84z
M774 305q0 -64 -49 -94q-3 2 -15.5 7.5t-16.5 7.5l-15 7.5t-15 8.5t-12.5 8.5t-12 9.5l-9.5 10.5t-8 12t-4 12.5t-2 15q0 31 20.5 55.5t55.5 24.5q40 0 61.5 -22.5t21.5 -62.5zM544 710h9l-263 -720h-10z" />
    <glyph glyph-name="fiveeighths" unicode="&#x215d;" horiz-adv-x="850" 
d="M568 292q0 -31 20.5 -52t57.5 -41q-45 -18 -68.5 -47.5t-23.5 -63.5q0 -39 34 -66.5t94 -27.5q55 0 96.5 29t41.5 83q0 36 -23 58.5t-66 43.5q79 38 79 96q0 40 -34.5 66t-81.5 26q-49 0 -87.5 -28.5t-38.5 -75.5zM70 700h198v-41h-194l-3 -98q116 0 163 -39t47 -93
q0 -57 -38 -91t-105 -34q-50 0 -79 22.5t-29 53.5q0 16 8.5 25.5t18.5 9.5q23 0 23 -19q0 -7 -11 -18.5t-11 -20.5q0 -21 20.5 -34t53.5 -13q46 0 73.5 29.5t27.5 74.5q0 46 -37.5 78t-122.5 32h-9zM591 94q0 34 16.5 61.5t44.5 39.5l28.5 -14l30.5 -15t24 -14.5t22.5 -18.5
t12.5 -20.5t6 -26.5q0 -33 -24.5 -59.5t-62.5 -26.5q-43 0 -70.5 24t-27.5 70zM774 305q0 -64 -49 -94q-3 2 -15.5 7.5t-16.5 7.5l-15 7.5t-15 8.5t-12.5 8.5t-12 9.5l-9.5 10.5t-8 12t-4 12.5t-2 15q0 31 20.5 55.5t55.5 24.5q40 0 61.5 -22.5t21.5 -62.5zM544 710h9
l-263 -720h-10z" />
    <glyph glyph-name="seveneighths" unicode="&#x215e;" horiz-adv-x="850" 
d="M568 292q0 -31 20.5 -52t57.5 -41q-45 -18 -68.5 -47.5t-23.5 -63.5q0 -39 34 -66.5t94 -27.5q55 0 96.5 29t41.5 83q0 36 -23 58.5t-66 43.5q79 38 79 96q0 40 -34.5 66t-81.5 26q-49 0 -87.5 -28.5t-38.5 -75.5zM591 94q0 34 16.5 61.5t44.5 39.5l28.5 -14l30.5 -15
t24 -14.5t22.5 -18.5t12.5 -20.5t6 -26.5q0 -33 -24.5 -59.5t-62.5 -26.5q-43 0 -70.5 24t-27.5 70zM281 694l-152 -384h-58l193 349h-162q-36 0 -49 -9.5t-17 -44.5h-6l3 95h248v-6zM774 305q0 -64 -49 -94q-3 2 -15.5 7.5t-16.5 7.5l-15 7.5t-15 8.5t-12.5 8.5t-12 9.5
l-9.5 10.5t-8 12t-4 12.5t-2 15q0 31 20.5 55.5t55.5 24.5q40 0 61.5 -22.5t21.5 -62.5zM504 710h9l-263 -720h-10z" />
    <glyph glyph-name="partialdiff" unicode="&#x2202;" horiz-adv-x="553" 
d="M107 155q0 -65 33 -110t85 -45q60 0 115 54t87.5 153t23.5 213q-50 12 -113 12q-94 0 -162.5 -79t-68.5 -198zM317 690q-51 0 -85.5 -27.5t-39.5 -52.5q-3 -12 16 -28.5t19 -25.5q0 -17 -13.5 -26.5t-29.5 -9.5q-33 0 -33 29q0 59 53 105t116 46q96 0 142 -86.5
t46 -235.5q0 -170 -76 -279t-213 -109q-78 0 -126 48t-48 128q0 90 47.5 155.5t113 94.5t134.5 29q66 0 111 -18q-10 263 -134 263z" />
    <glyph glyph-name="product" unicode="&#x220f;" horiz-adv-x="735" 
d="M540 690h-345v-890q0 -33 14 -39.5t81 -10.5v-10h-245v10q67 4 81 10.5t14 39.5v840q0 33 -14 39.5t-81 10.5v10h645v-10q-67 -4 -81 -10.5t-14 -39.5v-840q0 -33 14 -39.5t81 -10.5v-10h-245v10q67 4 81 10.5t14 39.5v890z" />
    <glyph glyph-name="summation" unicode="&#x2211;" horiz-adv-x="570" 
d="M510 700l5 -160h-10q-17 72 -47.5 111t-87.5 39h-256l208 -340l-208 -340h246q125 0 155 150h10l-10 -160h-470v10l213 340l-213 340v10h465z" />
    <glyph glyph-name="minus" unicode="&#x2212;" horiz-adv-x="560" 
d="M103 330h354v-10h-354v10z" />
    <glyph glyph-name="uni2215" unicode="&#x2215;" horiz-adv-x="413" 
d="M334 710h9l-263 -720h-10z" />
    <glyph glyph-name="uni2219" unicode="&#x2219;" horiz-adv-x="299" 
d="M100 345q0 22 14 36.5t35 14.5t35.5 -14.5t14.5 -36.5q0 -21 -14.5 -35t-35.5 -14t-35 13.5t-14 35.5z" />
    <glyph glyph-name="radical" unicode="&#x221a;" horiz-adv-x="760" 
d="M804 900h856v-10h-849l-366 -990h-45l-167 510h-173v10h269l132 -444z" />
    <glyph glyph-name="infinity" unicode="&#x221e;" horiz-adv-x="961" 
d="M261 190q-84 0 -122.5 42.5t-38.5 112.5t38.5 112.5t122.5 42.5q65 0 116 -36t108 -103q55 67 103 103t112 36q84 0 122.5 -42.5t38.5 -112.5t-38.5 -112.5t-122.5 -42.5q-64 0 -112.5 35.5t-102.5 102.5q-57 -66 -107.5 -102t-116.5 -36zM261 490q-76 0 -113.5 -40
t-37.5 -105t37.5 -105t113.5 -40q43 0 83.5 23.5t64 48.5t62.5 73q-30 37 -47 55t-45 43t-56.5 36t-61.5 11zM700 490q-29 0 -55.5 -10.5t-54.5 -36.5t-43.5 -42.5t-47.5 -55.5q32 -39 47.5 -55.5t43.5 -42.5t54.5 -36.5t55.5 -10.5q76 0 113.5 40t37.5 105t-37.5 105
t-113.5 40z" />
    <glyph glyph-name="integral" unicode="&#x222b;" horiz-adv-x="340" 
d="M242 540l-55 -520q-11 -107 -56 -168.5t-98 -61.5q-42 0 -42 32q0 15 11 26.5t28 11.5q13 0 33.5 -20t25.5 -20q22 0 34 110l64 610q3 33 14 64t31.5 60.5t55.5 47.5t79 18q39 0 65.5 -19.5t26.5 -49.5q0 -27 -13 -39t-30 -12q-29 0 -29 23q0 10 9.5 22t9.5 23
q0 17 -13.5 29.5t-32.5 12.5q-98 0 -118 -180z" />
    <glyph glyph-name="approxequal" unicode="&#x2248;" horiz-adv-x="550" 
d="M110 344l-4 2q13 27 18 36t18.5 30t27.5 29.5t30 8.5q20 0 83.5 -31t82.5 -31q24 0 38.5 13t36.5 47l3 -2q-30 -61 -47 -77q-19 -17 -42 -17t-84.5 31t-85.5 31q-11 0 -18.5 -2.5t-15.5 -10.5t-11.5 -13l-14 -21t-15.5 -23zM110 194l-4 2q13 27 18 36t18.5 30t27.5 29.5
t30 8.5q20 0 83.5 -31t82.5 -31q24 0 38.5 13t36.5 47l3 -2q-30 -61 -47 -77q-19 -17 -42 -17t-84.5 31t-85.5 31q-11 0 -18.5 -2.5t-15.5 -10.5t-11.5 -13l-14 -21t-15.5 -23z" />
    <glyph glyph-name="notequal" unicode="&#x2260;" horiz-adv-x="560" 
d="M103 262h151l38 130h-189v10h192l57 192h9l-57 -192h153v-10h-156l-38 -130h194v-10h-197l-57 -193h-9l57 193h-148v10z" />
    <glyph glyph-name="lessequal" unicode="&#x2264;" horiz-adv-x="560" 
d="M112 339l345 -179v-18h-354v10h347l-347 178v17l354 180v-11z" />
    <glyph glyph-name="greaterequal" unicode="&#x2265;" horiz-adv-x="560" 
d="M103 160l345 179l-345 177v11l354 -180v-17l-347 -178h347v-10h-354v18z" />
    <glyph glyph-name="lozenge" unicode="&#x25ca;" horiz-adv-x="612" 
d="M295 -30l-195 374l195 374h22l195 -374l-195 -374h-22zM115 344l191 -367l190 367l-190 367z" />
    <glyph glyph-name="dieresisacute" unicode="&#xf6d7;" horiz-adv-x="522" 
d="M100 595q0 20 12.5 33t32.5 13q19 0 32.5 -13t13.5 -33t-13.5 -32.5t-32.5 -12.5q-20 0 -32.5 12.5t-12.5 32.5zM331 595q0 20 13 33t33 13t32.5 -13t12.5 -33t-12.5 -32.5t-32.5 -12.5t-33 12.5t-13 32.5zM330 644l-126 -88l-3 3l83 130q10 16 27 18q14 1 25.5 -9
t11.5 -24q0 -18 -18 -30z" />
    <glyph glyph-name="cyrbreve" horiz-adv-x="421" 
d="M210 550q-56 0 -83 40t-27 96h5q17 -79 105 -79q89 0 106 79h5q0 -56 -27.5 -96t-83.5 -40z" />
    <glyph glyph-name="commaaccent" horiz-adv-x="320" 
d="M155 -30q34 0 49.5 -23t15.5 -57q0 -76 -91 -125l-4 7q60 34 60 62q0 6 -0.5 10t-8 10t-21.5 6q-24 0 -39.5 16.5t-15.5 38.5q0 24 16.5 39.5t38.5 15.5z" />
    <glyph glyph-name="undercommaaccent" horiz-adv-x="320" 
d="M155 -30q34 0 49.5 -23t15.5 -57q0 -76 -91 -125l-4 7q60 34 60 62q0 6 -0.5 10t-8 10t-21.5 6q-24 0 -39.5 16.5t-15.5 38.5q0 24 16.5 39.5t38.5 15.5z" />
    <glyph glyph-name="dieresisgrave" horiz-adv-x="522" 
d="M422 595q0 -20 -12.5 -32.5t-32.5 -12.5q-19 0 -32.5 12.5t-13.5 32.5t13.5 33t32.5 13q20 0 32.5 -13t12.5 -33zM191 595q0 -20 -13 -32.5t-33 -12.5t-32.5 12.5t-12.5 32.5t12.5 33t32.5 13t33 -13t13 -33zM318 556l-126 88q-18 12 -18 30q0 14 11.5 24t25.5 9
q17 -2 27 -18l83 -130z" />
    <glyph glyph-name="dblgrave" horiz-adv-x="466" 
d="M363 553l-127 88q-17 12 -17 30q0 14 11 24t25 9q18 -2 28 -18l83 -130zM245 553l-127 88q-18 12 -18 30q0 14 11.5 24t25.5 9q18 -2 28 -18l83 -130z" />
    <glyph glyph-name="cyrflex" horiz-adv-x="435" 
d="M217 640l-115 -90h-2l113 162h9l113 -162h-2z" />
    <glyph glyph-name="Acute" horiz-adv-x="362" 
d="M243 841l-136 -101l-2 2l87 148q11 18 30 20q15 1 27.5 -10t12.5 -26q0 -19 -19 -33z" />
    <glyph glyph-name="Breve" horiz-adv-x="444" 
d="M222 750q-44 0 -73 25t-39 57t-10 69h5q8 -38 38 -63.5t79 -25.5t79 25.5t38 63.5h5q0 -59 -29.5 -105t-92.5 -46z" />
    <glyph glyph-name="cyrBreve" horiz-adv-x="444" 
d="M222 750q-44 0 -73 25t-39 57t-10 69h5q8 -38 38 -63.5t79 -25.5t79 25.5t38 63.5h5q0 -59 -29.5 -105t-92.5 -46z" />
    <glyph glyph-name="Caron" horiz-adv-x="458" 
d="M102 920l127 -101l127 101h2l-125 -180h-9l-124 180h2z" />
    <glyph glyph-name="Cedilla" horiz-adv-x="350" 
d="M139 0h7v-33q43 -8 76 -32.5t33 -65.5q0 -43 -48 -71.5t-107 -36.5l-3 6q50 14 77 35t27 55q0 52 -65 68z" />
    <glyph glyph-name="Circumflex" horiz-adv-x="458" 
d="M229 841l-127 -101h-2l124 180h9l125 -180h-2z" />
    <glyph glyph-name="Dieresis" horiz-adv-x="492" 
d="M100 805q0 22 14 36.5t35 14.5t35.5 -14.5t14.5 -36.5q0 -21 -14.5 -35t-35.5 -14t-35 13.5t-14 35.5zM293 805q0 22 14.5 36.5t35.5 14.5t35 -14.5t14 -36.5t-14 -35.5t-35 -13.5t-35.5 14t-14.5 35z" />
    <glyph glyph-name="DieresisAcute" horiz-adv-x="552" 
d="M100 805q0 22 14 36.5t35 14.5t35.5 -14.5t14.5 -36.5q0 -21 -14.5 -35t-35.5 -14t-35 13.5t-14 35.5zM353 805q0 22 14.5 36.5t35.5 14.5t35 -14.5t14 -36.5t-14 -35.5t-35 -13.5t-35.5 14t-14.5 35zM353 861l-136 -101l-3 3l88 147q11 18 30 20q15 1 27.5 -10t12.5 -26
q0 -19 -19 -33z" />
    <glyph glyph-name="DieresisGrave" horiz-adv-x="552" 
d="M452 805q0 -22 -14 -35.5t-35 -13.5t-35.5 14t-14.5 35q0 22 14.5 36.5t35.5 14.5t35 -14.5t14 -36.5zM199 805q0 -21 -14.5 -35t-35.5 -14t-35 13.5t-14 35.5t14 36.5t35 14.5t35.5 -14.5t14.5 -36.5zM335 760l-136 101q-19 14 -19 33q0 15 12.5 26t27.5 10
q19 -2 30 -20l88 -147z" />
    <glyph glyph-name="Dotaccent" horiz-adv-x="299" 
d="M100 805q0 22 14 36.5t35 14.5t35.5 -14.5t14.5 -36.5q0 -21 -14.5 -35t-35.5 -14t-35 13.5t-14 35.5z" />
    <glyph glyph-name="Hungarumlaut" horiz-adv-x="492" 
d="M243 841l-136 -101l-3 3l88 147q11 18 30 20q15 1 27.5 -10t12.5 -26q0 -19 -19 -33zM373 841l-136 -101l-3 3l88 147q11 18 30 20q15 1 27.5 -10t12.5 -26q0 -19 -19 -33z" />
    <glyph glyph-name="Grave" horiz-adv-x="362" 
d="M255 740l-136 101q-19 14 -19 33q0 15 12.5 26t27.5 10q19 -2 30 -20l87 -148z" />
    <glyph glyph-name="dblGrave" horiz-adv-x="492" 
d="M385 740l-136 101q-19 14 -19 33q0 15 12.5 26t27.5 10q19 -2 30 -20l88 -147zM255 740l-136 101q-19 14 -19 33q0 15 12.5 26t27.5 10q19 -2 30 -20l88 -147z" />
    <glyph glyph-name="cyrFlex" horiz-adv-x="458" 
d="M229 841l-127 -101h-2l124 180h9l125 -180h-2z" />
    <glyph glyph-name="Macron" horiz-adv-x="504" 
d="M100 782h304v-10h-304v10z" />
    <glyph glyph-name="Ogonek" horiz-adv-x="338" 
d="M252 -178v-4q-31 -40 -77 -40q-31 0 -53 24t-22 60q0 69 98 138h9q-26 -24 -41.5 -61t-15.5 -68q0 -47 32 -61.5t70 12.5z" />
    <glyph glyph-name="Ring" horiz-adv-x="369" 
d="M100 827q0 36 24.5 60.5t59.5 24.5t60 -24.5t25 -60.5q0 -35 -25 -59.5t-60 -24.5t-59.5 24.5t-24.5 59.5zM107 827q0 -33 22 -55t55 -22q34 0 56 22t22 55q0 34 -22 56t-56 22q-33 0 -55 -22t-22 -56z" />
    <glyph glyph-name="Tilde" horiz-adv-x="538" 
d="M104 764l-4 2q36 74 58 93q17 14 33 14q17 0 84.5 -21t90.5 -21q36 0 66 45l5 -4q-48 -96 -92 -96q-21 0 -84.5 20t-84.5 20t-36 -11.5t-36 -40.5z" />
    <glyph glyph-name="middot" horiz-adv-x="299" 
d="M100 345q0 22 14 36.5t35 14.5t35.5 -14.5t14.5 -36.5q0 -21 -14.5 -35t-35.5 -14t-35 13.5t-14 35.5z" />
    <glyph glyph-name="asuperior" horiz-adv-x="307" 
d="M239 618v-184q0 -20 19 -20q12 0 38 17l1 -4q-47 -33 -74 -33q-29 0 -29 37v11h-1q-53 -48 -99 -48q-33 0 -51 19t-18 47q0 80 169 94v63q0 34 -18 55t-52 21q-26 0 -44.5 -14t-18.5 -29q0 -9 11.5 -19t11.5 -17q0 -8 -7 -14t-17 -6q-26 0 -26 25q0 27 32.5 57t83.5 30
q45 0 67 -24t22 -64zM194 448v100q-70 -8 -97 -27t-27 -51q0 -53 50 -53q28 0 74 31z" />
    <glyph glyph-name="bsuperior" horiz-adv-x="347" 
d="M100 664h3q42 42 96 42q57 0 90 -43.5t33 -112.5q0 -71 -41 -113.5t-99 -42.5q-63 0 -97 36l-21 -33h-6v393q0 19 -8 23.5t-45 6.5v6l92 12h6zM178 690q-39 0 -75 -32v-171q0 -46 22 -66.5t50 -20.5q48 0 73 42.5t25 106.5q0 65 -27 103t-68 38z" />
    <glyph glyph-name="csuperior" horiz-adv-x="290" 
d="M177 700q-46 0 -76.5 -40.5t-30.5 -98.5q0 -68 32.5 -107t84.5 -39q45 0 79 28l3 -5q-48 -44 -103 -44q-66 0 -103.5 44.5t-37.5 108.5q0 73 43.5 116t103.5 43q46 0 72 -22.5t26 -53.5q0 -29 -26 -29q-22 0 -22 17q0 9 11 19t11 18q0 19 -19 32t-48 13z" />
    <glyph glyph-name="dsuperior" horiz-adv-x="352" 
d="M169 410q36 0 75 33v170q0 46 -22 66.5t-50 20.5q-49 0 -74 -42t-25 -107t27.5 -103t68.5 -38zM288 838v-396q0 -19 8.5 -23.5t45.5 -6.5v-6l-89 -12h-6v42h-3q-42 -42 -96 -42q-57 0 -90 43.5t-33 112.5q0 71 40.5 113.5t98.5 42.5q43 0 80 -27v111q0 19 -8.5 23.5
t-45.5 6.5v6l92 12h6z" />
    <glyph glyph-name="esuperior" horiz-adv-x="299" 
d="M172 706q42 0 72 -22.5t30 -70.5q0 -21 -6 -36h-198v-15q0 -68 32.5 -107.5t83.5 -39.5q46 0 80 28l3 -5q-48 -44 -103 -44q-66 0 -103.5 44.5t-37.5 108.5q0 73 43.5 116t103.5 43zM169 700q-37 0 -65 -33t-33 -84h152q4 19 4 47q-1 70 -58 70z" />
    <glyph glyph-name="fsuperior" horiz-adv-x="208" 
d="M191 700v-6h-73v-259q0 -19 9.5 -23t55.5 -6v-6h-163v6q37 2 45 6t8 23v259h-53v3l53 3v21q0 46 26 81.5t78 35.5q27 0 46.5 -13.5t19.5 -33.5q0 -29 -26 -29q-21 0 -21 17q0 6 9 15t9 17q0 21 -38 21q-58 0 -58 -105v-27h73z" />
    <glyph glyph-name="gsuperior" horiz-adv-x="320" 
d="M150 494q-32 0 -56 10q-13 -15 -13 -38q0 -19 38 -20l98 -6q38 -2 63 -20.5t25 -48.5q0 -50 -49.5 -73.5t-119.5 -23.5q-121 0 -121 64q0 18 17 33.5t49 34.5q-40 8 -40 42q0 30 50 58q-61 27 -61 94q0 47 34 76.5t86 29.5q37 0 68 -19l81 13v-34l-76 17q43 -31 43 -82
q0 -49 -32 -78t-84 -29zM79 605q0 -47 21.5 -76t52.5 -29q64 0 64 95q0 46 -19.5 75.5t-50.5 29.5q-33 0 -50.5 -26t-17.5 -69zM195 398l-109 8q-31 -34 -31 -60q0 -29 21.5 -47.5t64.5 -18.5q45 0 81.5 18t36.5 54q0 42 -64 46z" />
    <glyph glyph-name="isuperior" horiz-adv-x="181" 
d="M59 777q0 14 10 23.5t25 9.5q14 0 24.5 -9.5t10.5 -23.5t-10 -23t-25 -9t-25 9t-10 23zM118 706v-271q0 -19 8 -23t45 -6v-6h-151v6q37 2 45 6t8 23v223q0 19 -8 23.5t-45 6.5v6l92 12h6z" />
    <glyph glyph-name="ksuperior" horiz-adv-x="357" 
d="M118 838v-277q40 0 53 4t31 24l45 55q37 44 -44 50v6h128v-6q-7 -1 -13 -2t-11 -3.5t-8.5 -3.5t-8 -4.5t-6.5 -4.5t-6 -5.5t-5 -5.5t-5.5 -6.5t-5.5 -6.5l-68 -81l115 -141l5 -6q6 -6 9.5 -9t11.5 -6.5t17 -4.5v-4h-79l-105 135q-15 20 -50 20v-120q0 -19 8 -23t45 -6v-6
h-151v6q37 2 45 6t8 23v355q0 19 -8 23.5t-45 6.5v6l92 12h6z" />
    <glyph glyph-name="lsuperior" horiz-adv-x="181" 
d="M118 838v-403q0 -19 8 -23t45 -6v-6h-151v6q37 2 45 6t8 23v355q0 19 -8 23.5t-45 6.5v6l92 12h6z" />
    <glyph glyph-name="msuperior" horiz-adv-x="552" 
d="M20 400v6q37 2 45 6t8 23v223q0 19 -8 23.5t-45 6.5v6l92 12h6l-3 -63h3q54 63 110 63q60 0 75 -62h1q53 62 109 62q34 0 55 -21.5t21 -68.5v-181q0 -19 8 -23t45 -6v-6h-134v6q25 2 30.5 6t5.5 23v192q0 55 -49 55q-46 0 -91 -45v-202q0 -19 8 -23t45 -6v-6h-134v6
q24 2 30 6.5t6 22.5v192q0 25 -13 40t-37 15q-46 0 -91 -45v-202q0 -19 8 -23t45 -6v-6h-151z" />
    <glyph glyph-name="osuperior" horiz-adv-x="332" 
d="M166 394q-63 0 -102 44.5t-39 111.5t39 111.5t102 44.5t102 -44.5t39 -111.5t-39 -111.5t-102 -44.5zM166 700q-43 0 -68 -40t-25 -110t25 -110t68 -40t68 40t25 110t-25 110t-68 40z" />
    <glyph glyph-name="psuperior" horiz-adv-x="357" 
d="M110 664h3q42 42 96 42q57 0 90 -43.5t33 -112.5q0 -71 -41 -113.5t-99 -42.5q-50 0 -79 22v-101q0 -19 8 -23t45 -6v-6h-151v6q37 2 45 6t8 23v343q0 19 -8 23.5t-45 6.5v6l92 12h6zM188 690q-39 0 -75 -32v-171q0 -46 22 -66.5t50 -20.5q48 0 73 42t25 107t-27 103
t-68 38z" />
    <glyph glyph-name="qsuperior" horiz-adv-x="342" 
d="M169 410q36 0 75 33v170q0 46 -22 66.5t-50 20.5q-49 0 -74 -42t-25 -107t27.5 -103t68.5 -38zM244 315l3 121h-3q-42 -42 -96 -42q-57 0 -90 43.5t-33 112.5q0 71 41 113.5t99 42.5q63 0 97 -36l20 33h6v-388q0 -19 8 -23t46 -6v-6h-152v6q37 2 45 6t9 23z" />
    <glyph glyph-name="rsuperior" horiz-adv-x="255" 
d="M20 400v6q37 2 45 6t8 23v223q0 19 -8 23.5t-45 6.5v6l92 12h6l-3 -69h3q50 69 95 69q32 0 32 -29q0 -11 -7 -18.5t-17 -7.5q-7 0 -20 11.5t-23 11.5q-25 0 -60 -43v-196q0 -19 9.5 -23t55.5 -6v-6h-163z" />
    <glyph glyph-name="ssuperior" horiz-adv-x="256" 
d="M219 610h-6q-4 35 -31 62.5t-56 27.5t-44.5 -14.5t-15.5 -37.5q0 -29 26 -48t56.5 -28t56.5 -31.5t26 -57.5q0 -42 -30 -65.5t-78 -23.5t-90 21l-8 81h6q10 -49 36.5 -72.5t57.5 -23.5q32 0 49.5 17t17.5 44q0 29 -25.5 48t-56.5 28.5t-56.5 31.5t-25.5 56q0 36 28 58.5
t74 22.5t84 -19z" />
    <glyph glyph-name="tsuperior" horiz-adv-x="216" 
d="M113 694v-232q0 -56 38 -56q18 0 53 24l2 -5q-40 -31 -78 -31q-60 0 -60 72v228h-53v3l53 3l39 90h6v-90h84v-6h-84z" />
    <glyph glyph-name="usuperior" horiz-adv-x="368" 
d="M260 463v195q0 19 -10 23.5t-55 6.5v6l103 12h7v-264q0 -19 8 -23.5t45 -6.5v-6l-89 -12h-6v63h-3q-54 -63 -116 -63q-34 0 -55 21.5t-21 68.5v174q0 19 -8 23.5t-45 6.5v6l91 12h7v-232q0 -25 13 -40t37 -15q53 0 97 44z" />
    <glyph glyph-name="vsuperior" horiz-adv-x="331" 
d="M159 397l-111 257q-18 40 -43 40v6h143v-6q-36 -4 -45.5 -14.5t0.5 -27.5l88 -214h1l83 214q8 22 -2.5 30t-55.5 12v6h109v-6q-17 -2 -26 -10t-16 -26l-100 -261h-25z" />
    <glyph glyph-name="zsuperior" horiz-adv-x="282" 
d="M65 406h128q50 0 68 85h6l-9 -91h-243v6l190 288h-113q-24 0 -38.5 -21t-23.5 -64h-6l5 91h226v-6z" />
    <glyph glyph-name="rupiah" horiz-adv-x="1210" 
d="M780 440h5q31 30 76 50t88 20q96 0 151 -72.5t55 -187.5q0 -119 -67.5 -189.5t-162.5 -70.5q-34 0 -75 10t-65 30v-170q0 -33 14 -39.5t81 -10.5v-10h-245v10q67 4 81 10.5t14 39.5v140h-195q-37 34 -75 90l-66 95q-63 91 -109 120h-80v-245q0 -33 14 -39.5t81 -10.5v-10
h-245v10q67 4 81 10.5t14 39.5v580q0 33 -14 39.5t-81 10.5v10h279q110 0 170.5 -52.5t60.5 -137.5q0 -84 -62 -143t-199 -62q53 -20 81.5 -42t52.5 -53l92 -125q29 -40 67.5 -55t132.5 -19v419q0 33 -14 39.5t-81 10.5v10l140 20h10zM924 490q-71 0 -139 -60v-280
q0 -78 39.5 -114t90.5 -36q87 0 133.5 71t46.5 179q0 109 -49.5 174.5t-121.5 65.5zM320 690h-115v-375h85q113 0 164 54t51 131q0 33 -9 64t-28.5 60.5t-57.5 47.5t-90 18z" />
    <glyph glyph-name="zero.taboldstyle" 
d="M130 250q0 -123 46.5 -186.5t123.5 -63.5q76 0 123 63.5t47 186.5t-47 186.5t-123 63.5q-77 0 -123.5 -63.5t-46.5 -186.5zM70 250q0 118 64 189t166 71q101 0 165.5 -71t64.5 -189t-64.5 -189t-165.5 -71q-102 0 -166 71t-64 189z" />
    <glyph glyph-name="one.taboldstyle" 
d="M277 60v422l-197 -60l-3 8l245 80h10v-450q0 -32 29.5 -39t152.5 -11h8v-10h-435v10q143 4 167 13q23 8 23 37z" />
    <glyph glyph-name="two.taboldstyle" 
d="M295 500q-61 0 -95.5 -29.5t-34.5 -60.5q0 -12 17.5 -25t17.5 -25q0 -14 -11 -22t-24 -8q-40 0 -40 40q0 60 53 100t132 40q75 0 127.5 -38.5t52.5 -116.5q0 -76 -66.5 -143t-221.5 -157h298v-55h-400v10q57 31 96 54.5t87 60t77.5 70t49.5 78.5t20 92q0 56 -34 95.5
t-101 39.5z" />
    <glyph glyph-name="three.taboldstyle" 
d="M505 31q0 -61 -36 -106.5t-83.5 -65t-95.5 -19.5q-80 0 -137.5 40.5t-57.5 99.5q0 40 40 40q13 0 24 -8t11 -22q0 -12 -17.5 -30t-17.5 -30q0 -23 39.5 -51t100.5 -29q75 -1 122.5 42.5t47.5 123.5q0 98 -51 136t-149 38v10q30 -2 57.5 4t54 22.5t42.5 49.5t16 79
q0 59 -31 102t-94 43q-60 0 -95 -27.5t-35 -52.5q0 -12 17.5 -30t17.5 -30q0 -14 -11 -22t-24 -8q-40 0 -40 40q0 57 53.5 98.5t131.5 41.5q81 0 125.5 -43t44.5 -112q0 -60 -46 -101t-114 -57v-2q79 -10 134.5 -51t55.5 -113z" />
    <glyph glyph-name="four.taboldstyle" 
d="M430 -150h-55v150h-315v11l360 499h10v-500h110v-10h-110v-150zM375 10v422l-303 -422h303z" />
    <glyph glyph-name="five.taboldstyle" 
d="M160 500h325v-55h-317l-6 -180q79 0 140.5 -13.5t99 -35t61.5 -51t33 -59t9 -61.5q0 -92 -61 -148.5t-169 -56.5q-85 0 -132.5 36.5t-47.5 88.5q0 24 13 39.5t27 15.5q13 0 24 -8t11 -22q0 -12 -17.5 -28.5t-17.5 -31.5q0 -35 36 -57.5t94 -22.5q80 0 130 51.5t50 128.5
q0 35 -13.5 65.5t-43.5 58.5t-87.5 44.5t-135.5 16.5h-14z" />
    <glyph glyph-name="six.taboldstyle" 
d="M452 200q0 78 -40 134t-105 56q-41 0 -85 -20t-73 -50q-16 -137 29 -228.5t124 -91.5q64 0 107 57t43 143zM517 210q0 -99 -61.5 -159.5t-153.5 -60.5q-108 0 -163.5 74.5t-55.5 189.5q0 160 95 275t249 141l3 -7q-233 -67 -282 -327q83 69 174 69q88 0 141.5 -55.5
t53.5 -139.5z" />
    <glyph glyph-name="seven.taboldstyle" 
d="M507 490l-267 -640h-76l317 595h-265q-64 0 -85 -16t-28 -80h-10l5 151h409v-10z" />
    <glyph glyph-name="eight.taboldstyle" 
d="M107 490q0 77 63.5 123.5t141.5 46.5q77 0 133.5 -44.5t56.5 -110.5q0 -45 -32.5 -89t-96.5 -79q69 -32 106.5 -68.5t37.5 -93.5q0 -87 -68.5 -136t-156.5 -49q-98 0 -154 46.5t-56 113.5q0 58 37.5 107.5t114.5 82.5q-60 31 -93.5 65.5t-33.5 84.5zM132 160
q0 -76 48.5 -118t126.5 -42q68 0 111.5 47t43.5 103q0 20 -6 37.5t-20 33t-27.5 27t-37 24.5l-39 21t-44.5 21t-43 20q-52 -21 -82.5 -67.5t-30.5 -106.5zM452 500q0 69 -38.5 109.5t-111.5 40.5q-63 0 -99 -43t-36 -97q0 -16 5 -31.5t11.5 -26.5t21 -23.5t24.5 -20
t31.5 -18.5l32 -16.5t36 -17t35.5 -15.5q88 52 88 159z" />
    <glyph glyph-name="nine.taboldstyle" 
d="M148 300q0 -78 40 -134t105 -56q41 0 85 20t73 50q16 137 -29 228.5t-124 91.5q-64 0 -107 -57t-43 -143zM83 290q0 99 61.5 159.5t153.5 60.5q108 0 163.5 -74.5t55.5 -189.5q0 -160 -95 -275t-249 -141l-3 7q233 67 282 327q-83 -69 -174 -69q-88 0 -141.5 55.5
t-53.5 139.5z" />
    <glyph glyph-name="currency.taboldstyle" horiz-adv-x="484" 
d="M94 249q0 68 46 114l-74 90l8 8l74 -90q43 36 95 36t93 -36l74 90l8 -8l-73 -89q47 -47 47 -115q0 -69 -47 -114l72 -86l-8 -9l-73 87q-40 -35 -93 -35q-54 0 -95 35l-71 -87l-9 9l72 86q-46 46 -46 114zM106 249q0 -59 40.5 -102t96.5 -43t96.5 43t40.5 102t-40.5 102.5
t-96.5 43.5t-96.5 -43.5t-40.5 -102.5z" />
    <glyph glyph-name="cent.taboldstyle" 
d="M336 -78v68q-109 2 -183 75t-74 184q0 110 74 184.5t183 76.5v75h10v-75q87 -1 164 -42l7 -99h-8q-13 53 -56 92.5t-107 41.5v-505q71 1 112 41t55 93h8l-11 -99q-74 -42 -164 -43v-68h-10zM136 249q0 -105 58 -177t142 -74v505q-84 -2 -142 -75.5t-58 -178.5z" />
    <glyph glyph-name="dollar.taboldstyle" 
d="M459 361h-9q-15 62 -53 100.5t-87 41.5l-3 -214q89 -38 118 -62q46 -39 46 -96q0 -62 -45 -100.5t-122 -40.5l-1 -70h-10l1 70q-89 2 -158 37l-8 125h8q13 -80 58 -116t100 -38l3 237q-87 35 -114 57q-44 36 -44 89t42.5 90t118.5 39l1 70h10l-1 -70q75 -2 140 -32z
M420 118q0 41 -29 65.5t-84 47.5l-3 -233q53 1 84.5 37t31.5 83zM190 401q0 -37 27 -60.5t80 -47.5l3 210q-49 -1 -79.5 -31.5t-30.5 -70.5z" />
    <glyph glyph-name="Euro.taboldstyle" 
d="M54 307h56q19 90 90 146.5t166 56.5q94 0 169 -42l7 -99h-8q-13 54 -57.5 94t-110.5 40q-73 0 -128.5 -55t-71.5 -141h174l-4 -7h-171q-4 -23 -4 -51q0 -29 4 -50h175l-4 -8h-170q16 -85 71.5 -139t128.5 -54q74 0 116 40t56 94h8l-11 -99q-76 -43 -169 -43
q-95 0 -166 55.5t-90 145.5h-56v8h54q-4 21 -4 50q0 23 5 51h-55v7z" />
    <glyph glyph-name="franc.taboldstyle" 
d="M54 307h56q19 90 90 146.5t166 56.5q94 0 169 -42l7 -99h-8q-13 54 -57.5 94t-110.5 40q-73 0 -128.5 -55t-71.5 -141h174l-4 -7h-171q-4 -23 -4 -51q0 -29 4 -50h175l-4 -8h-170q16 -85 71.5 -139t128.5 -54q74 0 116 40t56 94h8l-11 -99q-76 -43 -169 -43
q-95 0 -166 55.5t-90 145.5h-56v8h54q-4 21 -4 50q0 23 5 51h-55v7z" />
    <glyph glyph-name="sterling.taboldstyle" 
d="M104 252h102l-20.5 32l-21.5 34t-14.5 31.5t-6.5 35.5q0 53 43 89t120 36q80 0 144 -32l8 -116h-8q-15 64 -54.5 102.5t-91.5 38.5q-49 0 -79.5 -30.5t-30.5 -72.5q0 -31 27 -84t31 -64h129v-8h-127q8 -24 8 -48q0 -70 -55 -143q39 -2 108 -12.5t90 -10.5q68 0 92 86h9
q0 -1 -3.5 -13.5t-5.5 -18l-6.5 -18.5t-9 -20.5l-11.5 -18.5t-15.5 -17.5t-19 -13.5t-24 -10t-28.5 -3q-34 0 -87.5 29t-93.5 35q-45 -57 -90 -57q-8 0 -13.5 5t-5.5 13q0 14 13 24t31.5 14t32 5.5t22.5 1.5h5q34 47 34 121q0 30 -20 70h-107v8z" />
    <glyph glyph-name="yen.taboldstyle" 
d="M162 179h121l-152 267q-12 21 -28 32.5t-50 14.5v7h194v-7q-48 -5 -59.5 -17t2.5 -34l142 -260h2l120 244q18 30 4.5 46t-72.5 21v7h160v-7q-31 -5 -47 -16t-27 -33l-131 -265h126v-8h-128v-129q0 -22 11 -27t62 -8v-7h-198v7q51 3 62 8t11 27v129h-125v8z" />
    <glyph glyph-name="lira.taboldstyle" 
d="M54 307h56q19 90 90 146.5t166 56.5q94 0 169 -42l7 -99h-8q-13 54 -57.5 94t-110.5 40q-73 0 -128.5 -55t-71.5 -141h174l-4 -7h-171q-4 -23 -4 -51q0 -29 4 -50h175l-4 -8h-170q16 -85 71.5 -139t128.5 -54q74 0 116 40t56 94h8l-11 -99q-76 -43 -169 -43
q-95 0 -166 55.5t-90 145.5h-56v8h54q-4 21 -4 50q0 23 5 51h-55v7z" />
    <glyph glyph-name="peseta.taboldstyle" 
d="M54 307h56q19 90 90 146.5t166 56.5q94 0 169 -42l7 -99h-8q-13 54 -57.5 94t-110.5 40q-73 0 -128.5 -55t-71.5 -141h174l-4 -7h-171q-4 -23 -4 -51q0 -29 4 -50h175l-4 -8h-170q16 -85 71.5 -139t128.5 -54q74 0 116 40t56 94h8l-11 -99q-76 -43 -169 -43
q-95 0 -166 55.5t-90 145.5h-56v8h54q-4 21 -4 50q0 23 5 51h-55v7z" />
    <glyph glyph-name="colonmonetary.taboldstyle" 
d="M341 -2q74 0 116 40t56 94h8l-11 -99q-76 -43 -169 -43q-111 0 -186.5 73.5t-75.5 185.5t76 186.5t186 74.5q94 0 169 -42l7 -99h-8q-12 42 -38 74l-235 -411q46 -34 105 -34zM136 249q0 -94 48 -164l229 402q-34 16 -72 16q-86 0 -145.5 -74t-59.5 -180zM189 78
q17 -22 40 -41l236 413q-21 21 -44 33z" />
    <glyph glyph-name="florin.taboldstyle" 
d="M312 490l-50 -470q-11 -107 -56 -168.5t-98 -61.5q-42 0 -42 32q0 15 11 26.5t28 11.5q13 0 33.5 -20t25.5 -20q22 0 34 110l59 560h-146l1 5l146 5l4 40q3 33 14 64t31.5 60.5t55.5 47.5t79 18q39 0 65.5 -19.5t26.5 -49.5q0 -27 -13 -39t-30 -12q-29 0 -29 23
q0 10 9.5 22t9.5 23q0 17 -13.5 29.5t-32.5 12.5q-100 0 -118 -180l-4 -40h180l-2 -10h-179z" />
    <glyph glyph-name="numbersign.taboldstyle" 
d="M63 243h142v169h-142v10h142v143h10v-143h169v143h10v-143h143v-10h-143v-169h143v-10h-143v-142h-10v142h-169v-142h-10v142h-142v10zM215 412v-169h169v169h-169z" />
    <glyph glyph-name="zero.denominator" horiz-adv-x="344" 
d="M30 195q0 81 39 141t103 60q63 0 102.5 -60t39.5 -141t-39.5 -141t-102.5 -60q-64 0 -103 60t-39 141zM265 195q0 90 -25 142.5t-68 52.5t-68 -52.5t-25 -142.5t25 -142.5t68 -52.5t68 52.5t25 142.5z" />
    <glyph glyph-name="one.denominator" horiz-adv-x="330" 
d="M146 35v340l-114 -35l-2 5l155 51h6v-361q0 -18 18 -22.5t91 -6.5v-6h-264v6q74 2 92 6.5t18 22.5z" />
    <glyph glyph-name="two.denominator" horiz-adv-x="306" 
d="M144 389q-35 0 -54 -17t-19 -35q0 -9 11.5 -17.5t11.5 -15.5q0 -9 -7.5 -14t-16.5 -5q-27 0 -27 25q0 36 32.5 61t80.5 25t80.5 -28.5t32.5 -82.5q0 -60 -44.5 -115t-150.5 -129h202v-41h-246v6q102 86 146.5 152t44.5 134q0 39 -19.5 68t-57.5 29z" />
    <glyph glyph-name="three.denominator" horiz-adv-x="311" 
d="M281 108q0 -54 -41.5 -84t-91.5 -30q-48 0 -83 25t-35 61q0 25 27 25q9 0 16 -5t7 -14q0 -7 -10.5 -19t-10.5 -20q0 -14 22 -30t56 -17q42 0 68.5 25.5t26.5 74.5q0 58 -28.5 81t-83.5 23v6q38 -3 67.5 19t29.5 73q0 35 -18 61t-53 26q-34 0 -53.5 -15.5t-19.5 -30.5
q0 -9 11 -20.5t11 -18.5q0 -9 -7.5 -14t-16.5 -5q-26 0 -26 25q0 35 32.5 60.5t80.5 25.5q50 0 77.5 -25.5t27.5 -67.5q0 -36 -28.5 -61t-75.5 -34v-1q53 -6 87.5 -31t34.5 -68z" />
    <glyph glyph-name="four.denominator" horiz-adv-x="351" 
d="M260 0h-46v111h-184v6l224 279h6v-279h61v-6h-61v-111zM214 117v221l-177 -221h177z" />
    <glyph glyph-name="five.denominator" horiz-adv-x="311" 
d="M70 390h198v-41h-194l-3 -98q116 0 163 -39t47 -93q0 -57 -38 -91t-105 -34q-50 0 -79 22.5t-29 53.5q0 16 8.5 25.5t18.5 9.5q23 0 23 -19q0 -7 -11 -18.5t-11 -20.5q0 -21 20.5 -34t53.5 -13q46 0 73.5 29.5t27.5 74.5q0 46 -37.5 78t-122.5 32h-9z" />
    <glyph glyph-name="six.denominator" horiz-adv-x="327" 
d="M247 120q0 49 -22 81.5t-59 32.5q-49 0 -84 -37q-8 -83 16 -140t67 -57q35 0 58.5 34t23.5 86zM297 127q0 -60 -38 -96.5t-94 -36.5q-65 0 -100 45t-35 113q0 96 58.5 165t151.5 85l2 -4q-133 -38 -161 -192q47 39 100 39t84.5 -33.5t31.5 -84.5z" />
    <glyph glyph-name="seven.denominator" horiz-adv-x="311" 
d="M281 384l-152 -384h-58l193 349h-162q-36 0 -49 -9.5t-17 -44.5h-6l3 95h248v-6z" />
    <glyph glyph-name="eight.denominator" horiz-adv-x="326" 
d="M44 292q0 47 38.5 75.5t87.5 28.5q47 0 81.5 -26t34.5 -66q0 -58 -79 -96q43 -21 66 -43.5t23 -58.5q0 -54 -41.5 -83t-96.5 -29q-60 0 -94 27.5t-34 66.5q0 34 23.5 63.5t68.5 47.5q-37 20 -57.5 41t-20.5 52zM67 94q0 -46 27.5 -70t70.5 -24q38 0 62.5 26.5t24.5 59.5
q0 14 -6 26.5t-12.5 20.5t-22.5 18.5t-24 14.5l-30.5 15l-28.5 14q-28 -12 -44.5 -39.5t-16.5 -61.5zM250 305q0 40 -21.5 62.5t-61.5 22.5q-35 0 -55.5 -24.5t-20.5 -55.5q0 -8 2 -15t4 -12.5t8 -12l9.5 -10.5t12 -9.5t12.5 -8.5t15 -8.5l15 -7.5t16.5 -7.5t15.5 -7.5
q49 30 49 94z" />
    <glyph glyph-name="nine.denominator" horiz-adv-x="327" 
d="M80 270q0 -49 22 -81.5t59 -32.5q49 0 84 37q8 83 -16 140t-67 57q-35 0 -58.5 -34t-23.5 -86zM30 263q0 60 38 96.5t94 36.5q65 0 100 -45t35 -113q0 -96 -58.5 -165t-151.5 -85l-2 4q131 37 161 192q-47 -39 -100 -39t-84.5 33.5t-31.5 84.5z" />
    <glyph glyph-name="zero.numerator" horiz-adv-x="344" 
d="M30 505q0 81 39 141t103 60q63 0 102.5 -60t39.5 -141t-39.5 -141t-102.5 -60q-64 0 -103 60t-39 141zM265 505q0 90 -25 142.5t-68 52.5t-68 -52.5t-25 -142.5t25 -142.5t68 -52.5t68 52.5t25 142.5z" />
    <glyph glyph-name="one.numerator" horiz-adv-x="330" 
d="M146 345v340l-114 -35l-2 5l155 51h6v-361q0 -18 18 -22.5t91 -6.5v-6h-264v6q74 2 92 6.5t18 22.5z" />
    <glyph glyph-name="two.numerator" horiz-adv-x="306" 
d="M144 699q-35 0 -54 -17t-19 -35q0 -9 11.5 -17.5t11.5 -15.5q0 -9 -7.5 -14t-16.5 -5q-27 0 -27 25q0 36 32.5 61t80.5 25t80.5 -28.5t32.5 -82.5q0 -60 -44.5 -115t-150.5 -129h202v-41h-246v6q102 86 146.5 152t44.5 134q0 39 -19.5 68t-57.5 29z" />
    <glyph glyph-name="three.numerator" horiz-adv-x="311" 
d="M281 418q0 -54 -41.5 -84t-91.5 -30q-48 0 -83 25t-35 61q0 25 27 25q9 0 16 -5t7 -14q0 -7 -10.5 -19t-10.5 -20q0 -14 22 -30t56 -17q42 0 68.5 25.5t26.5 74.5q0 58 -28.5 81t-83.5 23v6q38 -3 67.5 19t29.5 73q0 35 -18 61t-53 26q-34 0 -53.5 -15.5t-19.5 -30.5
q0 -9 11 -20.5t11 -18.5q0 -9 -7.5 -14t-16.5 -5q-26 0 -26 25q0 35 32.5 60.5t80.5 25.5q50 0 77.5 -25.5t27.5 -67.5q0 -36 -28.5 -61t-75.5 -34v-1q53 -6 87.5 -31t34.5 -68z" />
    <glyph glyph-name="four.numerator" horiz-adv-x="351" 
d="M260 310h-46v111h-184v6l224 279h6v-279h61v-6h-61v-111zM214 427v221l-177 -221h177z" />
    <glyph glyph-name="five.numerator" horiz-adv-x="311" 
d="M70 700h198v-41h-194l-3 -98q116 0 163 -39t47 -93q0 -57 -38 -91t-105 -34q-50 0 -79 22.5t-29 53.5q0 16 8.5 25.5t18.5 9.5q23 0 23 -19q0 -7 -11 -18.5t-11 -20.5q0 -21 20.5 -34t53.5 -13q46 0 73.5 29.5t27.5 74.5q0 46 -37.5 78t-122.5 32h-9z" />
    <glyph glyph-name="six.numerator" horiz-adv-x="327" 
d="M247 430q0 49 -22 81.5t-59 32.5q-49 0 -84 -37q-8 -83 16 -140t67 -57q35 0 58.5 34t23.5 86zM297 437q0 -60 -38 -96.5t-94 -36.5q-65 0 -100 45t-35 113q0 96 58.5 165t151.5 85l2 -4q-133 -38 -161 -192q47 39 100 39t84.5 -33.5t31.5 -84.5z" />
    <glyph glyph-name="seven.numerator" horiz-adv-x="311" 
d="M281 694l-152 -384h-58l193 349h-162q-36 0 -49 -9.5t-17 -44.5h-6l3 95h248v-6z" />
    <glyph glyph-name="eight.numerator" horiz-adv-x="326" 
d="M44 602q0 47 38.5 75.5t87.5 28.5q47 0 81.5 -26t34.5 -66q0 -58 -79 -96q43 -21 66 -43.5t23 -58.5q0 -54 -41.5 -83t-96.5 -29q-60 0 -94 27.5t-34 66.5q0 34 23.5 63.5t68.5 47.5q-37 20 -57.5 41t-20.5 52zM67 404q0 -46 27.5 -70t70.5 -24q38 0 62.5 26.5t24.5 59.5
q0 14 -6 26.5t-12.5 20.5t-22.5 18.5t-24 14.5l-30.5 15l-28.5 14q-28 -12 -44.5 -39.5t-16.5 -61.5zM250 615q0 40 -21.5 62.5t-61.5 22.5q-35 0 -55.5 -24.5t-20.5 -55.5q0 -8 2 -15t4 -12.5t8 -12l9.5 -10.5t12 -9.5t12.5 -8.5t15 -8.5l15 -7.5t16.5 -7.5t15.5 -7.5
q49 30 49 94z" />
    <glyph glyph-name="nine.numerator" horiz-adv-x="327" 
d="M80 580q0 -49 22 -81.5t59 -32.5q49 0 84 37q8 83 -16 140t-67 57q-35 0 -58.5 -34t-23.5 -86zM30 573q0 60 38 96.5t94 36.5q65 0 100 -45t35 -113q0 -96 -58.5 -165t-151.5 -85l-2 4q131 37 161 192q-47 -39 -100 -39t-84.5 33.5t-31.5 84.5z" />
    <glyph glyph-name="percent.oldstyle" horiz-adv-x="638" 
d="M454 500h9l-276 -500h-10zM346 112q1 50 35.5 84.5t88.5 34.5q51 0 85 -34.5t32 -84.5q-2 -51 -36.5 -85.5t-88.5 -34.5q-51 0 -84.5 35t-31.5 85zM382 112q0 -53 23 -84.5t61 -31.5t60.5 31.5t22.5 84.5q0 52 -22.5 83.5t-60.5 31.5t-61 -31.5t-23 -83.5zM51 387
q2 51 36 85.5t88 34.5q51 0 85 -35t32 -85q-2 -51 -36.5 -85t-88.5 -34q-50 0 -83.5 34.5t-32.5 84.5zM88 387q0 -52 23 -83.5t60 -31.5q38 0 60.5 31.5t22.5 83.5q0 53 -22.5 84.5t-60.5 31.5t-60.5 -32t-22.5 -84z" />
    <glyph glyph-name="perthousand.oldstyle" horiz-adv-x="918" 
d="M454 500h9l-276 -500h-10zM346 112q1 50 35.5 84.5t88.5 34.5q51 0 85 -34.5t32 -84.5q-2 -51 -36.5 -85.5t-88.5 -34.5q-51 0 -84.5 35t-31.5 85zM382 112q0 -53 23 -84.5t61 -31.5t60.5 31.5t22.5 84.5q0 52 -22.5 83.5t-60.5 31.5t-61 -31.5t-23 -83.5zM51 387
q2 51 36 85.5t88 34.5q51 0 85 -35t32 -85q-2 -51 -36.5 -85t-88.5 -34q-50 0 -83.5 34.5t-32.5 84.5zM88 387q0 -52 23 -83.5t60 -31.5q38 0 60.5 31.5t22.5 83.5q0 53 -22.5 84.5t-60.5 31.5t-60.5 -32t-22.5 -84zM626 112q1 50 35.5 84.5t88.5 34.5q51 0 85 -34.5
t32 -84.5q-2 -51 -36.5 -85.5t-88.5 -34.5q-51 0 -84.5 35t-31.5 85zM662 112q0 -53 23 -84.5t61 -31.5t60.5 31.5t22.5 84.5q0 52 -22.5 83.5t-60.5 31.5t-61 -31.5t-23 -83.5z" />
    <glyph glyph-name="threequartersemdash" horiz-adv-x="634" 
d="M60 273h514v-10h-514v10z" />
    <glyph glyph-name="overscore" horiz-adv-x="475" 
d="M100 567h275v-10h-275v10z" />
    <glyph glyph-name="Germandbls" horiz-adv-x="635" 
d="M475 600q0 -28 -18.5 -56.5t-41 -48t-41 -42.5t-18.5 -40q0 -24 24 -48.5t58.5 -46.5t69 -46.5t58.5 -59.5t24 -75q0 -69 -47 -108t-118 -39q-61 0 -127 35l-13 135h10q32 -160 131 -160q49 0 79 35.5t30 82.5q0 41 -21.5 72t-52.5 50.5t-62 37t-52.5 40t-21.5 50.5
q0 27 25 63.5t50 80t25 88.5t-24 72.5t-61 27.5q-66 0 -105.5 -54.5t-39.5 -155.5v-490h-150v10q67 4 81 10.5t14 39.5v410h-95v5l95 5v10q0 81 59.5 150.5t145.5 69.5q57 0 93.5 -31t36.5 -79z" />
    <glyph glyph-name="Dotlessi" horiz-adv-x="335" 
d="M140 60v580q0 33 -14 39.5t-81 10.5v10h245v-10q-67 -4 -81 -10.5t-14 -39.5v-580q0 -33 14 -39.5t81 -10.5v-10h-245v10q67 4 81 10.5t14 39.5z" />
    <glyph glyph-name="Dotlessj" horiz-adv-x="365" 
d="M180 175v465q0 33 -14 39.5t-81 10.5v10h245v-10q-67 -4 -81 -10.5t-14 -39.5v-440q0 -95 -54 -152.5t-118 -57.5q-53 0 -53 35q0 30 40 30q9 0 30 -17.5t40 -17.5q60 0 60 155z" />
    <glyph glyph-name="AT" horiz-adv-x="850" 
d="M494 272l46 232q-30 33 -75 33q-35 0 -64 -25t-45 -64t-24.5 -79.5t-8.5 -77.5q0 -55 14.5 -93t45.5 -38q34 0 68 32t43 80zM561 506l36 29h5l-52 -278q-4 -21 -5 -33.5t0.5 -28.5t12.5 -24t31 -8q49 0 100 76.5t51 181.5q0 132 -81.5 205t-198.5 73q-131 0 -231.5 -118
t-100.5 -266q0 -141 79.5 -223.5t212.5 -82.5q63 0 131 21.5t116 59.5l4 -6q-114 -95 -272 -95q-146 0 -232.5 90.5t-86.5 233.5q0 166 114.5 281t267.5 115q132 0 220 -74.5t88 -209.5q0 -118 -62 -195.5t-138 -77.5q-38 0 -58 21t-22 53q-22 -38 -55 -57t-66 -19
q-53 0 -82 39t-29 97q0 95 59 177.5t143 82.5q61 0 101 -40z" />
    <glyph glyph-name="Ampersand" horiz-adv-x="728" 
d="M132 195q0 -84 36 -134.5t110 -50.5q40 0 93 22.5t87 63.5l-228 273q-40 -27 -69 -77t-29 -97zM413 577q0 55 -27.5 89t-84.5 34q-54 0 -83 -35t-29 -74q0 -51 19 -91t66 -99q139 73 139 176zM539 0l-74 88q-94 -98 -210 -98q-84 0 -134.5 49t-50.5 130q0 22 4.5 41.5
t16 38l19 30.5t28 30l27.5 24t31.5 24t27.5 21q-46 55 -69.5 97t-23.5 85q0 66 48.5 108t117.5 42q67 0 106.5 -34.5t39.5 -96.5q0 -44 -41.5 -92.5t-121.5 -92.5l212 -255q59 88 86 164q14 37 -13.5 58t-90.5 29v10h214v-10q-20 -2 -34 -6.5t-22 -8t-15 -13.5t-9 -15
l-8 -21t-9 -23q-39 -95 -92 -170l61 -66q24 -28 43.5 -40.5t49.5 -16.5v-10h-114z" />
    <glyph glyph-name="Asciicircum" horiz-adv-x="458" 
d="M229 841l-127 -101h-2l124 180h9l125 -180h-2z" />
    <glyph glyph-name="Commaaccent" horiz-adv-x="320" 
d="M155 -30q34 0 49.5 -23t15.5 -57q0 -76 -91 -125l-4 7q60 34 60 62q0 6 -0.5 10t-8 10t-21.5 6q-24 0 -39.5 16.5t-15.5 38.5q0 24 16.5 39.5t38.5 15.5z" />
    <glyph glyph-name="uni02C9.uc" horiz-adv-x="504" 
d="M100 782h304v-10h-304v10z" />
    <glyph glyph-name="Asciitilde" horiz-adv-x="538" 
d="M104 764l-4 2q36 74 58 93q17 14 33 14q17 0 84.5 -21t90.5 -21q36 0 66 45l5 -4q-48 -96 -92 -96q-21 0 -84.5 20t-84.5 20t-36 -11.5t-36 -40.5z" />
    <glyph glyph-name="Undercommaaccent" horiz-adv-x="320" 
d="M155 -30q34 0 49.5 -23t15.5 -57q0 -76 -91 -125l-4 7q60 34 60 62q0 6 -0.5 10t-8 10t-21.5 6q-24 0 -39.5 16.5t-15.5 38.5q0 24 16.5 39.5t38.5 15.5z" />
    <glyph glyph-name="idotaccent" horiz-adv-x="295" 
d="M105 629q0 20 14.5 34.5t35.5 14.5t35.5 -14.5t14.5 -34.5q0 -21 -14.5 -35t-35.5 -14t-35.5 14t-14.5 35zM185 510v-450q0 -33 14 -39.5t81 -10.5v-10h-245v10q67 4 81 10.5t14 39.5v370q0 33 -14 39.5t-81 10.5v10l140 20h10z" />
    <glyph glyph-name="egravesuperior" horiz-adv-x="299" 
d="M172 706q42 0 72 -22.5t30 -70.5q0 -21 -6 -36h-198v-15q0 -68 32.5 -107.5t83.5 -39.5q46 0 80 28l3 -5q-48 -44 -103 -44q-66 0 -103.5 44.5t-37.5 108.5q0 73 43.5 116t103.5 43zM169 700q-37 0 -65 -33t-33 -84h152q4 19 4 47q-1 70 -58 70zM179 734l-81 61
q-12 8 -12 20q0 9 7.5 15.5t16.5 5.5q11 0 18 -12l53 -89z" />
    <glyph glyph-name="uaccutesuperior" horiz-adv-x="368" 
d="M260 463v195q0 19 -10 23.5t-55 6.5v6l103 12h7v-264q0 -19 8 -23.5t45 -6.5v-6l-89 -12h-6v63h-3q-54 -63 -116 -63q-34 0 -55 21.5t-21 68.5v174q0 19 -8 23.5t-45 6.5v6l91 12h7v-232q0 -25 13 -40t37 -15q53 0 97 44zM249 795l-81 -61l-2 1l53 89q7 12 18 12
q9 1 16.5 -5.5t7.5 -15.5q0 -12 -12 -20z" />
    <glyph glyph-name="Periodcentered" horiz-adv-x="356" 
d="M124 338q0 23 16 39t39 16t39 -16t16 -39t-16 -39t-39 -16t-39 16t-16 39z" />
    <glyph glyph-name="Hyphen" horiz-adv-x="434" 
d="M60 363h314v-10h-314v10z" />
    <glyph glyph-name="Endash" horiz-adv-x="534" 
d="M60 363h414v-10h-414v10z" />
    <glyph glyph-name="Emdash" horiz-adv-x="634" 
d="M60 363h514v-10h-514v10z" />
    <glyph glyph-name="Questiondown" horiz-adv-x="485" 
d="M275 0q60 0 95 27.5t35 52.5q0 19 -17.5 34t-17.5 26q0 14 11 22t24 8q40 0 40 -40q0 -60 -53 -100t-132 -40q-74 0 -127 45t-53 130q0 44 21.5 84.5t56 70t66 49t61.5 31.5l-8 160h14l8 -163q-66 -32 -112.5 -91.5t-46.5 -140.5q0 -67 34.5 -116t100.5 -49zM335 670
q0 -23 -16 -39t-39 -16t-39 16t-16 39t16 39t39 16t39 -16t16 -39z" />
    <glyph glyph-name="Exclamdown" horiz-adv-x="310" 
d="M151 560h10q1 -96 16 -300t15 -230q0 -40 -36 -40t-36 40q0 30 14.5 233.5t16.5 296.5zM100 670q0 23 16 39t39 16t39 -16t16 -39t-16 -39t-39 -16t-39 16t-16 39z" />
    <glyph glyph-name="Guilsinglleft" horiz-adv-x="474" 
d="M374 535l-183 -176l183 -179v-11l-274 181v17l274 180v-12z" />
    <glyph glyph-name="Guilsinglright" horiz-adv-x="474" 
d="M283 359l-183 176v12l274 -180v-17l-274 -181v11z" />
    <glyph glyph-name="Guillemotleft" horiz-adv-x="724" 
d="M374 535l-183 -176l183 -179v-11l-274 181v17l274 180v-12zM624 535l-183 -176l183 -179v-11l-274 181v17l274 180v-12z" />
    <glyph glyph-name="Guillemotright" horiz-adv-x="724" 
d="M533 359l-183 176v12l274 -180v-17l-274 -181v11zM283 359l-183 176v12l274 -180v-17l-274 -181v11z" />
    <glyph glyph-name="Parenleft" horiz-adv-x="334" 
d="M110 340q0 135 48.5 255t131.5 205h4q-68 -97 -96 -208t-28 -252t28 -252t96 -208h-4q-83 85 -131.5 205t-48.5 255z" />
    <glyph glyph-name="Parenright" horiz-adv-x="334" 
d="M224 340q0 -135 -48.5 -255t-131.5 -205h-4q68 97 96 208t28 252t-28 252t-96 208h4q83 -85 131.5 -205t48.5 -255z" />
    <glyph glyph-name="Bracketleft" horiz-adv-x="320" 
d="M300 -89v-11h-200v900h200v-11h-150v-878h150z" />
    <glyph glyph-name="Bracketright" horiz-adv-x="320" 
d="M20 789v11h200v-900h-200v11h150v878h-150z" />
    <glyph glyph-name="Braceleft" horiz-adv-x="364" 
d="M61 351q28 -9 39.5 -13t38 -16.5t39 -24t23.5 -31.5t11 -44q0 -32 -6.5 -105t-6.5 -90q0 -66 38 -90.5t107 -26.5v-10q-103 0 -159.5 34.5t-56.5 104.5q0 34 12 95t12 97q0 105 -132 118v3q132 13 132 118q0 36 -12 96.5t-12 94.5q0 70 56.5 104.5t159.5 34.5v-10
q-68 -2 -106.5 -27.5t-38.5 -89.5q0 -17 6.5 -89.5t6.5 -104.5q0 -24 -11.5 -44t-23.5 -31t-39 -23.5t-37.5 -16.5t-39.5 -13z" />
    <glyph glyph-name="Braceright" horiz-adv-x="364" 
d="M303 351q-29 9 -39.5 13t-37.5 16.5t-39 23.5t-23.5 31t-11.5 44q0 32 6.5 104.5t6.5 89.5q0 64 -38.5 89.5t-106.5 27.5v10q103 0 159.5 -34.5t56.5 -104.5q0 -34 -12 -94.5t-12 -96.5q0 -105 132 -118v-3q-132 -13 -132 -118q0 -36 12 -97t12 -95q0 -70 -56.5 -104.5
t-159.5 -34.5v10q69 2 107 26.5t38 90.5q0 17 -6.5 90t-6.5 105q0 24 11 44t23.5 31.5t39 24t38 16.5t39.5 13z" />
    <glyph glyph-name="zeroslash" horiz-adv-x="590" 
d="M65 325q0 135 63 235t167 100t167 -100t63 -235t-63 -235t-167 -100t-167 100t-63 235zM465 325q0 185 -67 271l-205 -544q41 -52 102 -52q79 0 124.5 87.5t45.5 237.5zM295 650q-79 0 -124.5 -87.5t-45.5 -237.5q0 -176 61 -264l204 544q-40 45 -95 45z" />
    <glyph glyph-name="zero.tab" 
d="M70 325q0 135 63 235t167 100t167 -100t63 -235t-63 -235t-167 -100t-167 100t-63 235zM470 325q0 150 -45.5 237.5t-124.5 87.5t-124.5 -87.5t-45.5 -237.5t45.5 -237.5t124.5 -87.5t124.5 87.5t45.5 237.5z" />
    <glyph glyph-name="zeroslash.tab" 
d="M70 325q0 135 63 235t167 100t167 -100t63 -235t-63 -235t-167 -100t-167 100t-63 235zM470 325q0 185 -67 271l-205 -544q41 -52 102 -52q79 0 124.5 87.5t45.5 237.5zM300 650q-79 0 -124.5 -87.5t-45.5 -237.5q0 -176 61 -264l204 544q-40 45 -95 45z" />
    <glyph glyph-name="zeroslash.taboldstyle" 
d="M70 250q0 118 64 189t166 71q101 0 165.5 -71t64.5 -189t-64.5 -189t-165.5 -71q-102 0 -166 71t-64 189zM130 250q0 -164 83 -223l168 450q-37 23 -81 23q-77 0 -123.5 -63.5t-46.5 -186.5zM300 0q76 0 123 63.5t47 186.5q0 161 -80 221l-169 -450q35 -21 79 -21z" />
    <glyph glyph-name="one.tab" 
d="M277 60v572l-197 -60l-3 8l245 80h10v-600q0 -32 32 -39t158 -11v-10h-435v10q126 4 158 11t32 39z" />
    <glyph glyph-name="two.tab" 
d="M295 650q-61 0 -95.5 -29.5t-34.5 -60.5q0 -12 17.5 -25t17.5 -25q0 -14 -11 -22t-24 -8q-40 0 -40 40q0 60 53 100t132 40q75 0 127.5 -47t52.5 -138q0 -103 -73.5 -196.5t-249.5 -223.5h333v-55h-400v10q174 136 252 248t78 227q0 67 -34.5 116t-100.5 49z" />
    <glyph glyph-name="three.tab" 
d="M505 181q0 -61 -36 -106.5t-83.5 -65t-95.5 -19.5q-80 0 -137.5 40.5t-57.5 99.5q0 40 40 40q13 0 24 -8t11 -22q0 -12 -17.5 -30t-17.5 -30q0 -23 39.5 -51t100.5 -29q75 -1 122.5 42.5t47.5 123.5q0 98 -51 136t-149 38v10q30 -2 57.5 4t54 22.5t42.5 49.5t16 79
q0 59 -31 102t-94 43q-60 0 -95 -27.5t-35 -52.5q0 -12 17.5 -30t17.5 -30q0 -14 -11 -22t-24 -8q-40 0 -40 40q0 57 53.5 98.5t131.5 41.5q81 0 125.5 -43t44.5 -112q0 -60 -46 -101t-114 -57v-2q79 -10 134.5 -51t55.5 -113z" />
    <glyph glyph-name="four.tab" 
d="M430 0h-55v189h-315v11l360 460h10v-461h110v-10h-110v-189zM375 199v386l-303 -386h303z" />
    <glyph glyph-name="five.tab" 
d="M160 650h325v-55h-317l-6 -180q79 0 140.5 -13.5t99 -35t61.5 -51t33 -59t9 -61.5q0 -92 -61 -148.5t-169 -56.5q-85 0 -132.5 36.5t-47.5 88.5q0 24 13 39.5t27 15.5q13 0 24 -8t11 -22q0 -12 -17.5 -28.5t-17.5 -31.5q0 -35 36 -57.5t94 -22.5q80 0 130 51.5t50 128.5
q0 35 -13.5 65.5t-43.5 58.5t-87.5 44.5t-135.5 16.5h-14z" />
    <glyph glyph-name="six.tab" 
d="M452 200q0 78 -40 134t-105 56q-41 0 -85 -20t-73 -50q-16 -137 29 -228.5t124 -91.5q64 0 107 57t43 143zM517 210q0 -99 -61.5 -159.5t-153.5 -60.5q-108 0 -163.5 74.5t-55.5 189.5q0 160 95 275t249 141l3 -7q-233 -67 -282 -327q83 69 174 69q88 0 141.5 -55.5
t53.5 -139.5z" />
    <glyph glyph-name="seven.tab" 
d="M507 640l-267 -640h-76l317 595h-265q-64 0 -85 -16t-28 -80h-10l5 151h409v-10z" />
    <glyph glyph-name="eight.tab" 
d="M107 490q0 77 63.5 123.5t141.5 46.5q77 0 133.5 -44.5t56.5 -110.5q0 -45 -32.5 -89t-96.5 -79q69 -32 106.5 -68.5t37.5 -93.5q0 -87 -68.5 -136t-156.5 -49q-98 0 -154 46.5t-56 113.5q0 58 37.5 107.5t114.5 82.5q-60 31 -93.5 65.5t-33.5 84.5zM132 160
q0 -76 48.5 -118t126.5 -42q68 0 111.5 47t43.5 103q0 20 -6 37.5t-20 33t-27.5 27t-37 24.5l-39 21t-44.5 21t-43 20q-52 -21 -82.5 -67.5t-30.5 -106.5zM452 500q0 69 -38.5 109.5t-111.5 40.5q-63 0 -99 -43t-36 -97q0 -16 5 -31.5t11.5 -26.5t21 -23.5t24.5 -20
t31.5 -18.5l32 -16.5t36 -17t35.5 -15.5q88 52 88 159z" />
    <glyph glyph-name="nine.tab" 
d="M148 450q0 -78 40 -134t105 -56q41 0 85 20t73 50q16 137 -29 228.5t-124 91.5q-64 0 -107 -57t-43 -143zM83 440q0 99 61.5 159.5t153.5 60.5q108 0 163.5 -74.5t55.5 -189.5q0 -160 -95 -275t-249 -141l-3 7q233 67 282 327q-83 -69 -174 -69q-88 0 -141.5 55.5
t-53.5 139.5z" />
    <glyph glyph-name="zero.oldstyle" horiz-adv-x="590" 
d="M125 250q0 -123 46.5 -186.5t123.5 -63.5q76 0 123 63.5t47 186.5t-47 186.5t-123 63.5q-77 0 -123.5 -63.5t-46.5 -186.5zM65 250q0 118 64 189t166 71q101 0 165.5 -71t64.5 -189t-64.5 -189t-165.5 -71q-102 0 -166 71t-64 189z" />
    <glyph glyph-name="zeroslash.oldstyle" horiz-adv-x="590" 
d="M65 250q0 118 64 189t166 71q101 0 165.5 -71t64.5 -189t-64.5 -189t-165.5 -71q-102 0 -166 71t-64 189zM125 250q0 -164 83 -223l168 450q-37 23 -81 23q-77 0 -123.5 -63.5t-46.5 -186.5zM295 0q76 0 123 63.5t47 186.5q0 161 -80 221l-169 -450q34 -21 79 -21z" />
    <glyph glyph-name="one.oldstyle" horiz-adv-x="410" 
d="M195 60v422l-147 -60l-3 8l195 80h10v-450q0 -33 47 -42q19 -4 93 -8v-10h-335v10q94 6 115 14q25 11 25 36z" />
    <glyph glyph-name="two.oldstyle" horiz-adv-x="495" 
d="M235 500q-61 0 -95.5 -29.5t-34.5 -60.5q0 -12 17.5 -25t17.5 -25q0 -14 -11 -22t-24 -8q-40 0 -40 40q0 60 53 100t132 40q75 0 127.5 -38.5t52.5 -116.5q0 -76 -66.5 -143t-221.5 -157h298v-55h-400v10q57 31 96 54.5t87 60t77.5 70t49.5 78.5t20 92q0 56 -34 95.5
t-101 39.5z" />
    <glyph glyph-name="three.oldstyle" horiz-adv-x="535" 
d="M465 31q0 -61 -36 -106.5t-83.5 -65t-95.5 -19.5q-80 0 -137.5 40.5t-57.5 99.5q0 40 40 40q13 0 24 -8t11 -22q0 -12 -17.5 -30t-17.5 -30q0 -23 39.5 -51t100.5 -29q75 -1 122.5 42.5t47.5 123.5q0 98 -51 136t-149 38v10q30 -2 57.5 4t54 22.5t42.5 49.5t16 79
q0 59 -31 102t-94 43q-60 0 -95 -27.5t-35 -52.5q0 -12 17.5 -30t17.5 -30q0 -14 -11 -22t-24 -8q-40 0 -40 40q0 57 53.5 98.5t131.5 41.5q81 0 125.5 -43t44.5 -112q0 -60 -46 -101t-114 -57v-2q79 -10 134.5 -51t55.5 -113z" />
    <glyph glyph-name="four.oldstyle" horiz-adv-x="540" 
d="M400 -150h-55v150h-315v11l360 499h10v-500h110v-10h-110v-150zM345 10v422l-303 -422h303z" />
    <glyph glyph-name="five.oldstyle" horiz-adv-x="535" 
d="M120 500h325v-55h-317l-6 -180q79 0 140.5 -13.5t99 -35t61.5 -51t33 -59t9 -61.5q0 -92 -61 -148.5t-169 -56.5q-85 0 -132.5 36.5t-47.5 88.5q0 24 13 39.5t27 15.5q13 0 24 -8t11 -22q0 -12 -17.5 -28.5t-17.5 -31.5q0 -35 36 -57.5t94 -22.5q80 0 130 51.5t50 128.5
q0 35 -13.5 65.5t-43.5 58.5t-87.5 44.5t-135.5 16.5h-14z" />
    <glyph glyph-name="six.oldstyle" horiz-adv-x="564" 
d="M434 200q0 78 -40 134t-105 56q-41 0 -85 -20t-73 -50q-16 -137 29 -228.5t124 -91.5q64 0 107 57t43 143zM499 210q0 -99 -61.5 -159.5t-153.5 -60.5q-108 0 -163.5 74.5t-55.5 189.5q0 160 95 275t249 141l3 -7q-233 -67 -282 -327q83 69 174 69q88 0 141.5 -55.5
t53.5 -139.5z" />
    <glyph glyph-name="seven.oldstyle" horiz-adv-x="484" 
d="M454 490l-267 -640h-76l317 595h-265q-64 0 -85 -16t-28 -80h-10l5 151h409v-10z" />
    <glyph glyph-name="eight.oldstyle" horiz-adv-x="545" 
d="M80 490q0 77 63.5 123.5t141.5 46.5q77 0 133.5 -44.5t56.5 -110.5q0 -45 -32.5 -89t-96.5 -79q69 -32 106.5 -68.5t37.5 -93.5q0 -87 -68.5 -136t-156.5 -49q-98 0 -154 46.5t-56 113.5q0 58 37.5 107.5t114.5 82.5q-60 31 -93.5 65.5t-33.5 84.5zM105 160
q0 -76 48.5 -118t126.5 -42q68 0 111.5 47t43.5 103q0 20 -6 37.5t-20 33t-27.5 27t-37 24.5l-39 21t-44.5 21t-43 20q-52 -21 -82.5 -67.5t-30.5 -106.5zM425 500q0 69 -38.5 109.5t-111.5 40.5q-63 0 -99 -43t-36 -97q0 -16 5 -31.5t11.5 -26.5t21 -23.5t24.5 -20
t31.5 -18.5l32 -16.5t36 -17t35.5 -15.5q88 52 88 159z" />
    <glyph glyph-name="nine.oldstyle" horiz-adv-x="564" 
d="M130 300q0 -78 40 -134t105 -56q41 0 85 20t73 50q16 137 -29 228.5t-124 91.5q-64 0 -107 -57t-43 -143zM65 290q0 99 61.5 159.5t153.5 60.5q108 0 163.5 -74.5t55.5 -189.5q0 -160 -95 -275t-249 -141l-3 7q233 67 282 327q-83 -69 -174 -69q-88 0 -141.5 55.5
t-53.5 139.5z" />
    <glyph glyph-name="currency.oldstyle" horiz-adv-x="552" 
d="M128 249q0 68 46 114l-74 90l8 8l74 -90q43 36 95 36t93 -36l74 90l8 -8l-73 -89q47 -47 47 -115q0 -69 -47 -114l72 -86l-8 -9l-73 87q-40 -35 -93 -35q-54 0 -95 35l-71 -87l-9 9l72 86q-46 46 -46 114zM140 249q0 -59 40.5 -102t96.5 -43t96.5 43t40.5 102
t-40.5 102.5t-96.5 43.5t-96.5 -43.5t-40.5 -102.5z" />
    <glyph glyph-name="dollar.oldstyle" horiz-adv-x="473" 
d="M396 361h-9q-15 62 -53 100.5t-87 41.5l-3 -214q89 -38 118 -62q46 -39 46 -96q0 -62 -45 -100.5t-122 -40.5l-1 -70h-10l1 70q-89 2 -158 37l-8 125h8q13 -80 58 -116t100 -38l3 237q-87 35 -114 57q-44 36 -44 89t42.5 90t118.5 39l1 70h10l-1 -70q75 -2 140 -32z
M357 118q0 41 -29 65.5t-84 47.5l-3 -233q53 1 84.5 37t31.5 83zM127 401q0 -37 27 -60.5t80 -47.5l3 210q-49 -1 -79.5 -31.5t-30.5 -70.5z" />
    <glyph glyph-name="cent.oldstyle" horiz-adv-x="572" 
d="M322 -78v68q-109 2 -183 75t-74 184q0 110 74 184.5t183 76.5v75h10v-75q87 -1 164 -42l7 -99h-8q-13 53 -56 92.5t-107 41.5v-505q71 1 112 41t55 93h8l-11 -99q-74 -42 -164 -43v-68h-10zM122 249q0 -105 58 -177t142 -74v505q-84 -2 -142 -75.5t-58 -178.5z" />
    <glyph glyph-name="Euro.oldstyle" 
d="M54 307h56q19 90 90 146.5t166 56.5q94 0 169 -42l7 -99h-8q-13 54 -57.5 94t-110.5 40q-73 0 -128.5 -55t-71.5 -141h174l-4 -7h-171q-4 -23 -4 -51q0 -29 4 -50h175l-4 -8h-170q16 -85 71.5 -139t128.5 -54q74 0 116 40t56 94h8l-11 -99q-76 -43 -169 -43
q-95 0 -166 55.5t-90 145.5h-56v8h54q-4 21 -4 50q0 23 5 51h-55v7z" />
    <glyph glyph-name="franc.oldstyle" 
d="M54 307h56q19 90 90 146.5t166 56.5q94 0 169 -42l7 -99h-8q-13 54 -57.5 94t-110.5 40q-73 0 -128.5 -55t-71.5 -141h174l-4 -7h-171q-4 -23 -4 -51q0 -29 4 -50h175l-4 -8h-170q16 -85 71.5 -139t128.5 -54q74 0 116 40t56 94h8l-11 -99q-76 -43 -169 -43
q-95 0 -166 55.5t-90 145.5h-56v8h54q-4 21 -4 50q0 23 5 51h-55v7z" />
    <glyph glyph-name="lira.oldstyle" 
d="M54 307h56q19 90 90 146.5t166 56.5q94 0 169 -42l7 -99h-8q-13 54 -57.5 94t-110.5 40q-73 0 -128.5 -55t-71.5 -141h174l-4 -7h-171q-4 -23 -4 -51q0 -29 4 -50h175l-4 -8h-170q16 -85 71.5 -139t128.5 -54q74 0 116 40t56 94h8l-11 -99q-76 -43 -169 -43
q-95 0 -166 55.5t-90 145.5h-56v8h54q-4 21 -4 50q0 23 5 51h-55v7z" />
    <glyph glyph-name="peseta.oldstyle" 
d="M54 307h56q19 90 90 146.5t166 56.5q94 0 169 -42l7 -99h-8q-13 54 -57.5 94t-110.5 40q-73 0 -128.5 -55t-71.5 -141h174l-4 -7h-171q-4 -23 -4 -51q0 -29 4 -50h175l-4 -8h-170q16 -85 71.5 -139t128.5 -54q74 0 116 40t56 94h8l-11 -99q-76 -43 -169 -43
q-95 0 -166 55.5t-90 145.5h-56v8h54q-4 21 -4 50q0 23 5 51h-55v7z" />
    </font>
</defs>
</svg>
